<svg id="Слой_1" data-name="Слой 1" xmlns="http://www.w3.org/2000/svg" viewBox="0 0 4000.44 3191.48"><defs><style>.cls-1{fill:#36adba}</style></defs><path class="cls-1" d="M4000.44 2193.48c-4.33.08-8.66.22-13 .22H2732.21c-27 229.14-133 411.2-324.06 540.88-136.62 92.75-289.24 132.74-453.78 122.16-179.4-11.53-335-80.52-464.19-205.56-129-124.83-201-278.22-219.93-457.3H2.34c-2.43-7.63-3.2-115.91-1.2-131.11 7-2.06 1382.7-2.88 1399-.73.19 2.73.57 5.61.58 8.49v53c.67 142.78 44.45 270.64 135 381.25 88.31 107.9 201.29 176.81 337.63 207.07a576.58 576.58 0 0 0 155.86 13.15c130.75-6.87 247.86-50.7 349.72-133.22q138.8-112.44 193.8-282.92c14-43.25 23.44-87.54 25.81-133 1.79-34.24 1.54-68.59 2.18-102.9.07-3.58 0-7.17 0-11.39 4.3-.2 7.54-.47 10.78-.47h1380c3 0 6 .24 9 .36zm-2618 998c-5.41-1.23-10.79-2.7-16.25-3.67-85-15.09-150.86-82.16-163.21-167.45-15.94-110.06 60-206.64 162.16-225.11 94.36-17.05 189 35.18 222.9 125.84 43.38 115.9-26.28 238.23-142.52 264.67-9 2-18 3.82-27.08 5.72zm18.87-133.79c36.55-.09 66.61-29.34 66.37-65.81-.28-42.08-34.72-67.13-66.55-66.77-37.17.41-66.75 29.43-66.73 66.44s29.6 66.24 66.91 66.14zm1181.13 133.79c-5.41-1.23-10.79-2.7-16.25-3.67-85-15.1-150.85-82.13-163.21-167.44-16-110.15 60.1-206.69 162.16-225.12 95.56-17.26 190.51 36.64 223.61 127.7 41.73 114.84-27.19 236.39-143.21 262.8-9 2.05-18.06 3.83-27.1 5.73zm18.21-133.79c30.41 1.28 66.83-22.8 66.91-66.15.08-42.07-34.93-66.92-66.76-66.44-36.65.55-66.23 29.4-66.4 65.79a65.94 65.94 0 0 0 66.25 66.8z"/><path class="cls-1" d="M1534.21 2125.78c.36-75 9.3-140.09 23.2-204.82 34.36-160 87-314.27 143.94-467.24 64.6-173.59 136.35-344.27 211-513.75Q2019.23 697.15 2134 458q98.84-207 202.43-411.58c6.21-12.24 12.56-24.31 24.19-32.52 21.66-15.28 44.75-18.4 68.86-6.94 24.54 11.66 37.42 32.09 38 58.81.28 13.44-3.55 27-5.73 40.44-7.77 48-15.91 95.86-23.38 143.87q-10.21 65.61-19.27 131.39c-5.32 38.58-10.05 77.24-14.8 115.89-4.59 37.34-9.07 74.69-13.23 112.07-3.19 28.79-5.92 57.63-8.66 86.47q-4.83 50.7-9.3 101.45-2.61 29.87-4.52 59.78-5 80.77-9.61 161.59c-1 18-1.84 35.95-2.07 53.93-.83 65.65-2.29 131.31-1.73 196.94.42 49 2.69 97.93 5.77 146.8 5 79.12 13.61 157.88 29.46 235.67 7.85 38.48 17.18 76.67 24.47 115.24 10 52.64 19.35 105.4 27.61 158.33 7.43 47.67 13.19 95.61 19.32 143.48 2.49 19.48 5.27 39.06 5.62 58.64a417.5 417.5 0 0 1-3.62 58.77c-6.51 52.33-21.26 102.43-45.77 149.16-68.38 130.36-174.26 212.76-317.86 246.23a418.51 418.51 0 0 1-104.08 10.84c-119-2.55-223.38-43-311.31-123.7-77.51-71.09-125-159.1-143.74-262.49-5.38-29.56-7.64-59.51-6.84-80.78zm736-1638.49l-1.24-.45c-1.65 3.16-3.41 6.27-4.94 9.48-22.55 47.56-45.22 95.05-67.57 142.7-83.61 178.22-164.56 357.63-241.12 539-46.88 111.06-92.26 222.75-134 335.85-52 140.93-100.52 282.92-132.54 430.08-13.45 61.79-21.7 123.85-21 187.14.67 57.22 14.87 110.67 43.23 160.24 77.29 135.17 235.5 198.43 383.93 154.82 119.65-35.16 207.71-131.4 232.78-253.47 4.62-22.53 8.09-45.45 6.15-68.48-2.55-30.17-6-60.3-10-90.32-5.27-39.58-10.68-79.18-17.38-118.54-8.88-52.15-18.05-104.3-29-156.06-13.32-63.18-28.72-125.93-35.68-190.28-4.66-43-9.47-86-13-129.16q-4.3-51.76-5.7-103.75c-1.79-65.29-3.8-130.59-1.35-195.92s4.4-130.53 6.92-195.79c.93-24.29 2.65-48.56 4.37-72.81q3.49-49.33 7.58-98.61 3-36.84 6.53-73.64 4.34-44.73 9.19-89.42c3-27.8 6.23-55.57 9.36-83.36q2.27-19.62 4.5-39.25zM134.36 2724.91c.19-146.81 119.9-265.7 267.54-265.19 144.73.5 265.81 116.17 265.7 266.08-.12 151.64-124 266.58-268.09 265.69-147.46-.91-265.89-120.69-265.15-266.58zm266.31 133.28c69.87 1.27 132.68-55.4 133.56-131.05.89-76.75-62.26-134-132.44-134.43-73.63-.43-134.07 60.54-134.12 132.81-.05 71.48 59.33 133.56 133 132.67zm2933.69-132.55c0-147.07 119.41-266.19 266.8-265.95 145.23.23 266.71 116.17 266.44 266.37-.28 151.44-123.81 265.86-267.36 265.45-146.86-.41-265.93-119.28-265.88-265.87zm266.71 132.55c70.18 1.07 133.08-56.35 133.17-132.46s-62.9-132.8-132.86-133c-73.28-.23-133.86 60.59-133.72 133.22.14 71.11 59.41 133.32 133.41 132.24zm-2600.26-531.11c108.91-1.33 200 89 200.15 199 .13 107.25-87.68 199.33-199.92 199.52-106.2.19-200-84.52-200.06-199.28-.09-117.03 96.7-200.67 199.83-199.24zm-66.42 199.12c-1 27.9 20.43 65.62 65.8 66.38 37.89.64 67.68-28.57 67.36-66.89-.34-40.68-33.33-65.91-66.36-66a66.46 66.46 0 0 0-66.8 66.51zm2066.5-199.12c108.88-1.29 200 89.09 200.07 199.09.08 107.24-87.74 199.29-200 199.45-106.19.14-199.94-84.6-200-199.37-.02-117.02 96.78-200.64 199.93-199.17zm-66.5 199.13c-1 27.9 20.45 65.62 65.81 66.37 37.91.63 67.68-28.59 67.35-66.9-.35-40.68-33.33-65.9-66.37-66a66.46 66.46 0 0 0-66.79 66.53z"/></svg>