<svg data-name="Слой 1" xmlns="http://www.w3.org/2000/svg" viewBox="0 0 3146.53 3249.84"><path d="M0 2400.77v-561c0-60.17 18.57-114.09 55.43-161.33 42.16-54 97.56-86.76 165.19-98.18a224.28 224.28 0 0 1 36.82-2.7q213.49-.27 427-.13c40.81 0 79 10 115.27 28.46a43.91 43.91 0 0 0 19.9 4.81c10.13-.21 16.64-6.93 21.09-16 8.64-17.65 17.42-35.24 26.73-52.54 26.82-49.86 59.94-95.24 98.3-136.82a89 89 0 0 1 10.8-10.34c39.35-30.3 72.49-66.7 103.27-105.38 55.12-69.28 102.2-143.91 146.31-220.5s84.57-155 122.92-234.51Q1428 670.74 1496 502q21.42-53.28 42-106.93c10.58-27.61 10.24-27.72 7.33-56.22a672.43 672.43 0 0 1-2-116.75c1.8-25 4.55-49.76 10.53-74.06 7-28.29 17.3-55.32 33.46-79.78 22.92-34.69 54.63-57.28 95.44-65.4 14.85-3 30.51-3.18 45.73-2.64 28 1 55.79 4.15 83.07 10.78 141.26 34.31 238.13 118.25 286.51 256.4 13.64 38.94 20.5 79.14 24 120.12a749.51 749.51 0 0 1 1 104.89C2120.1 546 2112 599 2100.82 651.5c-13.73 64.59-34 127.3-54.07 190.08-26 81.22-48.53 163.38-64.43 247.22-7.26 38.3-12.8 76.88-12.43 116 0 4.61 1 9.21 1.48 13.83 1.36 14.24 14.78 24.19 31.78 20.45 16.25-3.58 32.45-7.43 48.8-10.49 59.21-11.06 118.26-23.22 177.78-32.31 50-7.64 100.46-12 150.8-17 63.09-6.24 126.42-7.27 189.74-5.43 69 2 137.61 8.88 204.73 25.87 59.15 15 115.69 36.73 165.86 72.14 70.29 49.62 118.8 115.08 139.29 199.51 9 37.21 9.46 75.16 6.26 113.25-3.15 37.49-12.31 73.46-26 108.38-4.95 12.66-2.83 23.51 5.39 34.49 32.91 44 57 92.42 70.24 145.76a374.65 374.65 0 0 1 9.22 59.09c6.65 80.19-14 153.82-55.76 221.92-9 14.74-18.56 29.34-29.29 42.87-9.18 11.56-10.71 23-5.8 36.29a369.67 369.67 0 0 1 18.05 67.43c7.1 43 8.92 86 3.74 129.35-10 83.44-44.85 155.5-99.1 218.68-13.64 15.89-28.74 30.58-43.69 45.29-7.49 7.38-10.94 15.61-10.06 25.92 1 11.28 2 22.55 2.71 33.85 3.27 52.45-2.63 103.69-20.18 153.42-23.72 67.22-63.17 123.5-116.84 170.24-53.29 46.39-114.7 78.51-180.13 103.54-67.13 25.67-136.53 42.6-207.67 52.68-39.91 5.66-80 9.45-120.2 12.19-68.26 4.66-136.56 4.45-204.86 2.71-38.62-1-77.2-3.62-115.79-5.69-12-.64-23.88-2.14-35.85-2.76-6.62-.34-13.3.5-20 .5-55.33 0-110.66.5-166-.13-47-.53-94-1.86-140.91-3.71-53.92-2.12-107.82-4.94-161.71-8q-57.86-3.26-115.63-7.94c-49.45-4-98.86-8.51-148.25-13.2-41.1-3.9-82.19-8-123.2-12.71-46.63-5.33-93.18-11.4-139.76-17.11-17.51-2.15-35.06-4-52.56-6.31-11.41-1.5-21.27.86-31.12 7.39-33.18 22-69.34 36.83-109.09 41.82a257.78 257.78 0 0 1-31.88 2.19c-142.67.14-285.33.53-428-.09-65-.29-121.44-24.08-169.78-67.34-40.2-36-66-80.6-79.52-132.53-5.63-21.7-7.25-44-7.25-66.36Q0 2678.77 0 2400.77zM2150.71 3114c49.34-.23 98.59-2.09 147.78-6 44.86-3.57 89.4-9.26 133.42-18.59 55.78-11.81 110.77-26.35 163-49.84 50-22.48 95.75-51.08 132.74-92.29 41.88-46.63 62.05-101.74 64.06-163.92.94-28.9-4.13-57-11.72-84.75-6.08-22.21-2.57-43.15 11.69-61.41 5.25-6.73 12.08-12.42 18.85-17.73 30.86-24.18 58.67-51.23 81.59-83.2 36-50.19 53.78-106.1 51.48-167.77-1.72-46.18-13.92-89.92-35-131.2-3.88-7.6-7.39-15.79-8.95-24.11-4.44-23.76 3.66-43.89 20.24-60.93A406 406 0 0 0 2971 2087c21.32-33.4 34.7-69.87 38.46-109.26 4.47-46.8-7.09-90.63-29-131.79-15.26-28.71-34.81-54.33-57.85-77.36q-23.64-23.64-19.57-57.35c1.48-12.42 7.92-22.39 13.65-32.9 25.53-46.86 40.4-96.4 35-150.33-3-29.8-11.89-57.91-28.24-83.45-26.64-41.61-64.09-69.86-108.88-89.19-42.5-18.34-87.33-28.28-132.75-35.63-58-9.39-116.62-12.08-175.29-11.53-45 .42-89.93 2-134.69 6.82-33.43 3.59-67 6.18-100.22 11.28-43.73 6.73-87.18 15.26-130.67 23.42-33.36 6.26-66.64 13-99.88 19.82-18.88 3.9-37.42 9.87-56.44 12.57-39.16 5.56-73.75-4.78-102.55-33-16.12-15.79-26.6-34.75-34.52-55.51-9.52-24.94-12.46-51.06-13.58-77.38-2.51-59.28 5.53-117.64 16.76-175.63 14.89-76.92 36.39-152.12 60.07-226.7 19.74-62.19 40-124.18 54.14-188 11.22-50.8 19.67-102 22.24-154 2.39-48.51-1.47-96.5-13.8-143.65-11.68-44.68-31.76-84.84-64.78-117.6-51.76-51.37-116.26-71.82-187.33-75.41-13.49-.68-22.88 6.18-27.84 18.64a153.77 153.77 0 0 0-5.72 18.05c-4.86 18.75-7.31 37.84-8.71 57.17a576.28 576.28 0 0 0 4.09 120.61c2.61 19 3.32 37.15-3.79 55.9-38.29 100.9-78.53 201-121.76 299.87-63.13 144.52-131.18 286.52-209.63 423.4-50.91 88.84-105.4 175.33-170.46 254.71-27.69 33.78-56.8 66.27-89.84 95-15.82 13.77-31.4 27.64-44.65 44.17A596.94 596.94 0 0 0 931.11 1743a38.1 38.1 0 0 0 .29 21.56c7.92 26.73 10.37 54.11 10.36 81.92q-.18 552.95 0 1105.9c0 21.71-1.36 43.2-5.3 64.59-2.33 12.63 5.34 24.86 17.19 27.83a88.9 88.9 0 0 0 10.73 2.33c34 4.14 68.07 8.41 102.15 12.17q61 6.72 122.19 12.65c48.72 4.66 97.47 9.14 146.25 13.12q57.75 4.71 115.62 8c53.55 3 107.11 5.8 160.7 7.93 40 1.59 80 2 119.93 2.94 10.33.24 20.65.74 31 .75q59.47.06 119-.15c19.32-.06 38.69-1.21 58-.29 35.92 1.7 71.77 5.08 107.69 6.78 34.49 1.62 69.15 1.97 103.8 2.97zM805.9 2400.5v-548.92c0-5.33.2-10.68-.09-16-1.8-32.42-12.66-61.17-35.65-84.57-24.84-25.29-55.46-37.62-90.69-37.67-136.64-.2-273.29 0-409.94-.21-15.49 0-30.62 1.49-45.31 6.16-41.39 13.15-68.88 40.6-82.07 81.87-4.87 15.25-6.5 31.11-6.5 47.29q.25 551.43 0 1102.85c0 15.83 1.62 31.31 6.25 46.32 12.44 40.3 38.93 67.54 78.52 81.72 16.45 5.9 33.63 6.73 51.15 6.68 134.65-.38 269.3-.15 404-.32a160.29 160.29 0 0 0 28.76-2.57c34.14-6.3 60.79-24.35 80.29-53 15.13-22.23 21.27-47.15 21.28-73.7q.1-277.96 0-555.93z" fill="#36adba"/></svg>