<svg id="Слой_1" data-name="Слой 1" xmlns="http://www.w3.org/2000/svg" viewBox="0 0 3650 3300"><defs><style>.cls-1{fill:#36adba}</style></defs><path class="cls-1" d="M152.48 1885.46c1.17-74.67 8.59-148.47 27.71-220.65 30.73-116 81.85-222.29 155.07-317.55 46.3-60.25 98.89-114.48 160-159.9 68.86-51.15 144.92-88.12 226.82-113.37 41.54-12.81 84.1-19.92 127.26-24.43a788.53 788.53 0 0 1 116.81-3.06c84.32 3.7 165.48 21.72 243 55.42 55.55 24.13 108.27 53.17 156.33 90.14 51.75 39.82 98.84 84.57 136.89 137.85 51.17 71.66 86.63 150.55 102.88 237.38 9.78 52.3 11.7 105.22 8.26 158.29-4.77 73.7-24.36 143.38-56 210A584.6 584.6 0 0 1 1417 2123c-60.4 53.84-130.82 88.83-208.75 109.15-26.17 6.82-53.06 9.94-80 11.38-47.72 2.55-95.26.59-142.19-9.42-35.36-7.54-69-20.17-101.68-35.35-69.87-32.43-129.07-78.73-176-139.69-40.05-52-67-110.51-77.59-175.53-9.32-57-9-114.48 5.51-170.63 18.66-72.32 54-135.87 107.25-188.92 20.29-20.2 44.51-27.82 72.2-21.88 19.59 4.2 34.86 15.93 46.41 32.42 12.24 17.49 14.55 37.22 11.22 57.37a65.47 65.47 0 0 1-18.12 35c-19.88 20.41-37.59 42.57-50 68.26-21.44 44.32-32.14 91.29-26.71 140.5 8.63 78.29 45.69 140.41 108.73 188 50.12 37.87 106.5 58.21 168 66.55 41.54 5.64 82.19.64 122.75-9.15 72.46-17.48 130.68-57.08 178.38-113 39.57-46.4 69.66-98.29 86.33-157.38 11.52-40.83 20.07-82.21 20.7-124.79.5-33.75-3.69-67-11.12-100-8.82-39.17-20.56-77.21-39.63-112.71-32.83-61.12-77.33-112.18-132.37-154.35-53.64-41.11-111.62-73.79-176.62-93.28s-130.85-30.79-198.89-27.75c-38.09 1.69-75.32 8.33-112.45 16.63-98.83 22.08-183.85 69.94-257.56 138.22-57.17 53-103.07 115-140.8 183.11-40.15 72.47-63.66 150.58-78.26 231.73-9.38 52.1-11.72 104.6-9.2 157.29 2.29 48 11.21 95.09 22.34 141.84 28.1 118 85 220.71 165.08 311 52.76 59.44 114.06 109 180.23 152.72 91.32 60.33 190.57 101.84 297.3 125.93 34.78 7.85 69.67 15 105.06 19.16a927.56 927.56 0 0 0 155.62 5.32c86.73-4.4 171-21.6 253.4-48 81.46-26.1 157.11-64.15 227.58-112.59 49-33.68 95.11-70.81 137.14-113 19.92-20 44.34-26.92 71.55-20.95 19.89 4.36 35.58 16.19 46.81 33.43 20.24 31.06 13 71.33-11.73 96-117.89 117.48-255.59 203-412.24 258.56-57.26 20.31-115.72 35.86-175.77 45.15-43.12 6.67-86.45 11.77-130.14 12.91-23.31.6-46.64 1.65-69.94 1.33a1192.94 1192.94 0 0 1-157.18-13c-103.72-15.24-201.91-47.85-296.26-92.77-88-41.91-169.18-94.44-242.63-158.71-61.17-53.54-117.11-111.88-163.1-179.15-63.06-92.23-108.07-192.66-134.09-301.38a718.48 718.48 0 0 1-17.59-113.38c-2.36-29.88-3.74-59.83-5.5-89.74zm2490.9 1268.17c-33.55.17-65.38-24.79-74-60.18-3.37-13.87-3.17-28.53 2.64-42.27 16.44-38.84 27-79.37 34.85-120.66a360 360 0 0 0 3.94-109.42c-7.9-67.31-27.82-131.39-53-194-19.52-48.49-39.52-96.8-58.59-145.47-14.45-36.9-26.81-74.57-35.87-113.21-6.78-28.87-12-58.11-13.39-87.76-1.41-30.25-2.66-60.62-1.6-90.86 2.08-59.34 14.71-116.73 35.51-172.38 24.62-65.88 55.33-128.54 98.34-184.5 50.18-65.28 111.59-117.8 183.06-158.7C2819.76 1643 2877.08 1618 2935 1594c45.22-18.74 90.63-37.06 134.28-59.37 42.62-21.79 82.31-48 118.16-79.72 35-31 62.66-68.11 86.25-108.22 30.69-52.18 50-108.66 62.42-167.76 12.63-60.06 10.55-119.6-2.74-179.32-13.38-60.1-34.85-117.35-58.31-174-22.42-54.14-45.08-108.18-63.29-164a648.37 648.37 0 0 1-30.31-147.33c-6.14-72.71-1.42-144.49 18.89-214.71 7.75-26.81 18.08-52.89 27.69-79.13 8-21.75 22.7-37.33 44.46-45.93a75.82 75.82 0 0 1 92.31 31.09c13.68 22.71 15 46.24 4.92 70.8a545.56 545.56 0 0 0-37.13 145.68c-5.23 45.77.12 91 10 135.86 13.32 60.46 35.3 117.9 58.87 174.86 21.76 52.62 43.75 105.13 61.6 159.28 16.33 49.55 27.12 100.12 31.33 152.18 7.57 93.79-4.15 184.69-38.83 272.47-23.36 59.12-51.24 115.83-89.58 166.76-53.9 71.6-120.94 128-199.51 171.17-58.54 32.13-120 57.81-181.49 83.34-46.15 19.14-92.34 38.25-135.76 63.22-41.19 23.68-79.88 50.81-112.8 85.37-37.83 39.69-67.37 85-90 134.9-21.87 48.25-36.09 98.85-43.76 151.1-7.39 50.29-3.13 100.17 7.88 149.8 13.84 62.43 36.52 121.71 60.95 180.48 20.33 48.89 40.63 97.79 57.5 148 14 41.76 25 84.24 30.48 128a692.55 692.55 0 0 1 3 138.6c-4.84 64.16-22.35 124.93-46.5 184.15-9.06 22.21-23.83 38.45-46.57 46.43-8.28 2.95-17.32 3.79-26.03 5.58z"/><circle class="cls-1" cx="2490" cy="980" r="190"/><circle class="cls-1" cx="2190" cy="500" r="150"/><circle class="cls-1" cx="1880" cy="980" r="110"/></svg>