<svg data-name="Слой 1" xmlns="http://www.w3.org/2000/svg" viewBox="0 0 3500.51 3501.08"><path d="M1460 3501.08q0-106-.09-212 0-211.48.1-423c.09-49.57-12.26-95.29-37.93-137.76-53.25-88.11-106-176.53-159.11-264.72a42 42 0 0 0-10.5-11.68q-209.76-157.66-419.64-315.18c-42.83-32.22-103.83-29.8-142.33 9.17-45.13 45.73-40.21 121.79 11.31 160.35 34.67 25.95 70.33 50.57 105.57 75.76l248.88 177.85c2.65 1.9 5.21 3.94 8.35 6.31l-84.24 117.93c-2.63-1.58-4.63-2.62-6.44-3.91-119.31-85.2-238.84-170.11-357.78-255.83-57.42-41.37-91-98.24-101.65-168.09-7.05-46.1-1.18-91 16.94-134.08.78-1.84 1.56-3.68 2.26-5.55a14.26 14.26 0 0 0 .33-2.6c-1.69-1.48-3.54-3.34-5.62-4.9q-100.35-75.29-200.81-150.43c-16.11-12-28.25-26.45-32.35-46.39-1.53-7.41-1.66-15.21-1.66-22.83q-.13-208-.1-416c0-41-8.7-80-27.77-116.44q-37.08-70.8-108.43-107.11c-2.61-1.34-5.36-2.4-8.91-4-.27 3.3-.65 5.78-.65 8.27q0 503 .24 1005.92c.13 77.3 33 140.13 92.14 189.44l297.95 248.38c61.43 51.21 123.05 102.21 184.2 153.76q113.87 96 187.76 225.47c49 85.47 82.29 176.77 99.19 273.78 5.3 30.44 8.1 61.37 10.9 92.17 1.74 19.2 1.33 38.58 1.89 57.88H876c1.27-29-1-58-4.56-86.72a692.84 692.84 0 0 0-40-162.51c-43.53-114.51-111.78-211.63-205.58-290.5Q514.92 2868 403.29 2775.52q-106-88.35-212-176.65c-22.51-18.79-45.73-36.87-66.92-57.06Q19.08 2441.45 3.64 2296.21c-.54-5.11-2.4-10.09-3.64-15.13v-1124c1.36-2.92 3.17-5.71 4-8.77 9.07-33.2 39.65-54.59 71-53.93 24 .5 48 .16 72 .06a80.62 80.62 0 0 1 28.34 5.1Q351 1163.89 416.5 1339.22a349.07 349.07 0 0 1 21.79 110.24c.63 18.31 1.07 36.63 1.08 55q.15 172.46-.11 344.91c0 7.78 2.27 12.6 8.62 17.32q88.67 65.86 176.72 132.52c5.43 4.1 9.17 4.34 15 1 45.2-26 94.14-36.65 145.94-32.57 48.25 3.8 92.07 20.46 130.89 49.58q219.08 164.34 438.1 328.74a91.24 91.24 0 0 1 24 26.45q85 141.9 170.16 283.65a395.2 395.2 0 0 1 54.75 161.39 429.56 429.56 0 0 1 2.3 47.87q.22 311.43.1 622.84c0 4.33.13 8.66.19 13zm1020 0c.51-12 1.12-23.94 1.53-35.92 2.93-85.19 19.1-167.88 47.46-248.17q57.33-162.3 173.22-289.68c32.81-36.15 69.24-68.28 106.71-99.39q105.76-87.8 211.23-176c78.08-65.07 156-130.35 234.33-195.09 29.36-24.25 55.15-51.15 72.79-85.26 15.18-29.35 24.75-60.31 27-93.34.82-12 1.34-24 1.34-35.92q.1-491 .06-981.88v-14.23c-3.8 1.4-6.59 2.09-9.07 3.38-72.55 37.88-117.07 96.8-132.93 177.24-3.37 17.1-3.94 34.35-3.93 51.71 0 137-.18 274 .19 411 .09 29.36-10.9 51.72-34.5 69.2-65.59 48.6-130.74 97.81-196 146.79-3.44 2.58-6.82 5.23-10.79 8.28 1.36 3.69 2.47 7.09 3.83 10.38 13.51 32.81 20.35 67.09 18.78 102.41-3.69 83.34-38.7 150.87-106.61 199.78-117.33 84.52-235.28 168.19-353 252.2-2.69 1.92-5.48 3.7-8.85 6l-84.28-118.05c3-2.4 5.45-4.5 8-6.36q174.87-124.93 349.79-249.8c23-16.38 38.07-37.85 44.58-65.3 15-63.46-32-126.52-97.1-130.42-28.22-1.69-53 6.54-75.51 23.46q-172.57 129.75-345.42 259.16c-23.72 17.79-47.41 35.64-71.22 53.32a46.84 46.84 0 0 0-12.53 13.94q-79.57 132.92-159.39 265.7c-23.51 39.13-36.29 81.3-36.3 127.09q-.08 318.47 0 636.92c0 2.32.37 4.63.56 6.94H1898c-.14-3.32-.41-6.64-.41-10q0-313.45-.15-626.9c-.12-65.61 13.75-127.68 44.45-185.52 15.92-30 34.19-58.72 51.64-87.87 42.93-71.76 86.11-143.37 128.93-215.19a110.17 110.17 0 0 1 29.23-32.3q214.47-160.52 428.65-321.42c31.08-23.37 64.79-40.69 102.9-48.91 60.62-13.07 118.47-5.11 173.51 23.41 4.7 2.44 9.36 5 14.31 7.61 2.91-2 5.69-3.84 8.33-5.82q88.37-66.24 176.81-132.41c5.64-4.21 7.89-8.52 7.88-15.65q-.35-190.47-.08-380.94c.17-82.38 24.11-157.53 71.54-224.84 48.51-68.85 113-116.92 192.46-144.79a83.86 83.86 0 0 1 25.32-4.86c26-.61 52-.59 78-.09a70.86 70.86 0 0 1 65.77 48.31c1.69 5 2.34 10.34 2.95 15.59a110.05 110.05 0 0 1 .3 13q0 542.91.19 1085.82c.1 90.13-27.83 170-82.2 241.15-19.32 25.29-42.3 47-66.71 67.3q-130.62 108.62-261.15 217.5c-69.63 58-139.43 115.83-208.87 174.08q-183.82 154.21-237.93 388.14a644.75 644.75 0 0 0-16.19 120.58c-.43 11.64-1 23.29-1.48 34.93zM1750.89 106.49c3.74-4.33 6-7.17 8.51-9.81 45-47.85 99.63-79 164.24-90.76 68.27-12.4 134.91-5.95 197.75 25.23 53.41 26.5 107 52.73 159.2 81.52 95.51 52.7 180.35 119.7 255.65 198.58a1108.82 1108.82 0 0 1 228 353.09 1095.9 1095.9 0 0 1 66.11 236.08c8.07 49.71 13.62 99.66 14 150.05.25 31.64.76 63.35-1 94.9a1107.08 1107.08 0 0 1-46 261q-67.62 223-217.65 401.31c-82.15 97.47-178.48 178.3-288.1 243.38-52.43 31.13-104.51 62.83-156.88 94.06-56.79 33.85-118.46 47.84-184 41.37-74.84-7.38-138.39-39.1-190.32-93.72-2.52-2.65-5.07-5.28-7.62-7.9a18 18 0 0 0-2.74-1.35 44.8 44.8 0 0 1-4 5.67c-49.94 53.72-110.92 86.62-183.87 96-68.74 8.85-133.4-4.13-193-39.64-64.7-38.53-129.5-76.91-193.34-116.83-79-49.36-149.76-109-213.36-177q-167-178.56-245.63-410.18a1115.48 1115.48 0 0 1-48.39-204.76 1098.93 1098.93 0 0 1-10-197.4c6.11-150.94 40.77-295 105.12-431.86q91.74-195.06 249.47-341.95a1098.64 1098.64 0 0 1 256.8-178.68c35.11-17.66 70.46-34.87 105.4-52.88 54.34-28 112.23-37.74 172.49-32.49 78.27 6.81 144.39 39.55 197.8 97.45 1.81 1.95 3.09 4.3 5.36 7.52zm436.76 1644.05h-143.94c-1.22-9.17-2-18.08-3.64-26.86-9.58-52.86-34.56-96.85-76.49-130.76-31.44-25.43-67.73-40.74-106.82-49.85-10.3-2.4-20.74-4.21-32-6.46-.23 4.06-.53 7-.53 9.88q0 170 .08 340c.07 36.53 11.3 69.58 34.58 97.93 32 39 73.85 58.32 124.12 58 28.85-.17 55.56-9.08 80.35-24.14 49.27-29.91 98.58-59.76 148.25-89 90.62-53.34 171.33-118.64 241.12-197.38q131.35-148.17 195-335.67c32.23-94.63 48.88-192.1 51.48-292 0-1.24-.53-2.49-1-4.46-6.49 1.13-12.68 2-18.81 3.29-100.88 20.65-176.32 75.53-224.06 167.25-25.85 49.64-40.25 102.73-45.65 158.33-.95 9.83-1.73 19.68-2.61 29.7h-144.37a23.76 23.76 0 0 1-.69-4.33c.77-15.63.88-31.34 2.57-46.88a584.33 584.33 0 0 1 37.4-152.8c37.58-94.86 96-173.19 182.34-229.32a45.26 45.26 0 0 0 4.62-4.08c-3.21-2.22-5.59-3.95-8-5.57a437.7 437.7 0 0 1-94.64-84c-42.68-50.58-73.31-107.84-94.23-170.36-18-53.69-28.39-108.78-30.06-165.45-.1-3.58 0-7.17 0-10.55 10.62-2.15 137.86-1.86 145.41.2.15 1.55.4 3.18.46 4.82A447 447 0 0 0 2430 714.44c15.11 46.47 37.49 89 70 125.72 45 51 101.82 81.78 167.59 97 6.6 1.53 13.29 2.66 20.61 4.11 0-2.77.08-4.06 0-5.34-.14-2-.31-4-.64-6-8.18-49-19.26-97.29-34.6-144.56q-63.66-196.23-201-350.16c-67.53-75.3-144.33-139.51-232.41-189.21-53.34-30-108.55-56.88-163.33-84.31-35-17.54-72.66-19.62-110.26-11.35-71.93 15.82-121.54 78.58-121.66 152.41q-.29 169-.06 338v9.94c3.08 0 5.1.29 7 0 26.32-4.58 52.13-11.12 76.62-22 72.9-32.22 118.2-86.7 132.61-165.76 1.48-8.09 2.23-16.32 3.28-24.24 14.32-2.08 137.34-1.38 144.73.88a76.15 76.15 0 0 1 0 8.67c-2 17.84-2.85 35.95-6.61 53.43-21.32 99.25-74.11 177.28-159.83 232.21-52.17 33.42-109.91 51.91-170.82 61.28-8.79 1.35-17.58 2.65-26.46 4v590c3 .62 5.5 1.38 8.1 1.67a486.91 486.91 0 0 1 113.47 26.63c67.51 24.92 124.74 64.27 168.64 121.83 41.17 54 65 115 72.57 182.43.99 9.11.11 18.46.11 28.82zM1677.8 651.39c.23-3.42.51-5.69.51-8 0-115 .49-230-.23-345-.31-50.55-22-92-62.89-121.36-53-38.13-110.85-40.85-169.55-14.63-37.07 16.56-72.88 36-109.16 54.29q-178.2 90-306.54 242.92C916.73 595.2 846.06 750.39 816.4 924.37c-.91 5.32-1.27 10.74-2 17.14 10.56-2.38 19.69-4.18 28.68-6.5 72.24-18.61 132-56.36 176.19-117 45.85-62.84 67.66-134.43 74.81-211.11.7-7.52 1.23-15.07 1.84-22.66h144.75c.24 3 .75 5.24.57 7.48-1.58 19.91-2.63 39.88-5.07 59.69a557.32 557.32 0 0 1-49 169.1c-38.35 81.84-93.71 149.19-170.32 198.19-1.12.71-2.6.88-4.8 1.58 4.09 2.88 5.67 4.07 7.33 5.14 69.7 45.14 121.68 106 159.44 179.53a555.08 555.08 0 0 1 54.64 167.39c4.12 25.91 5.36 52.28 7.77 78.46.23 2.48-.55 5.05-.83 7.39-19.78 2-137.22 1.12-144.48-1-.5-5.51-1.18-11.12-1.49-16.75a438.66 438.66 0 0 0-20.88-110.59c-16.3-50.81-41.15-96.85-78.08-135.74-42-44.25-93.63-72-152.48-86.86-12.49-3.15-25.22-5.37-38.35-8.12a62.26 62.26 0 0 0-.6 7c.48 11.64 1.1 23.28 1.63 34.93a851.38 851.38 0 0 0 13 112c19.27 107.44 55.1 209.08 108.32 304.46 74.52 133.54 173.78 245.16 300.89 330.2 71.65 47.94 146.6 91 220.61 135.35 30.45 18.24 64.38 23.35 99.38 17.43 83.07-14 131-85.08 130.65-154-.6-113-.16-226-.16-339v-10.09a36.59 36.59 0 0 0-5 0c-25.61 4.59-50.82 10.63-74.85 20.91-77.5 33.16-124.3 90.41-137 174.44-.88 5.79-1.58 11.6-2.33 17.17h-144.61c-.21-2.33-.62-4-.45-5.59 1.79-16.86 2.46-34 5.74-50.53 22-111.49 82.21-195.76 181.61-251.33 47.65-26.64 99.24-41.75 153.07-49.67 7.77-1.14 15.53-2.41 23.27-3.62V799.2c-3.69-.69-6.92-1.48-10.19-1.87a481.83 481.83 0 0 1-112.4-26.85c-64.4-24-119.6-61.26-162.57-115.45-46.21-58.28-71.93-124.74-78.16-198.79-.49-5.83-.06-11.74-.06-18.27h144.11c.52.59.87.81.91 1.08.26 1.64.5 3.28.64 4.93a223.56 223.56 0 0 0 19.24 74.02c23 50.54 61 85.77 111.15 108.58 27.45 12.54 56.28 20.24 87.32 24.81z" fill="#36adba"/></svg>