<svg xmlns="http://www.w3.org/2000/svg" viewBox="0 0 36.28 45.37"><defs><filter id="colorMeSaturate"><feColorMatrix in="a1" type="saturate" values="0"/></filter><style>*{filter:url(#colorMeSaturate)}.cls-2{fill:#f28c8f}.cls-3{fill:#cf5a46}.cls-4{fill:#ba443c}.cls-11,.cls-5{fill:#ea7383}.cls-5{opacity:.4}.cls-10,.cls-5{mix-blend-mode:multiply}.cls-6{fill:#f4b6b0}.cls-7{fill:#bc546a}.cls-10{opacity:.5}.cls-9{fill:#fff}.cls-14{fill:#a41d2c}</style></defs><g style="isolation:isolate"><g id="Слой_1" data-name="Слой 1"><path class="cls-2" d="M16.77 35.61a5 5 0 0 0 .23 3.45c1 2 1.53 1.41 1.49 2.83a7.12 7.12 0 0 0 .55 3c.25.67 1.89.57 2.13-.17a6.63 6.63 0 0 0 .14-2.79c-.16-.68 1.5-2.56 1.19-4.93 0 0 1.81 2.5 4.31 1 0 0 3.48.89 3.95-2.46 0 0 2 .16 2.08-3 0 0 1.54-.09 1.09-2.77a2.2 2.2 0 0 0 .73-2.54s1.48-.55.86-2.86c0 0 1.61-.83.1-3.8a2.65 2.65 0 0 0-.17-2.41s.64-1.16-.68-2.67c0 0 .74-.94-.36-2.59a3.25 3.25 0 0 0-.33-3s.62-.53.12-1.7a1.81 1.81 0 0 0 .31-1.79 2.09 2.09 0 0 0 .91-2.59s.89-2.51-.5-3.18A2.42 2.42 0 0 0 33 .55a1.87 1.87 0 0 1-.85.12c-.72-.14-1.56-.83-2.58-.46a1.6 1.6 0 0 0-1 1.68s-1.45.6-1.19 1.8a2 2 0 0 0-1.48 1.74 1.89 1.89 0 0 0-1.52 1.92s-1.9.18-2.07 1.66a4.08 4.08 0 0 0-2.67.2s-2.3-.3-3.25.66a2.52 2.52 0 0 0-2.75-.51 3 3 0 0 0-2.42-.52s-.41-1.08-2.42-.74c0 0-.52-.86-2.37-.47a1.71 1.71 0 0 0-2.27.68A2.54 2.54 0 0 0 1.8 9.43a1.93 1.93 0 0 0 0 2.14 1.06 1.06 0 0 0-.55 1.34A2.39 2.39 0 0 0 .73 15a2.91 2.91 0 0 0-.25 2.15 3.13 3.13 0 0 0-.24 2.7s-.41.78.26 2.79a2.42 2.42 0 0 0 .48 3s-.63 3.81 2.87 4.18a3.08 3.08 0 0 0 4 1.79s.89 2.11 4 .8 1.31-6.47-.75-9.31-6.23-5.33-5.7-7.22 3.48-2.15 4.68-2.08 13.76.09 16.92-1.61 3.73 7.67 2.67 10.23c-.41 1-.92 4.27-.45 5.38.14.34-1 .79-1.07 1.07-.58 2-1.16 2.09-2.53 2.25a6.92 6.92 0 0 1-3.11-.66c-1.6-.61-3.08-1.22-3.9.08a16.26 16.26 0 0 0-1.84 5.11z"/><path class="cls-3" d="M20 45.37a1 1 0 0 1-1-.47v-.06a7.11 7.11 0 0 1-.54-3 1.37 1.37 0 0 0-.46-1.23 6.11 6.11 0 0 1-1-1.54 5.05 5.05 0 0 1-.23-3.47 16 16 0 0 1 1.85-5.12 1.55 1.55 0 0 1 1.34-.78 7 7 0 0 1 2.44.63l.15.06a7.52 7.52 0 0 0 2.84.68h.26c1.32-.16 1.92-.23 2.5-2.23 0-.12.25-.27.49-.43s.65-.44.58-.61c-.46-1.11 0-4.39.46-5.41.77-1.88.69-7.57-.75-9.66a1.33 1.33 0 0 0-1.93-.55c-2.05 1.1-8 1.45-11.45 1.57-2.83.09-5 .07-5.49 0h-.6c-.81 0-3.51.26-4 2.06C5.1 17 6.56 18.38 8.24 20a23 23 0 0 1 2.89 3c1.58 2.18 2.87 5.48 2.29 7.58a2.64 2.64 0 0 1-1.55 1.78 5.29 5.29 0 0 1-1.77.43 2.34 2.34 0 0 1-2.27-1.22 4.84 4.84 0 0 1-1 .15 3.06 3.06 0 0 1-3-2 3.09 3.09 0 0 1-2.23-1.06 4.48 4.48 0 0 1-.6-3.05 2.55 2.55 0 0 1-.77-2.05 2.06 2.06 0 0 1 .29-.91C-.15 20.77.16 20 .21 19.86a3.12 3.12 0 0 1 .24-2.7A3.07 3.07 0 0 1 .7 15a2.47 2.47 0 0 1 .48-2.1 1.1 1.1 0 0 1 .54-1.34 2 2 0 0 1 .05-2.14 2.36 2.36 0 0 1 2.11-1.15h.27a1.83 1.83 0 0 1 1.44-.87 1.73 1.73 0 0 1 .85.19 4.4 4.4 0 0 1 .77-.1 1.78 1.78 0 0 1 1.6.56l.6-.05a1.83 1.83 0 0 1 1.83.8 1.91 1.91 0 0 1 .54-.1 3.49 3.49 0 0 1 1.87.63 2.82 2.82 0 0 1 .92-.2 2.61 2.61 0 0 1 1.82.7 3.42 3.42 0 0 1 2.18-.69 6.92 6.92 0 0 1 1.06 0 2.39 2.39 0 0 1 1.27-.34 5.6 5.6 0 0 1 1.39.2c.17-1.37 1.83-1.63 2.07-1.65a1.91 1.91 0 0 1 1.51-1.92 2 2 0 0 1 1.41-1.75c-.22-1.11 1-1.71 1.2-1.79A1.62 1.62 0 0 1 29.54.18a1.74 1.74 0 0 1 .55-.11 3.18 3.18 0 0 1 1.36.34 4.55 4.55 0 0 0 .68.23.74.74 0 0 0 .21 0 2.47 2.47 0 0 0 .58-.11 3.63 3.63 0 0 1 .77-.14 2.46 2.46 0 0 1 1.18.28c1.36.65.58 3 .52 3.2a2.15 2.15 0 0 1-.91 2.61 1.88 1.88 0 0 1-.3 1.78 1.5 1.5 0 0 1-.12 1.69 3.35 3.35 0 0 1 .32 3c1 1.51.46 2.45.36 2.6a2.47 2.47 0 0 1 .68 2.67 2.67 2.67 0 0 1 .17 2.41 4.07 4.07 0 0 1 .51 3 1.47 1.47 0 0 1-.61.79 2.68 2.68 0 0 1-.2 2.3 1.63 1.63 0 0 1-.65.57 2.24 2.24 0 0 1-.64 2.49 2.9 2.9 0 0 1-.32 2.32 1.19 1.19 0 0 1-.77.47 3.31 3.31 0 0 1-.91 2.52 1.89 1.89 0 0 1-1.15.48h-.07a2.73 2.73 0 0 1-2.85 2.56A4.1 4.1 0 0 1 26.8 38a3.18 3.18 0 0 1-1.52.48 3.7 3.7 0 0 1-2.75-1.4 6.83 6.83 0 0 1-.83 3.63 2.68 2.68 0 0 0-.38 1.18 6.44 6.44 0 0 1-.13 2.81 1.23 1.23 0 0 1-1.19.67zm-.1-15.61a1.49 1.49 0 0 0-1.29.75 16 16 0 0 0-1.84 5.1A5 5 0 0 0 17 39a5.74 5.74 0 0 0 1 1.52 1.46 1.46 0 0 1 .46 1.33 7.24 7.24 0 0 0 .54 2.97v.06a1 1 0 0 0 1 .43 1.17 1.17 0 0 0 1.1-.6 6.59 6.59 0 0 0 .14-2.77c-.07-.26.12-.66.37-1.22a6.66 6.66 0 0 0 .85-3.72v-.12l.07.1a3.68 3.68 0 0 0 2.76 1.46 3.11 3.11 0 0 0 1.5-.48 4.22 4.22 0 0 0 1.12.1 2.68 2.68 0 0 0 2.8-2.54h.11c.46 0 1.94-.28 2-3a1.17 1.17 0 0 0 .76-.44 2.94 2.94 0 0 0 .3-2.3 2.17 2.17 0 0 0 .72-2.5s1.45-.57.84-2.82a1.49 1.49 0 0 0 .6-.77 4 4 0 0 0-.52-3 2.6 2.6 0 0 0-.17-2.38s.65-1.31-.62-2.8c.25-.32.5-1.27-.36-2.56A3.29 3.29 0 0 0 34 10s.6-.52.12-1.66a1.78 1.78 0 0 0 .3-1.76 2.05 2.05 0 0 0 .9-2.55s.87-2.49-.48-3.14a2.51 2.51 0 0 0-1.09-.45 3.42 3.42 0 0 0-.75.14h-.05a2.64 2.64 0 0 1-.59.11.87.87 0 0 1-.23 0 4.38 4.38 0 0 1-.69-.24 3.44 3.44 0 0 0-1.35-.32 1.91 1.91 0 0 0-.53.1 1.58 1.58 0 0 0-1 1.66s-1.42.6-1.17 1.76a2 2 0 0 0-1.4 1.73 1.88 1.88 0 0 0-1.5 1.89s-1.99.3-2.15 1.73a6.19 6.19 0 0 0-1.4-.14 2.26 2.26 0 0 0-1.24.34 7.68 7.68 0 0 0-1.07 0 3.33 3.33 0 0 0-2.16.69 2.55 2.55 0 0 0-1.8-.7 2.71 2.71 0 0 0-.91.2 3.43 3.43 0 0 0-1.85-.63 1.62 1.62 0 0 0-.54.11c-.12-.29-.63-.83-1.79-.79a4.57 4.57 0 0 0-.61.07s-.37-.59-1.56-.55a4.4 4.4 0 0 0-.77.1 1.87 1.87 0 0 0-.83-.18 1.79 1.79 0 0 0-1.4.86h-.53a2.28 2.28 0 0 0-2 1.12 1.93 1.93 0 0 0 0 2.1 1 1 0 0 0-.53 1.3A2.36 2.36 0 0 0 .76 15a2.92 2.92 0 0 0-.25 2.13 3.15 3.15 0 0 0-.23 2.67s-.4.8.26 2.77A2.41 2.41 0 0 0 1 25.58a4.49 4.49 0 0 0 .64 3 3 3 0 0 0 2.2 1.14 3 3 0 0 0 2.97 1.98 4.69 4.69 0 0 0 1-.16 2.29 2.29 0 0 0 2.23 1.21 4.92 4.92 0 0 0 1.74-.43 2.53 2.53 0 0 0 1.52-1.74c.58-2.07-.71-5.35-2.28-7.52A24.19 24.19 0 0 0 8.2 20c-1.7-1.59-3.2-3-2.83-4.17.53-1.84 3.26-2.07 4.09-2.1h6.11C19 13.57 25 13.22 27 12.12a1.39 1.39 0 0 1 2 .56c1.45 2.1 1.53 7.83.75 9.71-.42 1-.91 4.27-.46 5.36.1.22-.25.46-.59.69s-.45.29-.47.4c-.6 2-1.21 2.11-2.56 2.27h-.26a7.61 7.61 0 0 1-2.86-.68l-.15-.06a7 7 0 0 0-2.47-.61z"/><path class="cls-4" d="M21.45 39.8a3.1 3.1 0 0 1-1.42.56 3.52 3.52 0 0 1-1.55-.12 1.57 1.57 0 0 1-.42-.18 2.43 2.43 0 0 1-.37-.16 2.22 2.22 0 0 0 .72.44 3.46 3.46 0 0 0 1.6.14 3.33 3.33 0 0 0 1.92-1 5.5 5.5 0 0 1-.48.32zm3.84-7.27a1.38 1.38 0 0 1-.42.83 1.62 1.62 0 0 1-.79.5 2.21 2.21 0 0 1-.84 2.57 3.13 3.13 0 0 1-1.39.55 2.88 2.88 0 0 1-1.64-.19 3.53 3.53 0 0 0 .73.27 2.72 2.72 0 0 0 .9 0 3.12 3.12 0 0 0 1.52-.64 2.21 2.21 0 0 0 .79-2.58c.31 0 .58-.31.8-.51a1.17 1.17 0 0 0 .41-.88s-.07.06-.07.08zm1.77-.14a1.78 1.78 0 0 1 .05 2.12 1.6 1.6 0 0 0-.05-2.12zm-.01 2.17a1.82 1.82 0 0 1 .51 1.44 3 3 0 0 1-.76 2 2.38 2.38 0 0 0 .49-.75 3 3 0 0 0 .35-1.25c.03-.42-.09-1.26-.59-1.44zm3.53-.78a1.62 1.62 0 0 0-1.23-1.15 1.77 1.77 0 0 1 1.18 1.18 3.43 3.43 0 0 1 .22 1.87 3.24 3.24 0 0 0-.17-1.9zM32 30.71a1.38 1.38 0 0 0-1.43-.13 1.79 1.79 0 0 0-2-1.62 1.82 1.82 0 0 1 1.92 1.62l-.12.09.12-.07v.11c0 .04 0 0 0 0a.62.62 0 0 0 0-.13 1.47 1.47 0 0 1 1.54.27 2 2 0 0 1 .74 1.53 1.8 1.8 0 0 0-.77-1.67zm.94-2.32a1.25 1.25 0 0 0-1.3-.1 1.23 1.23 0 0 0-1.85-.78 1.31 1.31 0 0 1 1.36.11 1.23 1.23 0 0 1 .41.69h-.06.07c0 .09 0 .17.05.26a1.14 1.14 0 0 0 0-.27 1.23 1.23 0 0 1 .61-.11 1.64 1.64 0 0 1 .81.38 2.88 2.88 0 0 1 .9 1.28 2.47 2.47 0 0 0-1-1.46zm.95-2.39a1.34 1.34 0 0 0-.63-.31 1.87 1.87 0 0 0-.66.08 2.84 2.84 0 0 1 .51-.06 1.43 1.43 0 0 1 .82.39 2.64 2.64 0 0 1 .72 1.11 2.41 2.41 0 0 0-.76-1.21zm1.67-1.5a1.76 1.76 0 0 0-1.13-1.11 1.4 1.4 0 0 0-1.32.13 1.57 1.57 0 0 1 1.46 0 2 2 0 0 1 1 1s0-.01-.01-.02zm.09-4.06a3.82 3.82 0 0 1-.56.7 2.56 2.56 0 0 1-.75.47c-.32.13-1.18.28-1.4-.1.2.43 1 .3 1.31.2a2.75 2.75 0 0 0 1.44-1.27s-.03-.01-.04 0zm-.19-2.38a3.61 3.61 0 0 1-1.14 1.46c-.36.3-1.18.63-1.55.18.28.4 1 .25 1.33 0a3.21 3.21 0 0 0 1.42-1.7s-.04 0-.06.06zm-.68-2.65a4.19 4.19 0 0 1-1.26 1.29c-.36.25-1 .4-1.32 0 .24.44.79.33 1.18.17a3.36 3.36 0 0 0 1.45-1.44s-.04-.04-.05-.02zm-.33-2.65a2.5 2.5 0 0 1-1.2 1 2 2 0 0 1-.8.13 1.16 1.16 0 0 1-.7-.4 1.19 1.19 0 0 0 1.41.35 2.24 2.24 0 0 0 1.33-1s-.04-.09-.04-.08zm-.32-2.87a3.85 3.85 0 0 1-1.25 1.16 1.36 1.36 0 0 1-1.55.12 1.22 1.22 0 0 0 1.41 0 3.22 3.22 0 0 0 1.43-1.3s-.03 0-.04.02zm.11-1.73a3.45 3.45 0 0 1-1.41.69c-.47.12-1.19.19-1.52-.25.27.42.81.4 1.26.35a3.27 3.27 0 0 0 1.69-.79s0-.01-.02 0zm.44-1.82a2.5 2.5 0 0 1-1.18.14 1.47 1.47 0 0 1-1-.48 1.28 1.28 0 0 0 .91.51 1.94 1.94 0 0 0 1.32-.16s-.03-.02-.05-.01zm-30.5 5.18a2.17 2.17 0 0 1-2.44 0 2 2 0 0 0 2.46 0s0-.01-.02 0zM5.7 14c-.67.27-1.9.19-2-.74a.9.9 0 0 0 .06.34 2 2 0 0 1-2.48-.74 1.7 1.7 0 0 0 1.14.87 1.59 1.59 0 0 0 1.38-.12c.29.64 1.42.69 2 .4-.07-.01-.07-.07-.1-.01zm-.43 2.11a1.46 1.46 0 0 1-1.78 0 1.29 1.29 0 0 1-.18-.11 1 1 0 0 0 .13.16A1.84 1.84 0 0 1 1.82 16a2.85 2.85 0 0 1-1.09-1.1 2.18 2.18 0 0 0 2.74 1.25 1.39 1.39 0 0 0 1.84 0s0-.07-.04-.04zm.35 2.01a1.68 1.68 0 0 1-1.29.51 1.37 1.37 0 0 1-.87-.45.39.39 0 0 0 .1-.08l-.11.07a.56.56 0 0 1-.11-.2.85.85 0 0 0 .09.22 2 2 0 0 1-1.73.06A2.2 2.2 0 0 1 .46 17a2 2 0 0 0 1.37 1.41 1.91 1.91 0 0 0 1.6-.16 1.31 1.31 0 0 0 .89.49 1.6 1.6 0 0 0 1.34-.57s-.02-.07-.04-.05zm.6 1.75a2.13 2.13 0 0 1-1.44.72 1.49 1.49 0 0 1-1.06-.41s0-.05 0 0a.74.74 0 0 1-.13-.21.61.61 0 0 0 .11.23 2 2 0 0 1-2 .42 2.26 2.26 0 0 1-1.49-1c.22.65 1.07 1 1.69 1.1a1.93 1.93 0 0 0 1.86-.52 1.47 1.47 0 0 0 1.07.45 2 2 0 0 0 1.51-.77s-.1-.04-.12-.01zm.14.92a2.1 2.1 0 0 1-1 1.27 1.64 1.64 0 0 1-.93.17.74.74 0 0 1-.43-.14.61.61 0 0 0 .29.19 2.77 2.77 0 0 1-3.85.15 2.39 2.39 0 0 0 2.18.75 2.54 2.54 0 0 0 1.74-.9 1.87 1.87 0 0 0 1.1-.22 2.13 2.13 0 0 0 .94-1.31s-.04.02-.04.04zm.64 1.7a2.25 2.25 0 0 1-.49 1.43 1.64 1.64 0 0 1-1 .58v-.05c0-.05 0 0 0 0v.06a.82.82 0 0 1-.51-.03.77.77 0 0 0 .36.09 2.29 2.29 0 0 1-.73.88 3 3 0 0 1-1.52.55 3 3 0 0 1-2.36-.7 2.87 2.87 0 0 0 2.71.7 2.47 2.47 0 0 0 1.91-1.4 1.77 1.77 0 0 0 1-.53A2.11 2.11 0 0 0 7 22.49zm2.7 2.38a2.21 2.21 0 0 1-2.6 1.88.49.49 0 0 0-.1-.16c.28.83-.39 1.7-1 2.2a4.13 4.13 0 0 1-1 .59 2.88 2.88 0 0 1-1.37.33 2.3 2.3 0 0 0 1.28-.24 3.86 3.86 0 0 0 1.18-.72 3.44 3.44 0 0 0 .84-1.13 1.61 1.61 0 0 0 .14-.85 1.32 1.32 0 0 0 .71 0 2.64 2.64 0 0 0 1-.38 1.77 1.77 0 0 0 .92-1.52zm1.59 1.18a1.68 1.68 0 0 1-.21 1.68 1.59 1.59 0 0 1-1.6.64 2.64 2.64 0 0 0-.17-.47 4 4 0 0 1 .12.43 3.09 3.09 0 0 1-.22 1.71 2.57 2.57 0 0 1-.53.78 2.11 2.11 0 0 1-.91.68 1.17 1.17 0 0 0 .65-.36 3.81 3.81 0 0 0 .78-.92 2.78 2.78 0 0 0 .33-1.88 1.54 1.54 0 0 0 1.59-.57 1.63 1.63 0 0 0 .17-1.72z"/><path class="cls-5" d="M35.44 18.16s.64-1.16-.68-2.67c0 0 .74-.94-.36-2.59a3.25 3.25 0 0 0-.33-3s.62-.53.12-1.7a1.3 1.3 0 0 0 .31-.53 2.61 2.61 0 0 1-2 .69c-.48-.16.33-1.19 1.21-1.5.56-.21.8-.11.9 0a2.3 2.3 0 0 0-.07-.42 2.22 2.22 0 0 0 .46-.33c-.42.17-.8.15-.89-.18s.5-1.3 1-1.41.49.17.5.26a2.65 2.65 0 0 0-.12-.92s.89-2.51-.5-3.18A2.42 2.42 0 0 0 33 .55a1.87 1.87 0 0 1-.85.12c-.72-.14-1.56-.83-2.58-.46a1.6 1.6 0 0 0-1 1.68s-1.45.6-1.19 1.8a2 2 0 0 0-1.48 1.74 1.89 1.89 0 0 0-1.52 1.92s-1.9.18-2.07 1.66a4.08 4.08 0 0 0-2.67.2s-2.3-.3-3.25.66a2.52 2.52 0 0 0-2.75-.51 3 3 0 0 0-2.42-.52s-.41-1.08-2.42-.74c0 0-.52-.86-2.37-.47a1.71 1.71 0 0 0-2.27.68 2.74 2.74 0 0 0-2 .66 1.34 1.34 0 0 1 .67 0c1 .2.61 2.94-.66 2.8 0 0 0 .21.55.36s.11 1.73-.87 1.34a1.72 1.72 0 0 1 .5 1.7.7.7 0 0 1-1.28.26 1.24 1.24 0 0 0 .45.79c.43.4.89 1.31.45 1.67s-1 0-1.31-.49a1.62 1.62 0 0 0 .68 1.2c.7.56.94 1.4.29 1.66S.37 19.89 0 19a2.7 2.7 0 0 0 .2.84s-.41.78.26 2.79a2.42 2.42 0 0 0 .48 3s-.63 3.81 2.87 4.18a3.08 3.08 0 0 0 4 1.79s.89 2.11 4 .8 1.31-6.47-.75-9.31-6.23-5.33-5.7-7.22 3.48-2.15 4.68-2.08 13.76.09 16.92-1.61 3.73 7.67 2.67 10.23c-.41 1-.92 4.27-.45 5.38.14.34-1 .79-1.07 1.07-.58 2-1.16 2.09-2.53 2.25a6.92 6.92 0 0 1-3.11-.66c-1.6-.61-3.08-1.22-3.9.08a16.26 16.26 0 0 0-1.84 5.11 5 5 0 0 0 .27 3.42c.77 1.52 1.26 1.55 1.43 2.1a.69.69 0 0 0 0-.18c-.12-.26.71.21 1.39 0s.52.12.33.83.41 2.38.13 3.56a1.08 1.08 0 0 0 .93-.6 6.63 6.63 0 0 0 .14-2.79c-.16-.68 1.5-2.56 1.19-4.93 0 0 1.81 2.5 4.31 1 0 0 3.48.89 3.95-2.46 0 0 2 .16 2.08-3 0 0 1.54-.09 1.09-2.77a2.2 2.2 0 0 0 .73-2.54s1.48-.55.86-2.86c0 0 1.61-.83.1-3.8a2.65 2.65 0 0 0-.22-2.46zM9.11 26.67a4 4 0 0 1 .34-.38 2.2 2.2 0 0 0 .27-.47c0-.17.06-.39.22-.47s.4.17.47.32a1.46 1.46 0 0 1-.09 1.33.67.67 0 0 1-1 .24c-.2-.12-.38-.33-.21-.57zm-.29 4.73c.12-.16.25-.31.38-.47a2.11 2.11 0 0 1 .33-.47c.19-.14.4-.14.57.21a1.64 1.64 0 0 1 0 1.67c-.37.38-1.16.13-1.45-.26-.13-.27.04-.51.17-.68zM.52 20.75c.31-.41 1.35.35 1.35.35s1.06.65 1.13 1.28c0 .42-.82.92-1.78.27s-1.02-1.49-.7-1.9zm0 3.36a.67.67 0 0 1 .32-.72 2.54 2.54 0 0 1 1.48.19 1.22 1.22 0 0 1 .83 1.14.74.74 0 0 1-.76.81 1.73 1.73 0 0 1-1.83-1.42zm3.6 4.57a1.87 1.87 0 0 1-1 .13 2.4 2.4 0 0 1-1.38-.89c-.26-.32-.65-.87-.31-1.27a.65.65 0 0 1 .21-.16A2.69 2.69 0 0 1 3 26.42a1.88 1.88 0 0 1 1.83 1.08c.17.5-.22.98-.67 1.18zm3.61.95a1.19 1.19 0 0 1-.45.67 2.66 2.66 0 0 1-1.49.47c-.42 0-1.19-.32-.78-.86a1.27 1.27 0 0 1 .39-.31 6.83 6.83 0 0 1 .95-.28c.41-.11 1.65-.52 1.42.31zm-1.3-5c.06-.2.29-1 .65-.88s.14.5.16.72c0 .42.21.79.25 1.2 0 .16-.15.23-.28.22s-.5-.42-.62-.58a.85.85 0 0 1-.15-.65s.02.03.03.01zm-.36-2.49c.18.08.2.25.18.43a1.61 1.61 0 0 1-.47 1.11c-.4.3-.7-.59-.67-.86a.63.63 0 0 1 .28-.48c.25-.17.44-.29.72-.16zm-.44-1.35a.37.37 0 0 1-.08.39c-.17.21-.51.5-.79.33a.45.45 0 0 1-.06-.61.64.64 0 0 1 .54-.23c.16.03.37.03.43.16zm-.35-6.29c-.08.11-.24.17-.33.27a3.61 3.61 0 0 1-.42.45c-.14.1-.31.11-.38-.08a1.1 1.1 0 0 1 0-.67.26.26 0 0 1 .1-.13.11.11 0 0 1 .08 0 3.82 3.82 0 0 0 .59 0c.06 0 .34-.07.37 0a.14.14 0 0 1 .03.2zm-.08-1.4c-.16.17-.59.5-.75.16a.92.92 0 0 1 .22-1 .4.4 0 0 1 .59-.08c.34.27.18.75-.02.96zm14.21 26.95a1.88 1.88 0 0 1-1.94-1.68c0-.56.9-.62.9-.62.39-.08 2.32-.29 2.57.24a1.63 1.63 0 0 1-1.53 2.06zm1.15-3.43c-.89-.23.43-2 1.37-2.26a1.12 1.12 0 0 1 1.29.73c.34 1.07-1.77 1.76-2.66 1.53zm6.36 0c-.66 2-3.5 1-3.13.06s1.82-1.1 2.59-.77.54.68.54.68zm3.31-1.33c-.05 1.24-1.32 2.51-2.21 2.4s.67-2.53 1.45-2.87a.48.48 0 0 1 .76.44zm5.17-15.86c.13 1.24-1 2-1.41 1.65s.6-1.43 1-1.76.41.11.41.11zm-.31-2.72a1 1 0 0 1 .08.25 2 2 0 0 1-.33 1.47c-.2.3-.8 1-1.25.72s.12-2.1.68-2.69c.36-.37.73-.1.82.25zm-.65-3a2 2 0 0 1-.44 2.2c-.24.26-.8.73-1 .15a2.66 2.66 0 0 1 .92-2.38c.26-.17.42-.11.52.05zm-.32-1.35a1.17 1.17 0 0 1-.92.94c-1.1.14-.37-1.84.22-2.28.31-.24.5-.23.61-.09a1.7 1.7 0 0 1 .09 1.45zm-.44-3.56c.66-.29.47.37.47.37-.39 1.13-1.77 1.93-1.79 1.26s.64-1.32 1.32-1.61zM31.2 34.57c-.71-.22 0-3.11.58-3.32s.75.87.75.87c.13 1.6-.61 2.66-1.33 2.45zm2.46-4.06c0 .37-.33 1.21-.85.76-.71-.62-.94-2.54-.22-2.56a1 1 0 0 1 .94.74 2.48 2.48 0 0 1 .13 1.06zm-.32-2.15c-.57-.89-.38-1.95.37-1.87a.84.84 0 0 1 .76.8c.16 1.04-.57 1.95-1.13 1.07zm1.06-2.25c-.46-.39-.61-2 0-2.19s.89.92.89.92c.24 1.21-.43 1.65-.89 1.27zm1.39-3.91c.17 1.39-.72 1.14-1.14.75s-.26-1 .4-1.27.73.47.74.52z"/><path class="cls-6" d="M26.79 35a5.38 5.38 0 0 1-2.13-.43 9.16 9.16 0 0 1-1.95-1.08c-.92-.67-1.35-.51-1.35-.5l-.36-.63c.12-.07.81-.36 2.09.56.84.61 2.63 1.59 4 1.34a1.94 1.94 0 0 0 1.33-.88 31 31 0 0 0 2.93-5.64c1.14-2.92 1.52-5.37 1.13-7.29-.08-.42-.16-.81-.24-1.18a53.19 53.19 0 0 1-1.22-7.47c0-.69-.08-1.35-.11-1.93-.06-.93-.11-1.9-.16-2.17a.34.34 0 0 1 .1-.47.36.36 0 0 1 .36 0c.22.11.25.31.3 1 0 .42.07 1 .1 1.67s.07 1.24.11 1.92A52.5 52.5 0 0 0 33 19.13c.08.37.16.76.24 1.18.42 2.05 0 4.64-1.16 7.69a32.38 32.38 0 0 1-3 5.77A2.69 2.69 0 0 1 27.26 35a3.57 3.57 0 0 1-.47 0z"/><path class="cls-7" d="M26.79 35a5.09 5.09 0 0 1-2.14-.44 9.26 9.26 0 0 1-1.95-1.07 2.06 2.06 0 0 0-1.22-.49h-.11l-.37-.66a1 1 0 0 1 .43-.1 2.85 2.85 0 0 1 1.7.67 6.81 6.81 0 0 0 3.62 1.37h.36a1.93 1.93 0 0 0 1.31-.87 30.56 30.56 0 0 0 2.92-5.63c1.14-2.91 1.52-5.36 1.13-7.28q-.12-.61-.24-1.17A53.51 53.51 0 0 1 31 11.8c0-.66-.08-1.3-.11-1.86v-.07c-.03-.87-.08-1.87-.12-2.16a.38.38 0 0 1 .1-.51.41.41 0 0 1 .4 0c.23.11.26.31.31 1 0 .41.06 1 .1 1.65v.05c0 .56.06 1.19.1 1.85A52.42 52.42 0 0 0 33 19.12v.09c.07.34.14.71.22 1.09.42 2.06 0 4.66-1.17 7.71a31.92 31.92 0 0 1-3 5.78A2.68 2.68 0 0 1 27.26 35a2.42 2.42 0 0 1-.47 0zm-5.32-2.09a2.08 2.08 0 0 1 1.26.53 9.38 9.38 0 0 0 1.94 1.07 4.79 4.79 0 0 0 2.58.39A2.68 2.68 0 0 0 29 33.76 32.43 32.43 0 0 0 32 28c1.19-3 1.58-5.63 1.16-7.68-.07-.38-.15-.74-.22-1.09v-.08a52.73 52.73 0 0 1-1.21-7.38c0-.66-.07-1.3-.11-1.86v-.09c0-.67-.07-1.24-.1-1.65-.05-.66-.07-.85-.28-1a.32.32 0 0 0-.33 0 .33.33 0 0 0-.09.44c.05.27.1 1.23.16 2.17v.07c0 .56.07 1.2.11 1.86a53.33 53.33 0 0 0 1.22 7.46c.08.37.16.77.24 1.18.39 1.93 0 4.39-1.13 7.32a32 32 0 0 1-2.93 5.64 2 2 0 0 1-1.35.89h-.37a7 7 0 0 1-3.66-1.2 2.71 2.71 0 0 0-1.65-.66 1 1 0 0 0-.38.08l.31.58z"/><path d="M33.21 20.31c-.08-.42-.16-.81-.24-1.18a52.5 52.5 0 0 1-1.21-7.38c0-.68-.08-1.34-.11-1.92s-.07-1.25-.1-1.67c-.05-.66-.08-.86-.3-1a.36.36 0 0 0-.36 0 .34.34 0 0 0-.1.47c.05.27.1 1.24.16 2.17 0 .58.07 1.24.11 1.93a46.61 46.61 0 0 0 1.06 6.68c.05-.06.11-.14.2-.13s.2.29.23.39c.11.36.18.72.27 1.08a9.21 9.21 0 0 1 .34 2.4 9.86 9.86 0 0 1-.24 2 19.83 19.83 0 0 1-.57 2.27 20.39 20.39 0 0 1-.84 2.07c-.38.8-.72 1.66-1.14 2.46-.29.57-.63 1.12-1 1.67a6.08 6.08 0 0 1-.93 1.15 3 3 0 0 1-2.59.8 5.69 5.69 0 0 1-1.7-.57c-.3-.16-.58-.34-.88-.5a4.15 4.15 0 0 1-.74-.42c-.31-.26-.07-.37.24-.43-1-.64-1.62-.39-1.73-.33l.34.62s.43-.17 1.35.5a9.16 9.16 0 0 0 1.95 1.08 5.38 5.38 0 0 0 2.13.43 3.57 3.57 0 0 0 .47 0 2.69 2.69 0 0 0 1.79-1.19 32.38 32.38 0 0 0 3-5.77c1.17-2.99 1.56-5.63 1.14-7.68z" style="mix-blend-mode:multiply" opacity=".5" fill="#ea7383"/><path class="cls-9" d="M32.42 19a2.46 2.46 0 0 1 .07.24c0 .15.11.38.17.67s.15.65.21 1.06a7.66 7.66 0 0 1 .1 1.41 11.55 11.55 0 0 1-.22 1.62c-.12.58-.26 1.18-.43 1.8s-.37 1.26-.61 1.89l-.19.48a2.4 2.4 0 0 1-.11.23l-.1.24-.24.45-.24.46c-.31.61-.61 1.23-.92 1.83s-.63 1.18-1 1.72a5.44 5.44 0 0 1-.58.76 2.1 2.1 0 0 1-.77.52 2.33 2.33 0 0 1-.86.15 4.17 4.17 0 0 1-.8-.09c-.25-.06-.49-.12-.72-.2a3.75 3.75 0 0 1-.61-.27c-.37-.19-.68-.38-.94-.53-.51-.32-.79-.52-.79-.52l.21.13.6.36c.26.15.57.33.95.52a3.87 3.87 0 0 0 .61.25c.22.06.46.13.71.18a4 4 0 0 0 .78.08 2.4 2.4 0 0 0 .83-.16 1.88 1.88 0 0 0 .71-.5 6 6 0 0 0 .57-.74c.34-.54.65-1.13 1-1.72l.92-1.83c.08-.16.15-.31.24-.46s.16-.3.23-.45.07-.16.11-.23.07-.16.1-.23a4.62 4.62 0 0 0 .19-.47c.24-.63.44-1.26.62-1.88s.33-1.22.45-1.79a13 13 0 0 0 .24-1.64 5.87 5.87 0 0 0 0-.73v-.66c-.06-.41-.12-.77-.18-1.06-.21-.57-.31-.89-.31-.89z"/><path class="cls-6" d="M11.4 30.6c-.41 0-.93-.18-1.42-1.11a5.11 5.11 0 0 0-2-1.8 17.51 17.51 0 0 1-1.54-1.07 8.23 8.23 0 0 1-2.24-3.3 16.41 16.41 0 0 1-1.08-5.76C3 13 4.1 11 4.14 10.89a.35.35 0 1 1 .62.34s-1 2-.94 6.32c.09 4.54 1.7 7.43 3.06 8.52a14.64 14.64 0 0 0 1.48 1 5.6 5.6 0 0 1 2.24 2.07c.44.83.74.76.94.71a.52.52 0 0 1 .37 0 .36.36 0 0 1 .18.47.37.37 0 0 1-.36.21 1.06 1.06 0 0 1-.33.07z"/><path class="cls-7" d="M11.4 30.63c-.56 0-1-.35-1.45-1.12a5 5 0 0 0-2-1.8 15.59 15.59 0 0 1-1.54-1.07 8.21 8.21 0 0 1-2.25-3.31 16.24 16.24 0 0 1-1.08-5.77c-.09-4.56 1-6.6 1-6.68a.38.38 0 0 1 .33-.2.31.31 0 0 1 .19 0 .38.38 0 0 1 .16.52s-1 2-.94 6.31C3.93 22.08 5.55 25 6.9 26c.51.41 1 .72 1.47 1a5.61 5.61 0 0 1 2.26 2.08c.35.65.59.72.75.72h.15a1.08 1.08 0 0 1 .19 0 .38.38 0 0 1 .21 0 .39.39 0 0 1 .19.5.39.39 0 0 1-.38.23 1.32 1.32 0 0 1-.34.1zm-7-19.89a.31.31 0 0 0-.27.17c0 .08-1.11 2.1-1 6.65a16.07 16.07 0 0 0 1.1 5.74 8 8 0 0 0 2.23 3.29A15.59 15.59 0 0 0 8 27.66a5.11 5.11 0 0 1 2 1.82c.39.75.85 1.11 1.39 1.09a1.17 1.17 0 0 0 .3-.05.33.33 0 0 0 .32-.19.32.32 0 0 0-.16-.43.34.34 0 0 0-.18 0 .47.47 0 0 0-.17 0h-.17c-.17 0-.44-.07-.8-.75a5.58 5.58 0 0 0-2.24-2.06c-.47-.31-1-.62-1.48-1-1.36-1.09-3-4-3.07-8.54-.08-4.34.94-6.32 1-6.34a.33.33 0 0 0-.14-.44.41.41 0 0 0-.16-.03z"/><g class="cls-10"><path class="cls-11" d="M11.91 29.87a.52.52 0 0 0-.37 0c-.2.05-.5.12-.94-.71a5.6 5.6 0 0 0-2.24-2.07 14.64 14.64 0 0 1-1.48-1c-1.36-1.09-3-4-3.06-8.52-.08-4.34.93-6.3.94-6.32a.35.35 0 1 0-.62-.34 6.52 6.52 0 0 0-.48 1.36.24.24 0 0 1 .22-.06s.21-.06.14.18A20.37 20.37 0 0 0 3.87 21c1 4.43 2.79 5.22 3.71 6s2.17 1 2.78 2.28c0 0 .18.39 0 .45a.82.82 0 0 1-.22 0c.45.7.9.85 1.27.84a1.06 1.06 0 0 0 .31-.05.37.37 0 0 0 .36-.21.36.36 0 0 0-.17-.44z"/></g><path class="cls-9" d="M3.52 13.49v5.8c.07.53.15 1.08.27 1.63.07.28.12.55.21.83l.11.41.06.21c0 .07 0 .13.07.2a10.85 10.85 0 0 0 .66 1.57 9 9 0 0 0 .9 1.39 7.17 7.17 0 0 0 .52.58 6.62 6.62 0 0 0 .56.51c.19.14.39.27.59.4l.57.36c.36.23.7.44 1 .64a4.24 4.24 0 0 1 .68.6 3.21 3.21 0 0 1 .34.47c0 .06.06.11.08.14v.05a.1.1 0 0 0 0-.05 1.17 1.17 0 0 0-.14-.13 3.77 3.77 0 0 0-.36-.46 4.35 4.35 0 0 0-.69-.58l-.48-.29-.52-.32-.58-.36a6.79 6.79 0 0 1-.6-.39 6.69 6.69 0 0 1-.58-.5 7.7 7.7 0 0 1-.54-.6 9.1 9.1 0 0 1-.91-1.4A10 10 0 0 1 4 22.62a1.72 1.72 0 0 1-.07-.21l-.06-.21-.12-.42c-.08-.27-.13-.55-.2-.83-.11-.56-.2-1.11-.26-1.65v-4.61c0-.15 0-.29.05-.42s0-.23 0-.33v-.25c0-.07.18-.2.18-.2z"/><path d="M5.9 11.33a3.56 3.56 0 0 0 .59 3 3.25 3.25 0 0 0-1.69 3.45C5.12 20.38 6.87 20 6.87 20s-.92 2.13.49 3.45a4.24 4.24 0 0 0 3.18 1.08s2.36-.26 1 3A5.22 5.22 0 0 0 11 31.4a2.92 2.92 0 0 0 .7 1.35 2.67 2.67 0 0 0 1.45.62s-.37 2.7 1.24 3.6c2.78 1.55 5.53-.64 6.8-3.29s.32-3.5.32-3.5a3 3 0 0 1 1.12.6c.41.38 1.14 2.15 3.15 2.09s4.84-1.77 2.75-5.29c0 0 3.75.22 4.66-2.59a2.75 2.75 0 0 0-1.55-3.68s1.06-1.82.08-2.79a3 3 0 0 0 .67-3.11c-.42-1.26-1-1.2-1-1.2a4.19 4.19 0 0 0 .55-3 3.48 3.48 0 0 0-2.36-2.72s-3.13 3.2-12 3.2-11.68-.36-11.68-.36z" fill="#cf5158"/><path d="M16.41 37.51a3.81 3.81 0 0 1-2-.52c-1.51-.84-1.29-3.29-1.26-3.6a2.65 2.65 0 0 1-1.43-.62 2.85 2.85 0 0 1-.72-1.36 5.33 5.33 0 0 1 .49-3.88c.5-1.14.58-2 .25-2.46a1.32 1.32 0 0 0-1.11-.48h-.27a4.2 4.2 0 0 1-3-1.1c-1.29-1.2-.64-3.11-.51-3.43h-.1c-.39 0-1.69-.11-2-2.3A3.45 3.45 0 0 1 5.5 15a3.25 3.25 0 0 1 .94-.77 3.75 3.75 0 0 1-.67-2 3.05 3.05 0 0 1 .1-.92s2.89.32 11.67.32h1.18a22.41 22.41 0 0 0 8.4-1.69 8.56 8.56 0 0 0 2.42-1.48 3.49 3.49 0 0 1 2.46 2.7 4.22 4.22 0 0 1-.52 3c.17 0 .62.18 1 1.22a3 3 0 0 1-.65 3.12 1.81 1.81 0 0 1 .31 1.77 4 4 0 0 1-.4 1A2.81 2.81 0 0 1 33.22 25c-.73 2.25-3.23 2.57-4.28 2.61h-.35a3.53 3.53 0 0 1 .41 3.54 3.86 3.86 0 0 1-3.19 1.75 3.29 3.29 0 0 1-2.87-1.71 3.41 3.41 0 0 0-.3-.39 3 3 0 0 0-1-.56c.21.27.69 1.23-.38 3.45s-3.01 3.76-4.85 3.82zm-5.81-13a1.38 1.38 0 0 1 1.16.5c.34.51.26 1.36-.25 2.52A5.35 5.35 0 0 0 11 31.4a3 3 0 0 0 .7 1.33 2.61 2.61 0 0 0 1.43.61s-.34 2.7 1.23 3.57a3.79 3.79 0 0 0 2 .51c1.81-.06 3.68-1.54 4.76-3.78A4.87 4.87 0 0 0 21.8 31a1.32 1.32 0 0 0-.31-.75 3 3 0 0 1 1.13.61 3.29 3.29 0 0 1 .31.39 3.23 3.23 0 0 0 2.82 1.69 3.8 3.8 0 0 0 3.14-1.72 3.5 3.5 0 0 0-.41-3.53h.43c1 0 3.5-.36 4.22-2.57a2.86 2.86 0 0 0-.43-2.87 2.94 2.94 0 0 0-1.1-.77s1-1.8.08-2.75a3 3 0 0 0 .66-3.08c-.4-1.17-.91-1.19-1-1.19a4.24 4.24 0 0 0 .54-3 3.49 3.49 0 0 0-2.28-2.98A8.59 8.59 0 0 1 27.18 10a22.51 22.51 0 0 1-8.43 1.7h-1.18c-8.36 0-11.35-.29-11.65-.32a3.62 3.62 0 0 0 .59 2.91 3.26 3.26 0 0 0-1.67 3.47c.06.54.4 2.29 1.9 2.24h.16s-.89 2.13.48 3.42a4.15 4.15 0 0 0 3 1.08h.27z" fill="#6c101d"/><path class="cls-14" d="M18.58 14.13a2.35 2.35 0 0 1-.75.79 10.58 10.58 0 0 1-5.91 1.41 8 8 0 0 1-3.18-.57 6.4 6.4 0 0 1-2.38-1.69 5.71 5.71 0 0 0 2.24 1.69l.18.08a2.86 2.86 0 0 0-1.37.63 1.94 1.94 0 0 0-1.41.58 3.3 3.3 0 0 1 .59-.38 2.86 2.86 0 0 1 .76-.16 2.09 2.09 0 0 0-.72 2.35 2.13 2.13 0 0 1 .43-2 2.81 2.81 0 0 1 1.76-1 8.76 8.76 0 0 0 3 .52 11.58 11.58 0 0 0 3.32-.35 9.7 9.7 0 0 0 1-.28c.68-.14 1.75 0 2.09.67a1.26 1.26 0 0 0-.81-.66 1.77 1.77 0 0 0-1-.09l.43-.18a3.09 3.09 0 0 0 1.7-1.35s.04-.02.03-.01zM18.37 31a2.27 2.27 0 0 0-1.07.33 5.47 5.47 0 0 0-.63.44 2.59 2.59 0 0 0 .33-1.54c0 2-2.21 3.34-4.05 3.07a3.4 3.4 0 0 0 2.91-.72 3.27 3.27 0 0 0 .51-.47 3.82 3.82 0 0 1 2-1.17s.01 0 0 .06zm8.98-4.31a4.6 4.6 0 0 0-2.25-.46 5.22 5.22 0 0 1 2 .42A3.55 3.55 0 0 1 28.73 28a2.87 2.87 0 0 0-1.38-1.31z"/><path class="cls-14" d="M31.62 23.8a3.8 3.8 0 0 1-4.61.94 3.77 3.77 0 0 0 1.27-1.87 4.26 4.26 0 0 1-1.36 1.91 4.78 4.78 0 0 1-2.22.87 8.75 8.75 0 0 1-2.45-.07 9.78 9.78 0 0 1-2.1-.7 3 3 0 0 0-.48-.31 3.22 3.22 0 0 0-3.19-.11s0 .05 0 0a3.48 3.48 0 0 1 3.41.35c.85.53 1.44 1.38 2.31 1.9.44.26.92.45 1.38.67a5.18 5.18 0 0 1 1.42 1 3.86 3.86 0 0 1 1.22 3.09 3.17 3.17 0 0 0-.34-2 1.5 1.5 0 0 0 1.09.45c.4 0 1.14-.28 1.27-.71-.21.51-1.16.69-1.62.58a1.72 1.72 0 0 1-.86-.59 4.89 4.89 0 0 0-.45-.64 9.32 9.32 0 0 0-2.94-1.89 15.49 15.49 0 0 1-2-1.67c2 1 4.93 1.13 6.69-.26a3.24 3.24 0 0 0 2.67.32 3.45 3.45 0 0 0 .52-.16 1 1 0 0 1 .88 1c0-.49-.27-1-.82-1a3 3 0 0 0 1.39-1.08s-.06-.04-.08-.02zm.06-2.67a1.56 1.56 0 0 1-2.48.39c.71 1 2 .49 2.54-.4 0-.01-.04-.01-.06.01zm.17-2.78c-.43.47-1.45 1.07-1.83.23.36.9 1.46.34 1.87-.23-.01 0-.03-.01-.04 0z"/><path class="cls-14" d="M30.11 20.23a1.24 1.24 0 0 1-.9-1.1 2.7 2.7 0 0 0 .06-.41 2.18 2.18 0 0 0 0-.51 2.21 2.21 0 0 1-.08-.37 5.25 5.25 0 0 0 .14-1 1.86 1.86 0 0 0-.47-1.77l-.13-.07a2.86 2.86 0 0 0 0-1.09 8.84 8.84 0 0 1 0-1.26 1.58 1.58 0 0 1 .76-1.13 1.87 1.87 0 0 0-.81 1.93c-.06-.21-.13-.41-.2-.62A2.14 2.14 0 0 0 27 11.35a2.2 2.2 0 0 1 1.37 1.46 4.27 4.27 0 0 1 .3 2.12A3.8 3.8 0 0 0 27 14.5a4.92 4.92 0 0 0-2.3.31c-.58.13-1.19.1-1.48-.52a1 1 0 0 0 1.22.62 8.51 8.51 0 0 0-1.66 1 6.38 6.38 0 0 1 3.81-1.35 4.56 4.56 0 0 1 1.86.39c.76.36.83 1 .79 1.79a2.53 2.53 0 0 1-.74 2 6.12 6.12 0 0 1-1.7.93 7 7 0 0 1-2.06.46 6.32 6.32 0 0 1-2.11-.36 3.77 3.77 0 0 0-.14-1.16 2.49 2.49 0 0 0-.56-1 4 4 0 0 0 2.5.6 4.45 4.45 0 0 0 1.21-.28 2.52 2.52 0 0 1 .81.09 1.43 1.43 0 0 1 .92.54c-.16-.39-.64-.54-1-.63a1.81 1.81 0 0 0-.52-.07 3.68 3.68 0 0 0 1.19-.89 3.43 3.43 0 0 1-1.37.91 2.09 2.09 0 0 0-.59.17 5.8 5.8 0 0 1-.85.12 4.37 4.37 0 0 1-2.48-.7 4.81 4.81 0 0 0-1.47-.9 3.63 3.63 0 0 0-.28-3.43 4.29 4.29 0 0 1 .51 1.91 3 3 0 0 1-.74 2.07c-1.47 1.73-4.13 2-6.26 1.72a10.44 10.44 0 0 0-1.76-.21 6.33 6.33 0 0 0-1.67.27c-.54.16-1.05.42-1.57.63-.26.11-.54.19-.81.29a1.55 1.55 0 0 1-1 .16c.41.18.87-.06 1.26-.19.6-.19 1.18-.47 1.77-.7a5.61 5.61 0 0 1 2.27-.34c.68 0 1.33.2 2 .26a9.83 9.83 0 0 0 1.54 0c.5.12 1 .33 1.48.42a8 8 0 0 0 1.54.07h.08a1.83 1.83 0 0 1 1 .31c.23.15.68.47.64.79.08-.33-.3-.61-.52-.78a1.59 1.59 0 0 0-.8-.35 2.09 2.09 0 0 0 1.48-.88 2.57 2.57 0 0 1-2.19.88 8.05 8.05 0 0 1-1.3-.11 12 12 0 0 1-1.26-.36A5.64 5.64 0 0 0 20 16.88a2.92 2.92 0 0 0 .21-.32 4.2 4.2 0 0 1 2.05 1.73 3.57 3.57 0 0 1 .22 1.8 2.51 2.51 0 0 1-1.09 1.54 6 6 0 0 1-3.4.88 12.2 12.2 0 0 1-1.35-.06 5 5 0 0 1-.5-.11c-.47-.11-.94-.2-1.4-.34s-1-.33-1.58-.45a7.83 7.83 0 0 0-2.59-.26 3.26 3.26 0 0 0-1.15.3 3.34 3.34 0 0 0-.84.71 2.8 2.8 0 0 1 1.14-.79 3.92 3.92 0 0 1 1.32-.15 9.63 9.63 0 0 1 2.05.28 1.66 1.66 0 0 1-.33 1.56l-.07.09a3.72 3.72 0 0 1-.95.72 3.83 3.83 0 0 1-2.5.44 2.48 2.48 0 0 0 1.27 0A3.71 3.71 0 0 0 12 24a2.79 2.79 0 0 0 1.22-1.32 1 1 0 0 0 0-1l.69.18.68.2a5.35 5.35 0 0 1 1.49 4 5.94 5.94 0 0 1-.47 2.2 7 7 0 0 1-1.3 1.93 8.36 8.36 0 0 0 1-1.24 3.9 3.9 0 0 1 2.86-.73 2.52 2.52 0 0 1 1.25.57l.22.24.22.23a2.73 2.73 0 0 1 .45.84c.4 1.14-.32 2.33-1 3.16a5.42 5.42 0 0 1-3 1.68 5.49 5.49 0 0 0 3-1.65 3.67 3.67 0 0 0 1.12-3.14 2.13 2.13 0 0 0-.25-.63 4.28 4.28 0 0 0 1.61.76 7.76 7.76 0 0 1-1.12-.46 3.13 3.13 0 0 1-.65-.5 3.09 3.09 0 0 0-.61-.64 6.56 6.56 0 0 0-.77-.72 3.82 3.82 0 0 0-1.08-.51 5.09 5.09 0 0 1 1.11.64 3.07 3.07 0 0 1 .38.34 2.54 2.54 0 0 0-.74-.27 3.74 3.74 0 0 0-3 .7 2.58 2.58 0 0 0 .19-.37 5.56 5.56 0 0 0 .59-2.23 6.45 6.45 0 0 0-.3-2.27 4 4 0 0 0-1.13-1.89h.13c.32.05.63.11 1 .19a15.49 15.49 0 0 0 1.92.24h.91a5.94 5.94 0 0 0 2.49-.65c.12.39.76.57 1.09.67a6.28 6.28 0 0 0 1.42.23 3.73 3.73 0 0 0 .47 0c.6 0 1.39.29 1.61.87a1.61 1.61 0 0 0-1.31-.89 4.49 4.49 0 0 0 1.77-.65 4.69 4.69 0 0 1-2.53.65 5.54 5.54 0 0 1-1.4-.23 3 3 0 0 1-1.12-.6 3.63 3.63 0 0 0 .52-.38 2.61 2.61 0 0 0 .83-1.19 3.4 3.4 0 0 0 .08-.46 6.36 6.36 0 0 0 2.2.37 6.8 6.8 0 0 0 2.08-.5 5.67 5.67 0 0 0 1.79-1.05 1.65 1.65 0 0 0 .45-.71c0 .1 0 .21.05.29a2.89 2.89 0 0 1-.12 1.17 2.7 2.7 0 0 1-1.19 1.49 2.73 2.73 0 0 0 1.2-1.27 1.76 1.76 0 0 0 .15-.44 1.1 1.1 0 0 0 .91 1s.07-.01.05-.02z"/><path class="cls-14" d="M31.5 14a2.27 2.27 0 0 1-1.82.89 2 2 0 0 0 1.86-.9s-.02.01-.04.01z"/><path d="M31.66 21.34s1.07-1.81.09-2.79a2.94 2.94 0 0 0 .66-3.1c-.42-1.26-1-1.21-1-1.21a4.14 4.14 0 0 0 .54-3 3.46 3.46 0 0 0-2.35-2.72s-3.13 3.2-12 3.2-11.67-.31-11.67-.31a3.54 3.54 0 0 0 .59 3 3.27 3.27 0 0 0-1.7 3.49c.33 2.6 2.08 2.26 2.08 2.26a4.22 4.22 0 0 0-.26 2c.07-.92 1.15-2.09 3-2.65s3.74-.16 5.94.12 2.79 2 1.17 2.31-3.74-1.15-6.1-1S8 22.79 7.61 23.1a.46.46 0 0 1-.61 0 2 2 0 0 0 .38.46 4.19 4.19 0 0 0 3.18 1.08s2.36-.26.94 3a5.39 5.39 0 0 0-.5 3.8 3.09 3.09 0 0 0 .71 1.35 2.65 2.65 0 0 0 1.44.61s-.35 2.7 1.25 3.6c2.79 1.56 5.54-.64 6.81-3.29s.32-3.5.32-3.5a3.12 3.12 0 0 1 1.12.61c.41.38 1.14 2.15 3.15 2.08s4.84-1.76 2.75-5.29c0 0 3.74.23 4.66-2.59a2.76 2.76 0 0 0-1.55-3.68zM7.31 14.09c.05-.54.85-.5.85-.5a4.34 4.34 0 0 1 .76.07c1.07 1.21 3.38.43 3.38.43.39.43 1.47.37 2.08.4s.53.43.53.43c-.3.76-1.8.88-1.8.88-4.36.53-5.86-1.16-5.8-1.71zm10.18 3.36c-.39.79-2.31 1.09-4.33.64A7.34 7.34 0 0 0 9 18.2c-.86.32-2.07.71-1.91-.24a1.66 1.66 0 0 1 .8-1.25c.53-.25.63-.35 2 0a9.75 9.75 0 0 0 4.67-.22c1.44-.4 3.33.17 2.93.96zm14.43-.17c-.12.49-.52 1.26-1.09 1.38-.84.19-1.19-1.39-1.08-2.31a1.18 1.18 0 0 1 .59-1 .89.89 0 0 1 .34-.07c1.17-.04 1.48 1.04 1.24 2zM29 12.81c.2-1.3 1.17-1.35 1.17-1.35a1.16 1.16 0 0 1 1.37 1.32A1.93 1.93 0 0 1 30 14.51c-.66.21-1.23-.4-1-1.7zm-6 3.25a5.56 5.56 0 0 1 2.87-1.22c1.54-.09 1.78.8 1.21 1.62a3.37 3.37 0 0 1-3.72 1.36c-1.49-.52-.76-1.33-.36-1.76zm.35 3.45c-.46-.4.14-1 2.14-1.27 1.38-.17 1.49.69 1.49.69.24.89-2.8 1.3-3.62.58zm.72 1.11a5.32 5.32 0 0 0 2.2-.3c.45-.16 1-.68 1.56-.58.31.06.12.45 0 .58l-.18.21A5.13 5.13 0 0 1 25.24 22a3.1 3.1 0 0 1-2.24-.11c-.74-.45-.54-1.39 1.08-1.27zm.15 2.47c.44.08 1.11.26 1.28.74a.84.84 0 0 1 0 .31 1.24 1.24 0 0 1-.84 1 4.68 4.68 0 0 1-1.89.25 4 4 0 0 1-3.06-1.22 1.25 1.25 0 0 1-.2-.92c.29-.85 1.65-.61 2.24-.32 1.12.49.97-.12 2.48.16zm-5.46-4.45a2.83 2.83 0 0 0 1.42-1.39c.22-.46.93.17.37 1a1.64 1.64 0 0 1-1.83.66c-.17-.19.05-.27.05-.27zm-7 5a2.78 2.78 0 0 1-3 .35c-.76-.5.24-1.63.24-1.63 1.75-1.52 3.6.64 2.76 1.3zm.36 8.82c-1.33-1.08-.67-3.81-.12-4.92a3.59 3.59 0 0 0 .44-2.08c0-.23-.23-.41-.27-.63a1 1 0 0 1 .3-.65 1.25 1.25 0 0 1 .41-.28 1.85 1.85 0 0 1 1.52.21 2 2 0 0 1 .85 1.69 7.63 7.63 0 0 1-.64 3.26 3.76 3.76 0 0 1-1.46 2 5 5 0 0 0 2.21-1.49s1.37.05.76 1.74a2.56 2.56 0 0 1-4 1.17zm6.82 3.59a2.51 2.51 0 0 1-.94.83 3.55 3.55 0 0 1-4.29-.88c-.35-.55-.73-1.76.07-2.12a4.34 4.34 0 0 1 .73-.19 7.43 7.43 0 0 0 1.17-.44c1.46-.67 2.38.41 1.09 1.29a3.15 3.15 0 0 1-2.07.71c1.72.32 2.68-.34 3.8-.81a.51.51 0 0 1 .71.39 1.6 1.6 0 0 1-.27 1.24zm6.66-5.2a.74.74 0 0 1-.91.4 4.88 4.88 0 0 1-1.39-1.21 3.9 3.9 0 0 0-1.57-.73 3.77 3.77 0 0 1-1.45-.9c-.52-.51-1.06-1-1.58-1.47a2.42 2.42 0 0 1-.87-1.41.78.78 0 0 1 .75-.79 2.25 2.25 0 0 1 1.73.72 11.47 11.47 0 0 0 1.82 1.59c.45.27 1 .45 1.48.71A5.73 5.73 0 0 1 25.1 29c.41.5.9 1.24.5 1.87zm1.34-1.47A1.88 1.88 0 0 1 25.36 27c.29-.68 1.37-.29 1.37-.29 2.05.85 1.66 2.85.21 2.69zm4.33-5.53a3.94 3.94 0 0 1-1.34.91 3.11 3.11 0 0 1-.85.21 1.58 1.58 0 0 1-1-.15.64.64 0 0 1-.24-.66c.39-1.11 1.95-1.48 3-1.67a1.12 1.12 0 0 1 .9.09c.41.42-.24 1.04-.47 1.29z" style="mix-blend-mode:multiply" fill="#c05058" opacity=".4"/><path d="M12.63 26.53s-2.12 4-.35 5.82a1.74 1.74 0 0 0 1.57.44A2 2 0 0 1 12 31.6c-.51-1.22-.15-3.28.63-5.07zm.92 7.91a2.24 2.24 0 0 0 1.24 2.25 3.14 3.14 0 0 0 3.88-.64 4 4 0 0 1-2.86.84 2.64 2.64 0 0 1-2.26-2.45zM20 24a3.09 3.09 0 0 0 2.57 1.27c2 .18 2.64-.77 2.64-.77a3.47 3.47 0 0 1-2.65.65A5.8 5.8 0 0 1 20 24zm8 .25s0 1.44 2.47.16c-.01 0-2.2.83-2.47-.16zm-5.3-2.81s.33.75 2.15.42a3.77 3.77 0 0 0 2.45-1.21s-2.44 1.99-4.6.79zm.78-2.44s-.2.18 0 .48a3.42 3.42 0 0 0 2.3.2s-2.44.2-2.3-.68zm-.33-1.67c-.4-.32-.42-.63-.26-.83a.61.61 0 0 0-.2.6c.18.61 1.57 1 3.1.3 0-.02-1.7.71-2.64-.07zM7.08 22.76a1.14 1.14 0 0 1 0-1.27 4.43 4.43 0 0 1 2.64-2 13 13 0 0 1 6.15.2s-3.77-.71-6-.08-3.24 2.25-2.79 3.15zm.1-4.61s.17-1.29 1.17-1.45 1.87.54 3.79.35 2.55-.6 3.28-.57c0 0-1 .26-2 .49a8.33 8.33 0 0 1-3.1.14C9.4 17 8.75 16.6 8 17a1.78 1.78 0 0 0-.82 1.15zm18.87 8.7s-.74.31-.18 1.59a1.75 1.75 0 0 0 .51.59A1.39 1.39 0 0 1 25.5 28c-.24-.95.5-1.28.55-1.15zm4.46-11.33s-.77.17-.63 1.44.57 1.48.57 1.48-1.06-2.03.06-2.92zm-.1-3.97s-1.11-.08-1.28 1.36c-.12 1.05.33 1.36.75 1.34 0 0-.59-.11-.57-1.09.02-1.46.95-1.58 1.1-1.61zM18.27 25.14a1.64 1.64 0 0 1 1.8.43c.93.87 1.18 1.45 2.28 1.95s2.84 1.18 3.1 2.63c0 0-.15-1.08-1.75-1.78-1.84-.81-2.12-.73-2.83-1.65s-1.38-1.67-2.6-1.58zM7.55 14.39s1.39 2.05 6.45 1.08c0 0-4.27.8-6.45-1.08zm1.51 9.66a3.39 3.39 0 0 0 2.76-.69 2.37 2.37 0 0 1-2.76.69z" style="mix-blend-mode:screen" fill="#e1545b"/><path class="cls-2" d="M27.09 11.36A3 3 0 0 0 30 8.88s1.94.27 2.18-2.38A2.36 2.36 0 0 0 34 4.17a2 2 0 0 0 1.36-.38c.34-.23 1.08-2.41-.43-3.17A2.36 2.36 0 0 0 33 .48a1.89 1.89 0 0 1-.86.12c-.72-.14-1.57-.83-2.6-.46a1.6 1.6 0 0 0-1 1.68s-1.54.6-1.24 1.81a2 2 0 0 0-1.43 1.76 1.88 1.88 0 0 0-1.53 1.92s-1.92.18-2.09 1.69a4.1 4.1 0 0 0-2.7.2s-2.32-.31-3.28.66a2.56 2.56 0 0 0-2.77-.51 2 2 0 0 0-2.31-.59S10.91 7.65 8.7 8c0 0-.65-.95-2.46-.45a.89.89 0 0 0-.7 1.18 2.27 2.27 0 0 0-1.73 1.09c-.46.95.14 2.42 2.56 2.23 0 0 .58 1 2.66.63a2.55 2.55 0 0 0 3.33.49 2.47 2.47 0 0 0 .72.59 3 3 0 0 0 2.51 0c.57.76 3 1.08 4.66-.05a2.45 2.45 0 0 0 2.82-.54 3.76 3.76 0 0 0 .3-.5 2.43 2.43 0 0 0 2.61 0 2 2 0 0 0 1.08-1.26z"/><path class="cls-3" d="M17.88 14.43a3.06 3.06 0 0 1-2.3-.67 2.94 2.94 0 0 1-1.28.29 1.87 1.87 0 0 1-1.23-.27 2.43 2.43 0 0 1-.72-.57 3.11 3.11 0 0 1-1.35.38 2.54 2.54 0 0 1-2-.88 5.61 5.61 0 0 1-.68.07 2.19 2.19 0 0 1-2-.7 2.57 2.57 0 0 1-2.48-.85 1.42 1.42 0 0 1-.08-1.42A2.21 2.21 0 0 1 5.5 8.75 1 1 0 0 1 5.56 8a1 1 0 0 1 .67-.48 3.22 3.22 0 0 1 .89-.14 1.88 1.88 0 0 1 1.6.62 5.05 5.05 0 0 1 .74-.08c1.37 0 1.69.61 1.75.77a2.2 2.2 0 0 1 .7-.15 2.06 2.06 0 0 1 1.6.74 2.8 2.8 0 0 1 .92-.19 2.61 2.61 0 0 1 1.84.7 3.4 3.4 0 0 1 2.2-.69 7.36 7.36 0 0 1 1.08 0 2.28 2.28 0 0 1 1.27-.34 5.75 5.75 0 0 1 1.4.13 1.78 1.78 0 0 1 1.13-1.38 3.74 3.74 0 0 1 1-.28 2 2 0 0 1 .8-1.6 2.07 2.07 0 0 1 .74-.32 2 2 0 0 1 1.42-1.75 1.41 1.41 0 0 1 .52-1.36 2.56 2.56 0 0 1 .69-.44A1.63 1.63 0 0 1 29.54.11a1.86 1.86 0 0 1 .57-.11 3.18 3.18 0 0 1 1.36.34 4.74 4.74 0 0 0 .7.23h.21a2.61 2.61 0 0 0 .62-.1 3.68 3.68 0 0 1 .81-.14A2.34 2.34 0 0 1 35 .59a1.71 1.71 0 0 1 .92 1.52 2.38 2.38 0 0 1-.5 1.7 2.26 2.26 0 0 1-1.16.4h-.18a2.41 2.41 0 0 1-1.9 2.31c-.21 2.11-1.47 2.38-2 2.4H30a3 3 0 0 1-2.87 2.46A2 2 0 0 1 26 12.69a3.37 3.37 0 0 1-1.32.33 1.94 1.94 0 0 1-1.29-.35 1.18 1.18 0 0 1-.11.19 2.5 2.5 0 0 1-.17.29 2.26 2.26 0 0 1-1.67.78 2.65 2.65 0 0 1-1.18-.22 4.48 4.48 0 0 1-2.38.72zm-2.28-.75a2.92 2.92 0 0 0 2.26.68 4.42 4.42 0 0 0 2.35-.74l.23-.16-.17.19a2.88 2.88 0 0 0 1.14.2 2.17 2.17 0 0 0 1.62-.76 1.9 1.9 0 0 0 .17-.27l.13-.23a2 2 0 0 0 1.28.35 3.49 3.49 0 0 0 1.3-.32A2 2 0 0 0 27 11.4v-.06a3 3 0 0 0 2.83-2.45h.22c.52 0 1.76-.28 1.95-2.37a2.36 2.36 0 0 0 2-2.35.63.63 0 0 0 .2 0 2.24 2.24 0 0 0 1.13-.39 2.39 2.39 0 0 0 .47-1.65A1.66 1.66 0 0 0 35 .64a2.2 2.2 0 0 0-1.18-.27 3.49 3.49 0 0 0-.82.14v.02a3.25 3.25 0 0 1-.59.12h-.22a3.72 3.72 0 0 1-.71-.24 3.44 3.44 0 0 0-1.37-.35 1.91 1.91 0 0 0-.54.1 1.57 1.57 0 0 0-1 1.66s-1.44.61-1.19 1.77a2 2 0 0 0-1.48 1.8 1.81 1.81 0 0 0-.74.31 1.9 1.9 0 0 0-.77 1.58 3.56 3.56 0 0 0-1 .27A1.69 1.69 0 0 0 22.28 9a5.83 5.83 0 0 0-1.42-.14 2.32 2.32 0 0 0-1.25.34 7.77 7.77 0 0 0-1.08 0 3.34 3.34 0 0 0-2.18.69 2.52 2.52 0 0 0-1.82-.7 2.82 2.82 0 0 0-.92.2 2 2 0 0 0-1.56-.74 2.08 2.08 0 0 0-.71.16s-.23-.81-1.7-.76a7.4 7.4 0 0 0-.75.08 1.87 1.87 0 0 0-1.56-.58 3.5 3.5 0 0 0-.87.14 1 1 0 0 0-.64.45.86.86 0 0 0 0 .69 2.23 2.23 0 0 0-1.7 1 1.33 1.33 0 0 0 .08 1.35 2.52 2.52 0 0 0 2.16.82 2.19 2.19 0 0 0 2 .69 5.76 5.76 0 0 0 .64-.04 2.43 2.43 0 0 0 1.93.88 3.11 3.11 0 0 0 1.35-.4 2.2 2.2 0 0 0 .72.58 1.85 1.85 0 0 0 1.2.25 2.78 2.78 0 0 0 1.27-.29z"/><path class="cls-4" d="M8.76 8c-.19.1-.39.13-.58.23a1.89 1.89 0 0 0-.47.42 1 1 0 0 0-.25.81 1.25 1.25 0 0 0-1.15.72 1.84 1.84 0 0 0 .05 1.88c-.58-.92-.09-2.5 1.09-2.52l.06.14s.06 0 0 0a.53.53 0 0 1 0-.12A1.12 1.12 0 0 1 8 8.41c.22-.2.51-.23.74-.39.04-.02.04-.02.02-.02zm2.54.66a2.45 2.45 0 0 0-1.2.73 1.29 1.29 0 0 0-.28.88 1.54 1.54 0 0 0-1 1 1.5 1.5 0 0 0 .22 1.5 1.71 1.71 0 0 1 .72-2.47.8.8 0 0 0 .13.32 1.21 1.21 0 0 1 .3-1.32 3.25 3.25 0 0 1 1-.57s.13-.07.11-.07zm2.26.64a1.94 1.94 0 0 0-.93.69 1.24 1.24 0 0 0-.25.92c-.76.57-.49 1.8 0 2.45a1.91 1.91 0 0 1-.07-2.39 1 1 0 0 0 .12.32 1.17 1.17 0 0 1-.08-.36 1.48 1.48 0 0 1 .36-1 3.28 3.28 0 0 1 .75-.53l.1-.1zm2.81.44a1.44 1.44 0 0 0-.57 1.63 1.88 1.88 0 0 0-.5 1 1.59 1.59 0 0 0 .33 1.35 2 2 0 0 1 .18-2.33.64.64 0 0 1 0-.07l.13-.13-.12.1a1.57 1.57 0 0 1 .52-1.55s.05-.01.03 0zm4.02 1.35a1.77 1.77 0 0 0-.88-1.92 2 2 0 0 1 .84 1.83h-.07l.09.12a.58.58 0 0 1-.06.17l.06-.13a1.72 1.72 0 0 1 .27 1.13 3.54 3.54 0 0 1-.41 1.34 2.27 2.27 0 0 0 .16-2.54zm2.48-.62a1.26 1.26 0 0 0-.74-1.54 1.42 1.42 0 0 1 .57 1.91 1.23 1.23 0 0 0 .15-.35 1.23 1.23 0 0 1 .65 1.22 2.49 2.49 0 0 1-.71 1.71 2.59 2.59 0 0 0 .77-1.76c.06-.43-.12-1.12-.69-1.19zM27 9.69a1.56 1.56 0 0 0-1-1 1.52 1.52 0 0 0-.4-.88 1.8 1.8 0 0 0-.6-.41 2.5 2.5 0 0 0-.72-.09c.19 0 .39 0 .59.1a1.73 1.73 0 0 1 .59.37 1.51 1.51 0 0 1 .48.87h-.16l.19.06a1.11 1.11 0 0 1 0 .17.66.66 0 0 0 0-.14 1.64 1.64 0 0 1 .48.27 2.34 2.34 0 0 1 .47.73 2.58 2.58 0 0 1 .08 1.69 2.63 2.63 0 0 0 0-1.74zM27.71 7a1.51 1.51 0 0 0-.38-1.17 1.87 1.87 0 0 0-.72-.45 1.62 1.62 0 0 0-.9 0 3.22 3.22 0 0 1 .76 0 1.87 1.87 0 0 1 .73.4 1.57 1.57 0 0 1 .44 1.47 1.84 1.84 0 0 0 .05-.25 1.85 1.85 0 0 1 1.54.47A2.44 2.44 0 0 1 29.89 9a1.89 1.89 0 0 0-2.18-2zm3.61-2a1.6 1.6 0 0 0-.78-.39c-.09 0-.72-.1-.77 0a1.15 1.15 0 0 0-.67-.91 2.71 2.71 0 0 0-1.84-.07 3.56 3.56 0 0 1 1.59 0 1.31 1.31 0 0 1 .93 1.2 1.64 1.64 0 0 0 0-.22 1.92 1.92 0 0 1 1.48.39 2.63 2.63 0 0 1 .83 1.56A2.54 2.54 0 0 0 31.32 5zM33 2.56a1.86 1.86 0 0 0-1.58 0 1.54 1.54 0 0 0-1.16-.8 3.07 3.07 0 0 0-1.85.07 3.33 3.33 0 0 1 1.69 0 1.66 1.66 0 0 1 1.26.78 2 2 0 0 0-.41.3 1.76 1.76 0 0 1 .43-.26 1.93 1.93 0 0 1 1.51 0A1.6 1.6 0 0 1 34 4.2a1.56 1.56 0 0 0-1-1.64z"/><path class="cls-5" d="M35 .62a2.36 2.36 0 0 0-2-.14 1.89 1.89 0 0 1-.86.12c-.72-.14-1.57-.83-2.6-.46a1.6 1.6 0 0 0-1 1.68s-1.54.6-1.24 1.81a2 2 0 0 0-1.43 1.76 1.64 1.64 0 0 0-.34.1.79.79 0 0 1 .71.18.83.83 0 0 1 0 1.3.88.88 0 0 1-1.24.12 1 1 0 0 1 0-1.24 2 2 0 0 0-.61 1.46 2.2 2.2 0 0 0-.34.06.75.75 0 0 1 .57.29c.47.61-.06 1.25-.64 1.52a1.16 1.16 0 0 1-.98.12.57.57 0 0 1-.4-.58 1.52 1.52 0 0 1 .4-.89A1.63 1.63 0 0 0 22.25 9a5.87 5.87 0 0 0-.78-.12h.07c.16.08.41.29.29.49a1 1 0 0 1-.66.39 1.23 1.23 0 0 1-.86-.13c-.19-.12-.42-.28-.44-.53a.2.2 0 0 1 0-.11 1.54 1.54 0 0 0-.34.17 7 7 0 0 0-1.15 0 1.28 1.28 0 0 1 .6.36c.48.55-.26.87-.71 1a4.73 4.73 0 0 1-.92.12 1.92 1.92 0 0 1-.92-.14.46.46 0 0 1 0-.73l-.18.15a2.54 2.54 0 0 0-1.36-.68.68.68 0 0 1 .46.43c.14.61-.59.85-1.06.87a2.68 2.68 0 0 1-.8-.07.71.71 0 0 1-.56-.31c-.1-.19.06-.43.2-.55a1.46 1.46 0 0 1 .33-.22 2.16 2.16 0 0 0-.82-.6c.3.34 0 .8-.41.95a2.23 2.23 0 0 1-1 .11c-.22 0-.62-.07-.73-.32s.25-.6.62-.75a1.23 1.23 0 0 0-.87-.65.3.3 0 0 1 .12.31c0 .22-.24.35-.42.46a1.77 1.77 0 0 1-.83.24c-.25 0-1.06-.06-1.07-.44s.29-.49.58-.6a1.51 1.51 0 0 0-.46-.35.82.82 0 0 1-.2.25 1.7 1.7 0 0 1-.89.46A1.41 1.41 0 0 1 6 8.08a.37.37 0 0 1-.11-.3.84.84 0 0 0-.3 1 2.27 2.27 0 0 0-1.78 1.04c-.46.95.14 2.42 2.56 2.23 0 0 .58 1 2.66.63a2.55 2.55 0 0 0 3.33.49 2.47 2.47 0 0 0 .72.59 3 3 0 0 0 2.51 0c.57.76 3 1.08 4.66-.05a2.45 2.45 0 0 0 2.82-.54 3.76 3.76 0 0 0 .3-.5 2.43 2.43 0 0 0 2.61 0 2 2 0 0 0 1.08-1.26v-.05A3 3 0 0 0 30 8.88s1.94.27 2.18-2.38A2.36 2.36 0 0 0 34 4.17a2 2 0 0 0 1.36-.38c.38-.23 1.12-2.41-.36-3.17zM5.46 10.74a1.17 1.17 0 0 1-1.4-.23.75.75 0 0 1 .18-1 1.05 1.05 0 0 1 .29-.23h.06a1.06 1.06 0 0 1 1.14.29.86.86 0 0 1-.27 1.17zm2.82.26c-.06.56-.87.56-1.26.43a.78.78 0 0 1-.6-.63.71.71 0 0 1 .26-.67.76.76 0 0 1 .81 0c.32.12.84.47.79.87zm2.88.81c0 .62-.85.71-1.29.57s-1.1-.73-.7-1.33h.05a1.37 1.37 0 0 1 .87 0c.35.07 1.07.31 1.07.78zm3.34.86a1.63 1.63 0 0 1-1.42.28 1 1 0 0 1-.92-1 .09.09 0 0 1 0-.07c0-.46 1.13-.13 1.39-.09s.79.1 1 .39a.37.37 0 0 1-.05.51zm4.27.4a3.54 3.54 0 0 1-1.69.37 3 3 0 0 1-.66-.09 1.24 1.24 0 0 1-.57-.29.86.86 0 0 1-.21-.44c0-.13-.06-.32.08-.42a1.31 1.31 0 0 1 .83-.11c.56 0 1.12 0 1.68.08.28 0 .83.08.88.44s-.17.39-.34.48zm4.05-1.23a1 1 0 0 1-.44.55 2.59 2.59 0 0 1-.75.31.78.78 0 0 1-.6 0 .51.51 0 0 1-.12-.6.68.68 0 0 1 .35-.39 1.53 1.53 0 0 1 1.25-.3.36.36 0 0 1 .31.45zm3.09-.5a1.19 1.19 0 0 1-1.79.11c-.52-.62.45-1 1-1.26h.05a1.25 1.25 0 0 1 .71-.25c.62.06.3 1.11.03 1.42zM29 .65a1.27 1.27 0 0 1 1.33-.43c.22.05.5.22.42.49a1 1 0 0 1-.56.55c-.29.12-1.08.36-1.29 0a.48.48 0 0 1 .1-.61zM26.46 5c-.24-.25 0-.58.22-.81a1.09 1.09 0 0 1 .54-.33c.22 0 .61-.1.79.07.36.35-.05.86-.37 1.07a1 1 0 0 1-1.18 0zm2.15 3.76a1.67 1.67 0 0 1-.25.9c-.12.19-.33.48-.6.44a.77.77 0 0 1-.54-.51 1.07 1.07 0 0 1-.12-.78 1 1 0 0 1 .11-.21 1.14 1.14 0 0 1 .3-.4.71.71 0 0 1 .72-.2c.29.08.38.49.38.76zm-.81-5.6c-.35-.42.31-.9.62-1.09a.82.82 0 0 1 1 .1c.36.36-.07.86-.42 1s-.94.3-1.2-.01zm3.08 4.5c-.17.19-.47.49-.76.35a1.33 1.33 0 0 1-.52-.65 1.82 1.82 0 0 1-.22-.88 1.55 1.55 0 0 1 .45-.78.71.71 0 0 1 .48-.31.8.8 0 0 1 .77.37 1.65 1.65 0 0 1-.2 1.9zM33 4.55a.83.83 0 0 1-1.41.3 1.29 1.29 0 0 1 0-1.86h.05a.43.43 0 0 1 .36-.14.83.83 0 0 1 .75.23A1.36 1.36 0 0 1 33 4.55zm1.62-2.27c-.09.21-.26.44-.52.36a1.65 1.65 0 0 1-.46-.23 2.38 2.38 0 0 0-.57-.24c-.24-.08-.62-.2-.61-.51a1.16 1.16 0 0 1 .21-.56c.57-1.1 2.44-.01 1.95 1.18z"/><path d="M31.82.53a26.16 26.16 0 0 1-4.22 6.29 13.46 13.46 0 0 1-3.87 3 7.75 7.75 0 0 1-1.74.67C19.76 11 14.55 12.21 7.1 9c-.36-.15-.65-.28-.87-.36A10.86 10.86 0 0 0 4 8.07c-.49 0-1.08 0-1.16.45h.07A17.35 17.35 0 0 1 6 9.29c.21.07.48.19.83.34a23.5 23.5 0 0 0 10.62 2.19 25.23 25.23 0 0 0 4.7-.62 8.8 8.8 0 0 0 1.85-.71 14.26 14.26 0 0 0 4.1-3.2A26.25 26.25 0 0 0 32.52.63c.08-.18-.46-.42-.7-.1z" fill="#df656c"/><path d="M17.44 11.85A23.62 23.62 0 0 1 6.81 9.66c-.35-.15-.62-.27-.83-.34a18.44 18.44 0 0 0-3.09-.76h-.11C2.86 8.17 3.26 8 4 8a11.22 11.22 0 0 1 2.26.55l.86.45a24.17 24.17 0 0 0 10.41 2.15 21.91 21.91 0 0 0 4.47-.67 7.61 7.61 0 0 0 1.73-.67 13.5 13.5 0 0 0 3.86-3A26.3 26.3 0 0 0 31.77.57V.51a.48.48 0 0 1 .34-.17.52.52 0 0 1 .4.17.14.14 0 0 1 0 .14 26.12 26.12 0 0 1-4.41 6.66 14.1 14.1 0 0 1-4.1 3.2 8.52 8.52 0 0 1-1.89.72 24.74 24.74 0 0 1-4.67.62zM2.85 8.5A16.84 16.84 0 0 1 6 9.26c.21.07.49.19.83.34a23.55 23.55 0 0 0 10.61 2.19 24.64 24.64 0 0 0 4.69-.62 8.19 8.19 0 0 0 1.87-.71 14.31 14.31 0 0 0 4.1-3.19A25.91 25.91 0 0 0 32.49.62a.06.06 0 0 0 0-.07.44.44 0 0 0-.36-.15.41.41 0 0 0-.29.14 25.91 25.91 0 0 1-4.2 6.25 13.86 13.86 0 0 1-3.87 3 8.37 8.37 0 0 1-1.75.67 22.65 22.65 0 0 1-4.45.63A24.21 24.21 0 0 1 7.09 9c-.36-.15-.65-.28-.87-.36A11 11 0 0 0 4 8.1h-.32c-.48.01-.76.15-.83.4z" fill="#bb564e"/><g class="cls-10"><path class="cls-11" d="M31.82.53a24 24 0 0 1-2.09 4.24A16.28 16.28 0 0 1 24.19 10c-2.6 1.43-7.1 1.48-7.1 1.48A19.83 19.83 0 0 1 7.18 9.4a19.71 19.71 0 0 0-3.52-1c-.18-.14.11-.27.18-.3-.46 0-.95.07-1 .45h.07A17.35 17.35 0 0 1 6 9.29c.21.07.48.19.83.34a23.5 23.5 0 0 0 10.62 2.19 25.23 25.23 0 0 0 4.7-.62 8.8 8.8 0 0 0 1.85-.71 14.26 14.26 0 0 0 4.1-3.2A26.25 26.25 0 0 0 32.52.63c.08-.18-.45-.42-.7-.1z"/></g><path d="M4.34 8.26l.31.07.87.23c.37.11.82.25 1.33.45s1.05.47 1.66.72a20.85 20.85 0 0 0 2 .7 19.46 19.46 0 0 0 2.33.52 23 23 0 0 0 2.54.25 23.25 23.25 0 0 0 2.64 0 20.8 20.8 0 0 0 2.62-.3 13.83 13.83 0 0 0 2.45-.69 10.19 10.19 0 0 0 1.11-.51 9.54 9.54 0 0 0 1-.61c.6-.47 1.14-.95 1.62-1.4s.91-.89 1.28-1.29c.09-.1.18-.19.26-.29l.25-.27.39-.49.32-.41.23-.3.19-.26s-.07.09-.18.26l-.19.36c-.1.12-.2.26-.32.42s-.26.31-.4.5l-.24.27-.26.3c-.36.4-.78.84-1.26 1.3s-1 .95-1.62 1.43a8.32 8.32 0 0 1-1 .63 8.18 8.18 0 0 1-1.12.52 13.84 13.84 0 0 1-2.47.71 20.91 20.91 0 0 1-2.64.31h-2.65c-.88 0-1.73-.14-2.55-.27a17.46 17.46 0 0 1-2.34-.54 19.82 19.82 0 0 1-2-.73l-.87-.38-.78-.36a12.85 12.85 0 0 0-1.32-.47c-.76-.28-1.19-.38-1.19-.38z" opacity=".6" fill="#fff"/><path class="cls-2" d="M19.44 39.76a2.47 2.47 0 0 1-1.17-.42 1.94 1.94 0 0 1-.59-1.25 1.89 1.89 0 0 0 .47 1.26 1.77 1.77 0 0 0 1.31.45s.02-.03-.02-.04zm-.63 2.91c-.06-.56.15-1.16-.21-1.65a1.86 1.86 0 0 1 .08 1 4.31 4.31 0 0 0 0 .95 6.1 6.1 0 0 0 .76 2.06 7.88 7.88 0 0 1-.63-2.36zm3.38-6.41l.28-.22a2.58 2.58 0 0 1-1.86.31.94.94 0 0 0 .63.18 2.87 2.87 0 0 0 .95-.27zM2.23 9.13a1.89 1.89 0 0 0-.43 2 2.94 2.94 0 0 1 .43-2zm-.66 3.65a1.06 1.06 0 0 1 .07-.87.9.9 0 0 0 .19 1.37 2.41 2.41 0 0 1-.26-.5zm-.5.57a1.5 1.5 0 0 0 .26 1.92 2.37 2.37 0 0 1-.26-1.92zm-.45 2.38a1.75 1.75 0 0 0 .51 1.78 2.59 2.59 0 0 1-.51-1.78zM.37 19v-.31a2.35 2.35 0 0 1 0-.7 1.6 1.6 0 0 0 .2 1.59 5.69 5.69 0 0 1-.2-.58zm.16 2.2a1.25 1.25 0 0 0 .17.68 1.62 1.62 0 0 0 .6.53 2.63 2.63 0 0 1-.77-1.21zM1.54 25a2 2 0 0 1-.4-.29 1.5 1.5 0 0 1-.29-.42A1.35 1.35 0 0 1 .76 24l-.06-.25a1.75 1.75 0 0 0 0 .51 1.47 1.47 0 0 0 .27.47 1.38 1.38 0 0 0 1 .5 2.38 2.38 0 0 1-.43-.23zm1.1 3.24a2.36 2.36 0 0 1-.89-.91 3.18 3.18 0 0 1-.2-.33 1.9 1.9 0 0 0 1.7 1.59 3 3 0 0 1-.61-.35zm1.65-18.6a1 1 0 0 1 .48-.34l.11-.06a.8.8 0 0 0-.75.54zm2.26 1.12a.64.64 0 0 1 .15-.44.71.71 0 0 1 .3-.18l.14-.08a.64.64 0 0 0-.46.17.65.65 0 0 0-.17.62s.03-.06.04-.09zm3.36.3a.64.64 0 0 0-.81.32c.14-.27.49-.28.76-.29.05.01.08-.03.05-.03zm2.35.94a.39.39 0 0 1 .35-.15h.13a4.34 4.34 0 0 1 .62.06c-.27-.07-1.13-.35-1.16.14zm4.17.19h.26c-.42 0-.89 0-1 .27a1.53 1.53 0 0 1 .74-.27zm4.93-.46c-.26.16-.51.4-.4.69a1.43 1.43 0 0 1 .4-.69zm3.2-1.2c-.31.18-.64.55-.36.86a.91.91 0 0 1 .36-.86zM27.3 9a1.76 1.76 0 0 1 .06-.46v-.08a.94.94 0 0 0-.06 1.04 4.51 4.51 0 0 1 0-.5zm2.4-1.91a2.05 2.05 0 0 1-.07-.6 1.06 1.06 0 0 1 0-.25 1 1 0 0 1 .08-.24 1.18 1.18 0 0 0 0 1.3.67.67 0 0 0-.01-.21zm1.78-3.44v-.2a1 1 0 0 0 .19 1.3 2.1 2.1 0 0 1-.19-1.1zM33 2a1 1 0 0 1-.29-.29 1.22 1.22 0 0 1-.07-.17c-.07.32.22.54.52.59A.83.83 0 0 1 33 2zm-.23 7.76a3 3 0 0 1 .28-.41 1.05 1.05 0 0 0-.49.76 2.15 2.15 0 0 1 .21-.35zM33 7.5a3.91 3.91 0 0 1 .44-.37c-.36.22-.72.41-.84.84a1.44 1.44 0 0 1 .4-.47zm1.23-2.09a.7.7 0 0 0-.08.29c0 .14 0 .29.14.36a1.45 1.45 0 0 1-.06-.65zm-1.34 7.35c.07-.21.07-.43.12-.64a3.37 3.37 0 0 1 .15-.48 3.38 3.38 0 0 1 .24-.41 1.71 1.71 0 0 0-.53 1.51zm.48 1.9l.09-.28a1.81 1.81 0 0 0-.35 1.6 2 2 0 0 0 0-.34v-.41a2.43 2.43 0 0 1 .26-.57zm.42 2.93c-.21.37-.47 1.09 0 1.4a1.64 1.64 0 0 1 0-1.4zm.31 3.06a.29.29 0 0 0 .11.24.31.31 0 0 0 .33 0 .12.12 0 0 0 0-.07.63.63 0 0 1-.44-.17zm.61 1.81c0 .17.22.58.46.49a1.16 1.16 0 0 1-.46-.49zm-.39 1.62a.63.63 0 0 0-.21.36 1.57 1.57 0 0 0 .19 1.14 3.05 3.05 0 0 1 .02-1.5zm-.96 2.6a1 1 0 0 0-.1 1.17 2.09 2.09 0 0 1 .1-1.17zm-.91 3.59v-.22a1.76 1.76 0 0 1 0-1.09v-.11c-.42.35-.24 1-.06 1.41zm-1.05 2.18a2.94 2.94 0 0 1 .33-.82 1.73 1.73 0 0 1 .23-.29 1.57 1.57 0 0 0-.72 1.43.64.64 0 0 0 .16-.32zm-2.93 3.65a1.62 1.62 0 0 0-.41.85l.1-.11c.1-.21.16-.42.26-.62zm-4.54.68a1.56 1.56 0 0 1 .58-.59l.36-.2a1.61 1.61 0 0 0-.64.32c-.14.1-.32.27-.31.46zM5.22 30.32a1.2 1.2 0 0 1 .55-.73 1 1 0 0 0-.45.23c-.12.12-.24.35-.11.5zm3.9 1.79a.84.84 0 0 1-.26-.57.49.49 0 0 0 0 .44.42.42 0 0 0 .4.22.38.38 0 0 1-.14-.09zM6 7.85a3.79 3.79 0 0 1 1-.21l.19-.08A1.85 1.85 0 0 0 6 7.84zm2.44.49A1.9 1.9 0 0 1 9 8.19h.18l.25-.06a1.55 1.55 0 0 0-1.09.28zm2.45.73a3 3 0 0 1 .77-.23l.25-.11a1.72 1.72 0 0 0-1.13.34zm2.31.64l.21-.12.18-.11a3.09 3.09 0 0 1 .7-.25 2 2 0 0 0-.9.25.9.9 0 0 0-.38.35zm4.34-.33a1.66 1.66 0 0 0-1.17.57s0 .06 0 0a4.32 4.32 0 0 1 1.13-.58s.05.01.04.01zM23.13 8a.76.76 0 0 1 .08-.11 1 1 0 0 0-.48.89c.2-.33.27-.57.4-.78zm1.97-2.1a.75.75 0 0 0-.15.9 1.62 1.62 0 0 1 .15-.9zm1.48-1.41s.05-.09.07-.14a.94.94 0 0 0-.14.19.4.4 0 0 0 0 .24.75.75 0 0 1 .07-.29zM28 2.54c-.13.14-.24.32-.13.49h.06a.84.84 0 0 1 .07-.49zm1-1.45a1.56 1.56 0 0 0 .06-.15 1.41 1.41 0 0 1 .17-.32 1.7 1.7 0 0 1 .19-.19 1 1 0 0 0-.38.31c-.04.08-.1.26-.04.35z"/></g></g></svg>