<svg xmlns="http://www.w3.org/2000/svg" viewBox="0 0 60.58 77.47"><defs><filter id="colorMeSaturate"><feColorMatrix in="a1" type="saturate" values="0"/></filter><style>*{filter:url(#colorMeSaturate)}.cls-2{fill:#e40039;stroke:#8e1126}.cls-12,.cls-18,.cls-2,.cls-20,.cls-26,.cls-5,.cls-8{stroke-linecap:round;stroke-linejoin:round;stroke-width:.18px}.cls-11,.cls-3{fill:#b41431}.cls-10,.cls-13,.cls-14,.cls-24,.cls-25,.cls-3,.cls-6,.cls-9{mix-blend-mode:multiply}.cls-27,.cls-4{fill:#fff}.cls-4{opacity:.7}.cls-28,.cls-4,.cls-7{mix-blend-mode:screen}.cls-14,.cls-5{fill:#0078c1}.cls-5{stroke:#003368}.cls-6{fill:#0093d6}.cls-25,.cls-6{opacity:.5}.cls-12,.cls-13,.cls-7{fill:#00a0de}.cls-8{fill:#a0383b;stroke:#5b090e}.cls-9{fill:#ac3c41}.cls-12{stroke:#0070af}.cls-18,.cls-19,.cls-24,.cls-25{fill:#c04148}.cls-18{stroke:#821b25}.cls-20{fill:#f4a196;stroke:#d15a46}.cls-28{fill:#f9c6bf}.cls-26{fill:#d4d4d4;stroke:#bbbaba}.cls-30{fill:#ededed}</style></defs><g style="isolation:isolate"><g id="Слой_1" data-name="Слой 1"><path class="cls-2" d="M25.88 71.39l-.25 4.83c.11.62 1.93 1.1 4.16 1.1s4.05-.48 4.17-1.1l.04-4.46z"/><path class="cls-3" d="M25.88 71.39l-.07 1.33c1.09.51 2.86 1.32 4.25 1.87A1.63 1.63 0 0 1 31.24 76v1.35c1.52-.16 2.61-.55 2.7-1l.06-4.59z"/><path class="cls-4" d="M26.21 73.29l-.1 3.16s.47 0 .47-1.13v-1.74z"/><path class="cls-5" d="M7.6 54l-.26 16.87v.06c.11.6 1.93 1.09 4.16 1.09s4.06-.49 4.17-1.09v-7.64z"/><path class="cls-6" d="M7.49 61.15a14 14 0 0 0 4.18 4.53s.86.55.86 1V72c1.75-.12 3.06-.55 3.16-1.06v-7.65L7.6 54z"/><path class="cls-7" d="M8 62.52l-.12 8.11s.62.06.62-2.91v-4.46z"/><path class="cls-2" d="M48.43 24.44l6.72-1.87 1.08 3.9-6.53 2.22-1.27-4.25z"/><path class="cls-3" d="M55 24.68a23.75 23.75 0 0 1-2.74.78A2.05 2.05 0 0 1 50.3 25c-.26-.26-.5-.56-.77-.81l-1.1.3 1.27 4.25 6.53-2.22-.56-2z"/><path class="cls-8" d="M54.65 24.81c-.32-1.07-.13-2.08.42-2.24s1.25.59 1.56 1.66.13 2.08-.42 2.24-1.21-.58-1.56-1.66z"/><path class="cls-9" d="M55 24.75c-.25-.86-.14-1.65.24-1.76s.89.5 1.15 1.36.14 1.65-.24 1.76-.88-.5-1.15-1.36z"/><path class="cls-4" d="M50 24.27l4.46-1.33A14.51 14.51 0 0 1 50 24.27z"/><path class="cls-2" d="M51.05 30.11l7.04-.18.1 4.07-6.97.54-.17-4.43z"/><path class="cls-3" d="M57.66 32.14c-.48 0-2.28.17-2.71.2a2.26 2.26 0 0 1-2.24-.88c-.26-.43-.4-.95-.66-1.37h-1l.17 4.43 7-.54V32.1z"/><path class="cls-8" d="M57.07 32c0-1.12.44-2.05 1-2.05s1 .91 1.05 2-.44 2-1 2.05-1.04-.9-1.05-2z"/><path class="cls-9" d="M57.53 31.9c0-.9.31-1.64.71-1.65s.76.75.76 1.64-.3 1.63-.7 1.64-.76-.73-.77-1.63z"/><path class="cls-4" d="M52.45 30.31l4.9-.19a16.8 16.8 0 0 1-4.9.19z"/><path class="cls-2" d="M7.6 38.92L.72 37.4l.89-3.96 6.89 1.15-.9 4.33z"/><g class="cls-10"><path class="cls-11" d="M6.87 34.31c-.25.57-.41 1.2-.59 1.7a.87.87 0 0 1-1.28.56s-2.49-.66-3.9-1.07l-.38 1.9 6.88 1.52.9-4.33z"/></g><path class="cls-8" d="M2.2 35.68c-.26 1.09-.92 1.88-1.47 1.75S-.06 36.3.2 35.2s.92-1.88 1.48-1.75.79 1.13.52 2.23z"/><path class="cls-9" d="M1.77 35.57c-.21.88-.69 1.52-1.08 1.43s-.53-.88-.31-1.76.69-1.52 1.07-1.42.55.88.32 1.75z"/><path class="cls-4" d="M2.58 33.82l3.93.66a8.43 8.43 0 0 1-3.93-.66z"/><path class="cls-2" d="M8.77 45.06l-7.04.22-.12-4.06 6.96-.59.2 4.43z"/><path class="cls-3" d="M8.57 40.63l-2.84.24c-.11.87-.08 1.94-1 2.32a8.16 8.16 0 0 1-3.06.37l.06 1.72 7-.22z"/><path class="cls-8" d="M2.82 43.2c.05 1.12-.37 2-.94 2.07s-1.07-.86-1.12-2 .38-2 1-2.08 1.02.89 1.06 2.01z"/><path class="cls-9" d="M2.38 43.22c0 .9-.25 1.64-.65 1.65s-.73-.7-.79-1.59.26-1.64.65-1.65.75.69.79 1.59z"/><path class="cls-4" d="M2.46 41.46l3-.37a5.25 5.25 0 0 1-3 .37z"/><path class="cls-12" d="M17 12.39S27.23 14 31.36 14.12 31 18.91 31 18.91l-16.85.25z"/><path class="cls-13" d="M17 12.39S27.23 14 31.36 14.12 31 18.91 31 18.91l-16.85.25z"/><path class="cls-12" d="M11.19 15.79l-2.5-1.26 1.6-3.74 2.34.86-1.44 4.14z"/><path class="cls-13" d="M11.85 11.37a23.42 23.42 0 0 0-1.33 4.08l.67.34 1.44-4.14z"/><path class="cls-12" d="M11.23 19.96l-2.8-.16-.02-4.07 2.49-.13.33 4.36z"/><path class="cls-13" d="M10.48 15.62a12.63 12.63 0 0 0-.16 4.29l.91.05-.33-4.36z"/><path class="cls-5" d="M10.35 13.05c-.46 1-1.25 1.67-1.77 1.44s-.58-1.26-.11-2.28 1.26-1.67 1.78-1.44.57 1.23.1 2.28z"/><path class="cls-14" d="M10 12.87c-.37.82-1 1.35-1.33 1.19s-.35-1 0-1.78 1-1.35 1.33-1.19.32.96 0 1.78z"/><path class="cls-5" d="M9.42 17.77c0 1.12-.45 2-1 2s-1-.91-1-2 .45-2 1-2.05.99.92 1 2.05z"/><path class="cls-14" d="M9 17.77c0 .9-.31 1.63-.71 1.63s-.73-.72-.73-1.62.31-1.63.71-1.63.73.72.73 1.62z"/><path class="cls-12" d="M10.73 19.86c.69 4.1 1.64 5.19-.14 8.33-.69 1.23-1.22 2.68-2 4.47 2.63 2.13 6.28 2.43 9.52 1.7a10.59 10.59 0 0 0 6.31-3.73 7.67 7.67 0 0 0 1.25-3.81 8.78 8.78 0 0 1-3.29-.95c-6.16-3-4.38-13.4-1.64-14.22S35.08 11 41.23 5.28c0 0 1.12-.9-.07-2.29a1.69 1.69 0 0 0-2.57 0c-.57.33-1.16.63-1.75.91a26 26 0 0 1-3.4 1.32 41.41 41.41 0 0 1-5.25 1.28c-1.83.35-7.88 1.39-9 1.17a3.67 3.67 0 0 1-2-1.35 6.05 6.05 0 0 1-.59-.84 4.88 4.88 0 0 1-.51-1.07L12 7.69a4.06 4.06 0 0 1 .37 3.31c-.54 1.88-2.32 4.75-1.64 8.86z"/><path class="cls-7" d="M18.54 8.38s13.91-.68 21-5.79c0 0-3.19 3.25-10.5 4.74s-10.5 1.05-10.5 1.05z"/><path d="M17.37 8.07A8.48 8.48 0 0 0 21 7.64a8.63 8.63 0 0 1-1.82.06 3.67 3.67 0 0 1-2-1.35 6.05 6.05 0 0 1-.59-.84 4.88 4.88 0 0 1-.51-1.07l-1.82 1.41a4.84 4.84 0 0 0 3.11 2.22zM16 22.69c.13 1.86-1.79 3.22-1.79 3.22a22.51 22.51 0 0 0-5.44 6.29c-.06.15-.13.3-.2.46 2.63 2.13 6.28 2.43 9.52 1.7a10.59 10.59 0 0 0 6.31-3.73 7.67 7.67 0 0 0 1.25-3.81 8.78 8.78 0 0 1-3.29-.95c-6.16-3-4.38-13.4-1.64-14.22S35.08 11 41.23 5.28a1.47 1.47 0 0 0 0-2.15c-5.53 4.61-17.18 5.13-22 6.86-5.39 1.92-3.35 10.84-3.23 12.7z" fill="#0093d6" opacity=".5"/><path class="cls-5" d="M14.61 6.85c-1.14.89-2.35 1.24-2.7.79s.29-1.53 1.44-2.42 2.35-1.22 2.7-.79-.29 1.57-1.44 2.42z"/><path class="cls-14" d="M14.27 6.49c-.83.67-1.68 1-1.91.7s.25-1.05 1.07-1.73 1.68-1 1.91-.71-.25 1.06-1.07 1.74z"/><path class="cls-2" d="M41.47 14.31c-.74-2-3.74-5.4-3.74-5.4a14.45 14.45 0 0 1 1.39-6.81 2.5 2.5 0 0 0-3-1.43c-1.6 2.16-1.33 6-2 6.1S34.05.64 34.05.64s-.38-.5-1.71-.55-1.73.61-1.73.61.12 5.76-.92 6.13-1-5.88-1-5.88-.43-.62-2-.39-1.78 1.18-1.78 1.18.56 6.56-.18 7.85c-.48.84-1.63 1.35-2.37 1.91A12.23 12.23 0 0 0 19 14.9a7.79 7.79 0 0 0-.87 3.48 7 7 0 0 0 .29 2.14 9.56 9.56 0 0 0 1.82 3.68 6.55 6.55 0 0 0 1.6 1.32l.5.26a2.41 2.41 0 0 1 1.16.69l.12.17a4.89 4.89 0 0 1 .46.56c3.56-1.52 6.8-9 7.9-9.71 1.45-.92 10.22-1.16 9.49-3.18z"/><path class="cls-2" d="M41.47 14.31c-.74-2-3.74-5.4-3.74-5.4a14.45 14.45 0 0 1 1.39-6.81 2.5 2.5 0 0 0-3-1.43c-1.6 2.16-1.33 6-2 6.1S34.05.64 34.05.64s-.38-.5-1.71-.55-1.73.61-1.73.61.12 5.76-.92 6.13-1-5.88-1-5.88-.43-.62-2-.39-1.78 1.18-1.78 1.18.56 6.56-.18 7.85c-.48.84-1.63 1.35-2.37 1.91A12.23 12.23 0 0 0 19 14.9a7.79 7.79 0 0 0-.87 3.48 7 7 0 0 0 .29 2.14 9.56 9.56 0 0 0 1.82 3.68 6.55 6.55 0 0 0 1.6 1.32l.5.26a2.41 2.41 0 0 1 1.16.69l.12.17a4.89 4.89 0 0 1 .46.56c3.56-1.52 6.8-9 7.9-9.71 1.45-.92 10.22-1.16 9.49-3.18z"/><g style="mix-blend-mode:multiply" opacity=".8"><path class="cls-11" d="M32.29 7.52c.71 1.21 1.59.27 2-.85a.26.26 0 0 1-.16.1c-.8.06-.06-6.13-.06-6.13s-.38-.5-1.71-.55H32c-.12 2.29-.33 6.36.29 7.43zM28 7.76c.76.55 1.52-.29 1.86-1a.26.26 0 0 1-.13.08c-1 .37-1-5.88-1-5.88s-.4-.57-1.83-.41a6.51 6.51 0 0 1 .09.78c.01 1.85.1 5.81 1.01 6.43z"/><path class="cls-11" d="M41.47 14.31c-.74-2-3.74-5.4-3.74-5.4a14.45 14.45 0 0 1 1.39-6.81A2.52 2.52 0 0 0 38 .89C35.3 3 36.7 8.47 35.7 10c-.5.77-1.9 1-2.72 1-2 .06-3.84-.42-5.57.88-1.52 1.15-2.27 3.21-2.67 5-.25 1.12-.81 1.12-.81 1.12a10.33 10.33 0 0 0-3.65 2.3c-.75.62-1-.13-1-.13a8 8 0 0 1-.75-4.13 8.7 8.7 0 0 0-.37 2.3 7 7 0 0 0 .29 2.14 9.56 9.56 0 0 0 1.82 3.68 6.55 6.55 0 0 0 1.6 1.32l.5.26a2.41 2.41 0 0 1 1.16.69l.12.17a4.89 4.89 0 0 1 .46.56c3.56-1.52 6.8-9 7.9-9.71 1.42-.88 10.19-1.12 9.46-3.14z"/></g><path class="cls-18" d="M20 23.37l.22.77a5 5 0 0 0 2.75 1.62s2-4.08 4.63-6.1c-.03 0-4.87-1.53-7.6 3.71z"/><g class="cls-10"><path class="cls-19" d="M20 23.37l.2.69a1.71 1.71 0 0 0 .11.14 7 7 0 0 0 .61.61 4.16 4.16 0 0 0 2.05 1s2-4.08 4.63-6.1c-.03-.05-4.87-1.58-7.6 3.66z"/></g><g class="cls-10"><path class="cls-19" d="M20 23.37l.2.69a1.71 1.71 0 0 0 .11.14 7 7 0 0 0 .61.61 4.16 4.16 0 0 0 2.05 1s2-4.08 4.63-6.1c-.03-.05-4.87-1.58-7.6 3.66z"/></g><path class="cls-20" d="M19.67 23.37a7.67 7.67 0 0 0 .55.76c.52-.91 1.3-4.26 7.35-4.47l.7-.87s-7.04-.69-8.6 4.58z"/><path d="M58.21 53.48s.28-9.29-4.79-14.35a10.62 10.62 0 0 0-2.05-2.19 13.22 13.22 0 0 0-3.7-13.8C41.11 17 33 20.68 30.84 23.82a5.53 5.53 0 0 1-6.84 2.7c0 .51-.08 1-.13 1.53-.28 2.92-.82 5.93-2.7 8.29A14.12 14.12 0 0 1 16 40a30.19 30.19 0 0 1-6.9 2.46 11.83 11.83 0 0 1-2.78.29c0 .69-.35 2-.34 2.73.17 8.51-2.12 14 14.16 23.57a31.89 31.89 0 0 0 4.66 2.18A67 67 0 0 0 40.49 76a30.24 30.24 0 0 0 8.06.19c3.5-.39 8.36-1.3 10.22-4.72 2.23-4.07 2-9 .87-13.36-.21-.76-.43-1.52-.67-2.26a9.34 9.34 0 0 1-.76-2.37z" stroke-miterlimit="10" stroke="#cf8c7b" fill="#f9c6bf" stroke-width=".18"/><path d="M56.9 63c0-.28-.1-.52-.15-.71-.39-1.42-1.63-2.46-1.83-3.95-.31-2.21.88-4.26 0-6.47-.82-2-2.31-3.76-2.48-6-.08-1.14.21-2.28-.23-3.39-.62-1.57-2.12-2.66-2.77-4.24a4.7 4.7 0 0 1-.06-3.14 11.26 11.26 0 0 0 .31-2.77 14.61 14.61 0 0 0-1-6.24 8.15 8.15 0 0 0-2.33-3A10.83 10.83 0 0 0 36 21.46c-2.86 2.74-1.89 6 .5 8.84l-9.92-4.25-3.6-.2c-.06-.12-.12-.19-.21-.21a12.85 12.85 0 0 0-7.36.94C12.5 28 8.37 31.26 7.15 36c-1 3.84-1.79 10.53.14 14.05 1.36 5.51 8.85 11.6 9.93 12.51a13.5 13.5 0 0 0 7.62 4c4.57.76 5.52 2.1 9.14 4.19s10.85 1.52 11 0-4.45-7.08-6-8.6-3.16-6.81-4.87-9.85c-1.57-2.8-5.87-6.39-6.57-7 1 .74 1.74.16 2.59.9 3.23 2.85 6.41 4.11 7.69 7.4s.86 2.42 5.57 7.27c1.81 1.87 3.45 3.9 5.28 5.75 1.33 1.34 3.79 4.1 5.86 4.1 2.84.03 2.79-5.22 2.37-7.72zM22.05 39.09z" stroke-miterlimit="10" fill="#f4a196" stroke="#d15a46" stroke-width=".18"/><g style="mix-blend-mode:multiply" opacity=".3"><path class="cls-24" d="M41.27 72.08a12.31 12.31 0 0 0 1.73-.23c-.89-1.09-1.81-2.16-2.7-3.25q.44 1.75.97 3.48zm-1.39-4.31h-.27c0 .21.08.42.11.62a.51.51 0 0 1 .26-.2l-.09-.11a.24.24 0 0 1-.01-.31zm-.42-.83a.44.44 0 0 1 0 .1c.51.06 1 .07 1.52.12.7.06 1.39.16 2.08.26h.35l-.41-.6a21.56 21.56 0 0 1-3.54.12zm.38-.61a21.92 21.92 0 0 0 2.69-.08l-.53-.68a17.82 17.82 0 0 1-2.16.76zm-3.74 5.26l.52.13a51.2 51.2 0 0 1-.21-2.78c-.11.81-.22 1.61-.29 2.43a1.64 1.64 0 0 0-.02.22z"/><path class="cls-24" d="M38 66.17a21.44 21.44 0 0 0 3.63-1l-.17-.21a26.75 26.75 0 0 1-4.8 1.51.24.24 0 0 1-.12 0c-.47 1.23-1 2.43-1.46 3.69-.12.34-.22.68-.32 1 .24.1.49.19.75.28.11-1.16.28-2.3.44-3.45a.46.46 0 0 1 .43-.36v-.2c0-.34.61-.55.6-.12a34.77 34.77 0 0 0 .27 4.56l.38.07v-4c0-.35.6-.56.6-.13v4.22c.44 0 .88.08 1.31.1a38.88 38.88 0 0 0-.54-4.49 5.78 5.78 0 0 1-.57-.12c-.35-.09 0-.68.33-.59h.23l.06-.06-.67-.06a.27.27 0 0 1-.18-.11h-.18c-.47.18-.34-.46-.02-.53zm-7.48 2.42c.38.23.77.48 1.18.75a26.71 26.71 0 0 0 2-3.24c-1.05.9-2.09 1.71-3.18 2.49z"/><path class="cls-24" d="M36.46 65.29c-.3.3-.71 0-.4-.35 1-1 2-1.86 3-2.75h-.05a5.64 5.64 0 0 1-.52-.66c-.48.3-1 .56-1.46.82-1.23.66-2.32 1.57-3.56 2.22-1 .88-2.1 1.52-3.12 2.34-.38.32-.74.66-1.11 1l.76.4c1.59-1.13 3.1-2.38 4.57-3.66.34-.29.56.22.26.48l-.37.32a.3.3 0 0 1 0 .28 23.33 23.33 0 0 1-2.33 3.91l.71.45c.73-1.44 1.32-3 2-4.43.16-.36.69-.21.5.2-.67 1.48-1.27 3-2 4.51l.68.4.27.14c.12-.41.24-.81.4-1.21.52-1.25 1.05-2.5 1.51-3.77.1-.3.56-.37.59-.12l.29-.06a.29.29 0 0 1 0-.41A12 12 0 0 1 39.83 63c-.13-.15-.25-.29-.37-.41-1.03.86-2.04 1.75-3 2.7zm-12.4 1.12l.71.14c.46-1.31.95-2.6 1.43-3.89a30.22 30.22 0 0 1-2.14 3.75zm.75-3.87a16.14 16.14 0 0 0-1.81 2c-.35.42-.67.85-1 1.28l.5.19c.31-.55.6-1.1 1-1.62s.89-1.22 1.31-1.85zm-3.25 2.88l-.11.15.59-.76c-.14.19-.32.41-.48.61zm-3.32-8.1c-1.29.9-2.53 1.87-3.8 2.8l.45.42c.32-.31.63-.63.94-.95.78-.78 1.63-1.49 2.41-2.27zm-4.24.2c.64-.5 1.31-1 1.93-1.49-.86.36-1.74.66-2.59 1-.46.18-.9.39-1.35.6.29.32.59.64.89.94A9.36 9.36 0 0 1 14 57.52zm-4.22-7.24c-.76.19-1.51.36-2.28.5l.13.36c.73-.25 1.44-.55 2.15-.86zm-1.93 1.39l.09.21L9 51.21c-.36.16-.75.32-1.15.46zm.98-4c.64.13 1.28.19 1.93.27l1-.15c-.27-.1-.57-.17-.7-.22-.84-.27-1.69-.48-2.55-.69s-1.51-.33-2.27-.51c0 .31.08.61.13.91.82.13 1.63.23 2.46.39zm-2.14-9.59l-.09.48 3.28 1.25c-1.07-.55-2.14-1.12-3.19-1.73zm6.79-.98c-1.56-1.57-3.25-3-4.8-4.59l-.33.55c1.65 1.41 3.41 2.7 5.13 4.04zM11 29.67l-.14.14c1 1.31 2 2.67 3.08 3.93C13 32.39 12 31.06 11 29.67zm4.46-2.35c.42.77.83 1.55 1.28 2.3-.18-.3-.32-.61-.37-.69-.29-.55-.59-1.08-.91-1.61zm1.1-1.21c.43.88.85 1.78 1.28 2.66-.22-.8-.44-1.59-.68-2.38l-.22-.39zm4.76-.62h-1.51C20.4 26.66 21 27.81 21.6 29c-.14-1.19-.19-2.35-.28-3.51zm-2.44.09h-.09c.21.52.42 1 .64 1.54-.19-.5-.38-1.02-.55-1.54zm3.67.03l-.63-.08a25.37 25.37 0 0 0 .6 4.94 24.66 24.66 0 0 1 .03-4.86zm29.83 40.57a.17.17 0 0 1 0 .07v3.7a7 7 0 0 0 .7.4 23.47 23.47 0 0 0-.7-4.17z"/><path class="cls-24" d="M56.91 63.1a18.42 18.42 0 0 1-3.76 1c-.43.08-.3-.55 0-.61a17.66 17.66 0 0 0 3.62-1v-.21a5.48 5.48 0 0 0-.48-1.11 21.79 21.79 0 0 1-3.37 1.36c-.41.12-.28-.52 0-.62A19.4 19.4 0 0 0 56 60.74a9.4 9.4 0 0 1-.58-1A11.16 11.16 0 0 1 52.57 61c-.14 0-.22 0-.25-.1l-.34.28c-.35.28-.57-.23-.27-.48s.73-.59 1.1-.88a13.8 13.8 0 0 1-2.06.68c-.41.11-.29-.53 0-.61a16.74 16.74 0 0 0 4.11-1.69 5.17 5.17 0 0 1 0-.68l-.53.2c-1.18.44-2.36 1-3.58 1.29-.41.12-.29-.52 0-.61 1.39-.38 2.72-1 4.08-1.49 0-.49.12-1 .19-1.44-1.76.7-3.37 1.74-5.16 2.36-.42.15-.46-.44-.12-.56 1.76-.61 3.32-1.63 5-2.31l.33-.13a8.3 8.3 0 0 0 0-1.5 56.65 56.65 0 0 1-5.29 2c-.41.13-.29-.51 0-.61a53.39 53.39 0 0 0 5.18-2 3.07 3.07 0 0 0-.13-.5l-.2.08c-1.5.61-2.94 1.57-4.55 1.81-.43.07-.31-.56 0-.61a11.93 11.93 0 0 0 3.31-1.27c-1.35.43-2.71.81-4.09 1.14-.42.1-.29-.54 0-.61 1.72-.41 3.41-.92 5.08-1.46-.26-.56-.56-1.09-.85-1.63a36.43 36.43 0 0 1-5.42 1.55c-.43.08-.3-.55 0-.61l.65-.13c-.23-.07-.1-.54.18-.61 1.36-.37 2.73-.71 4.07-1.14-.14-.29-.28-.59-.4-.9a24.2 24.2 0 0 1-4.2.91c-.43 0-.31-.57 0-.61a23.5 23.5 0 0 0 4-.85 4.61 4.61 0 0 1-.15-.53 13.42 13.42 0 0 1-4.68.27c-.4-.07-.14-.68.19-.63a12 12 0 0 0 4.1-.17h-.43c-1.83.06-4-.16-5.69.75-.4.21-.43-.4-.12-.57 1.57-.86 3.59-.74 5.32-.79h1.16v-1.13a22.05 22.05 0 0 1-3.9 1c-.43.07-.3-.56 0-.61a21.74 21.74 0 0 0 3.87-1 37.78 37.78 0 0 1-6.3 1.34c-.43.05-.31-.57 0-.61A37.61 37.61 0 0 0 52 43.28a3.17 3.17 0 0 0-.16-.66 39.4 39.4 0 0 1-4.44 1.52c-.41.12-.29-.52 0-.61a41.16 41.16 0 0 0 4.6-1.4 5.24 5.24 0 0 0-.3-.51 25.32 25.32 0 0 0-5.09 2.22c-.38.23-.61-.26-.27-.47a24 24 0 0 1 3.77-1.78c-1.47.34-2.94.61-4.4.92-.42.09-.29-.55 0-.61 1.76-.37 3.57-.7 5.33-1.15l-.67-.83a44.17 44.17 0 0 1-4.2 1.43c-.41.13-.28-.51 0-.61 1.28-.4 2.57-.79 3.81-1.29l-.21-.32c-2.23.87-4.51 1.63-6.7 2.61-.41.18-.45-.42-.12-.56 2.14-1 4.36-1.7 6.54-2.55a3.54 3.54 0 0 1-.16-.34.69.69 0 0 1 0-.13c-.93.26-1.87.51-2.82.72-.42.09-.29-.55 0-.62.88-.19 1.75-.41 2.62-.66 0-.13-.05-.26-.07-.39a20.87 20.87 0 0 1-3 .84c-.43.08-.3-.55 0-.61a21.14 21.14 0 0 0 3-.83 7 7 0 0 1 .24-1.46c0-.12 0-.23.08-.34-.23.1-.46.2-.68.32a17.75 17.75 0 0 1-3.2 1.68c-.41.12-.29-.52 0-.61a27.69 27.69 0 0 0 3.22-1.72l.73-.31c-1 .26-2 .48-3 .77-.41.12-.28-.52 0-.61.85-.25 1.73-.45 2.59-.66a29.23 29.23 0 0 1-3 0c-.4 0-.15-.64.19-.63a23.37 23.37 0 0 0 3.41-.04v-.41a11.26 11.26 0 0 1-3.43-.07c-.36-.09 0-.68.33-.6a9.75 9.75 0 0 0 3.1.06v-.85a14.54 14.54 0 0 1-3 .16c-.4 0-.14-.64.19-.62a14.57 14.57 0 0 0 2.8-.14c0-.24 0-.47-.06-.71a19.14 19.14 0 0 1-3.93 1c-.43 0-.3-.58 0-.61a18.57 18.57 0 0 0 3.82-1c0-.21-.06-.42-.1-.63a20 20 0 0 1-3.51.79c-.43.05-.3-.58 0-.62a19.25 19.25 0 0 0 3.42-.75c0-.07 0-.13-.05-.2l-.19.05c-1.13.31-2.26.57-3.4.84-.38.09-.31-.42-.05-.58-.15 0-.16-.22-.09-.38l-.19.1c-.4.22-.44-.39-.12-.56 1.06-.57 2.14-1.12 3.22-1.67l-.15-.26A10.51 10.51 0 0 1 44.81 27c-.42.09-.3-.54 0-.61A9.69 9.69 0 0 0 48 24.92a8.09 8.09 0 0 0-1-1.23c-.88.78-1.72 1.59-2.64 2.32-.36.27-.58-.24-.27-.48.88-.68 1.68-1.46 2.51-2.2l-.12-.11c-1 1-2 1.91-3 2.79-.35.28-.57-.23-.27-.48 1-.83 2-1.72 2.87-2.63l-.31-.22c-.93.89-1.83 1.8-2.79 2.66-.33.31-.55-.21-.26-.47.89-.8 1.73-1.65 2.6-2.48-.35-.22-.71-.4-1-.57-.77 1.28-1.55 2.56-2.24 3.88-.18.35-.71.2-.51-.2.7-1.33 1.48-2.61 2.25-3.89-.33-.14-.67-.25-1-.35a10.25 10.25 0 0 0-1.44 3.45c-.06.33-.68.55-.61.13a11.45 11.45 0 0 1 1.52-3.72l-.61-.12a32.41 32.41 0 0 0-1 3.21c-.09.35-.69.39-.57 0a33.39 33.39 0 0 1 1-3.26H41a26.18 26.18 0 0 0-1.15 4.47c-.05.33-.67.54-.6.12a26.63 26.63 0 0 1 1.18-4.65h-.56a39.38 39.38 0 0 1-1.27 3.8c-.14.33-.75.38-.58 0a35.29 35.29 0 0 0 1.26-3.76h-.55a9.88 9.88 0 0 0-.7 3.35c0 .34-.59.55-.6.12a10 10 0 0 1 .69-3.41c-.32.05-.61.1-.86.16a31.92 31.92 0 0 0-.46 3.38c0 .33-.61.56-.61.12V24a.32.32 0 0 1 .08-.2c.09-.86.22-1.72.37-2.57a6.63 6.63 0 0 0-.66.22c-2.86 2.74-1.89 6 .5 8.84l-9.92-4.25-3.43-.19a28.23 28.23 0 0 0 .36 7.29c.06.32-.52.66-.59.27l-.18-1.16a.2.2 0 0 1-.29-.1l-.05-.1v-.13c-.53-1.16-1.1-2.29-1.69-3.41.33.92.64 1.86.88 2.81.08.29-.39.6-.55.36a.19.19 0 0 1-.26-.1c-.88-1.95-1.78-3.9-2.56-5.89l-.49.1.06.18a43.81 43.81 0 0 1 2.1 3.94c.14.31-.39.75-.54.41-.23-.54-.49-1.06-.77-1.57.23.79.47 1.57.76 2.34.12.31-.41.75-.55.4-.26-.7-.48-1.42-.69-2.14-.09.2-.34.36-.49.23a.22.22 0 0 0 .07.09c.14 0 .25.18.15.4-.25.54-.63.13-.93-.34.29.49.61 1 1 1.44.2.27-.32.71-.54.41A42.6 42.6 0 0 1 14.53 27l-.42.24c.25.54.53 1.08.8 1.61s.69 1.32 1 2c.18.35.35.7.53 1l.15.31a.19.19 0 0 1 .16.11 1.72 1.72 0 0 1 .11.29c.07.22-.23.54-.46.43-.45-.22-.71-1.14-.92-1.56-.37-.74-.75-1.47-1.13-2.2-.28-.55-.57-1.1-.82-1.66l-.39.26c1.32 2.58 2.71 5.13 4.15 7.64a.22.22 0 0 1 .15.17.41.41 0 0 0 .05.19c.14.3-.35.74-.54.4q-2.28-3.94-4.36-8c-.36.28-.73.58-1.1.91 1.38 2.05 2.93 4 4.35 6 .19.28-.32.73-.54.41l-.84-1.17c0 .25-.34.52-.52.32-1.29-1.41-2.39-3-3.57-4.48l-.35.39c1.31 1.59 2.57 3.22 3.88 4.81.22.27-.24.79-.45.52-1.31-1.58-2.56-3.21-3.87-4.8-.18.23-.36.47-.53.71 1.64 1.68 3.45 3.21 5.1 4.89.2.21-.07.59-.31.59.41.32.81.65 1.21 1s-.18.75-.45.52c-2.15-1.8-4.47-3.41-6.6-5.23a12.77 12.77 0 0 0-.63 1.52c1.1.65 2.23 1.27 3.37 1.81 1.51.73 3.38 1.29 4.36 2.76.19.28-.33.72-.54.41-1-1.54-3.15-2-4.69-2.86-.91-.49-1.8-1-2.69-1.49a1.21 1.21 0 0 0 0 .18c-.11.42-.22.88-.32 1.36 2.7 1.6 5.56 2.92 8.35 4.37a.25.25 0 0 1 .12.15c.35.14 0 .72-.33.6l-8.5-3.19c0 .23-.08.46-.11.69 1.1.41 2.22.76 3.34 1.15 1.38.48 3.11.63 4.27 1.6.27.23-.18.75-.45.52a5.85 5.85 0 0 0-2.17-.94c-.73-.22-1.46-.42-2.19-.65-1-.31-1.93-.62-2.88-1v.38c1.41.53 2.8 1.13 4.25 1.52.74.2 1.49.38 2.21.64a3.65 3.65 0 0 1 1.52.83.37.37 0 0 1-.1.5c0 .19-.17.44-.39.4-2.54-.5-5.11-.83-7.65-1.33v.88c2.69.16 5.39.32 8.08.57.4 0 .14.65-.19.62-2.62-.24-5.25-.39-7.88-.55v.59c1.08.27 2.18.47 3.24.73a21 21 0 0 1 2.49.73 2.58 2.58 0 0 1 .92.5l1.19-.11c.43 0 .3.57 0 .61l-.51.06c.13.11 0 .44-.16.57l.13-.06c.42-.17.46.43.12.57-.5.2-1 .41-1.49.64-1.24.88-2.53 1.69-3.83 2.47.05.11.11.21.16.31 2-.92 3.85-2.36 5.79-3.41.39-.21.43.39.12.56-1.9 1-3.68 2.4-5.64 3.33l.08.14c2.16-.68 4.2-1.77 6.42-2.24.43-.09.3.55 0 .62A54.68 54.68 0 0 0 9 53.8a1.74 1.74 0 0 1 .11.18 23.15 23.15 0 0 0 6.75-2.31c.4-.22.43.39.12.56a23.48 23.48 0 0 1-6.5 2.29l.37.53c1-.29 2-.61 2.94-.84 1.68-.39 3.59-.64 5-1.72.36-.27.58.24.27.48a12.61 12.61 0 0 1-5 1.77c-1 .22-1.91.52-2.86.81q.23.3.45.57A45.6 45.6 0 0 0 16.32 54c.4-.2.44.4.11.56a42.1 42.1 0 0 1-5.35 2c.17.21.35.41.52.61.69-.29 1.36-.64 2-.91 1.11-.44 2.26-.82 3.33-1.35l.08-.1a.27.27 0 0 1 .35-.12h.1c.4-.22.43.39.12.56l-.34.18a15.56 15.56 0 0 1-2.85 2.45A10.07 10.07 0 0 0 13.25 59a20.94 20.94 0 0 0 2.82-2.23c.3-.31.7 0 .4.35a20.69 20.69 0 0 1-2.83 2.27l.37.36c1.5-1.1 2.95-2.26 4.48-3.29.21-.14.37-.05.42.1a1.07 1.07 0 0 1 .14-.16c.27-.34.67 0 .4.34-1.07 1.3-2.4 2.33-3.57 3.52l-.63.64c.37.33.7.63 1 .87q.34-.42.72-.81A54.74 54.74 0 0 1 21.26 57c.35-.29.57.22.26.47-.66.55-1.32 1.11-2 1.7a.29.29 0 0 1 0 .27A10.44 10.44 0 0 1 17.26 62c-.1.11-.21.22-.3.33l.26.23.4-.48c1.18-1.38 2.5-2.65 3.59-4.11.26-.35.66 0 .4.35-1.13 1.51-2.52 2.8-3.73 4.27-.08.11-.17.21-.26.32.26.24.55.5.89.79.77-1.28 1.39-2.67 2-4 .18-.36.7-.21.51.19-.66 1.36-1.31 2.8-2.12 4.12l.25.19c.65-1.32 1.3-2.64 2-4 .19-.35.72-.2.51.2-.7 1.35-1.37 2.71-2 4.07.18.12.36.24.57.36l.1-.15a38.63 38.63 0 0 1 3-3.44c.3-.3.7 0 .4.35a37.14 37.14 0 0 0-3 3.5l.26.13a5.17 5.17 0 0 1 .42-.51c.81-.86 1.67-1.68 2.48-2.54a.28.28 0 0 1 .45 0 7 7 0 0 1 .6-.48c.15-.09.26-.08.34 0a3.41 3.41 0 0 0 .31-.88c.08-.36.68-.4.58 0a10 10 0 0 1-2.06 3.49c-.4.55-.72 1.15-1.06 1.73l.49.14A31.3 31.3 0 0 0 26 61.86c.16-.35.66-.22.52.17.21-.18.58-.14.45.2-.53 1.47-1.1 2.94-1.61 4.42h.26a4.09 4.09 0 0 1 .16-.42c.62-1.55 1.27-3.09 1.86-4.65.12-.33.73-.38.57 0-.61 1.61-1.35 3.18-1.92 4.81a3.38 3.38 0 0 0-.11.34l.53.12c.94-1.46 1.76-3 2.81-4.41.26-.35.66 0 .4.35-1 1.33-1.79 2.81-2.68 4.21l.45.14c.24-.34.46-.68.69-1a34.33 34.33 0 0 0 2.76-3.51c.19-.35.73-.2.51.19a40.54 40.54 0 0 1-3 3.81l-.48.68.56.24c.51-.47 1-1 1.54-1.37.77-.58 1.6-1.1 2.36-1.71a.38.38 0 0 1 .22-.35c1.37-.59 2.48-1.61 3.79-2.31.5-.27 1.07-.54 1.6-.86-.05-.1-.11-.2-.17-.3-.66.37-1.33.73-2 1.14a13.18 13.18 0 0 1-2.76 1.55c-.41.13-.28-.51 0-.61a6.49 6.49 0 0 0 1.57-.73c.46-.3.94-.57 1.41-.85l1.53-.86a5.19 5.19 0 0 1-.2-.41 19.19 19.19 0 0 1-4.71 2.69c-.42.16-.46-.43-.12-.56a18.67 18.67 0 0 0 4.59-2.62c-.14-.3-.27-.6-.41-.92a30.69 30.69 0 0 1-3.61 2.94c-.38.25-.6-.25-.27-.47a31.63 31.63 0 0 0 3.65-3c-.13-.32-.27-.64-.41-1A52.5 52.5 0 0 1 32.49 61c-.31.29-.71-.05-.4-.35a55.37 55.37 0 0 0 4-4.24l-.21-.5a40.78 40.78 0 0 1-2.9 3c-.31.3-.72 0-.4-.34.66-.64 1.33-1.28 2-2-.74.53-1.53 1-2.31 1.47-.31.18-.4-.16-.27-.4-.3.13-.45-.31-.17-.53 1.17-.92 2.21-2 3.3-3-.06-.13-.11-.25-.17-.37a9.17 9.17 0 0 1-2.77 2.39c-.41.2-.44-.4-.12-.56a8.79 8.79 0 0 0 2.64-2.34l-.24-.47a10.85 10.85 0 0 1-2.86 2.3c-.41.2-.44-.41-.12-.57a10.24 10.24 0 0 0 2.72-2.21 5.58 5.58 0 0 0-.32-.52 31.78 31.78 0 0 1-3.19 3.48c-.31.3-.71 0-.4-.35l.07-.07a.26.26 0 0 1 0-.18c.75-1.52 1.42-3.06 2.2-4.56q-.41-.47-.84-.93a40.49 40.49 0 0 0-3 4c-.22.32-.77.17-.51-.2a43 43 0 0 1 3.14-4.21l-.36-.33a21.93 21.93 0 0 1-2.88 2.29c-.37.25-.59-.25-.27-.48A20.2 20.2 0 0 0 30.61 48l-.2-.19a.28.28 0 0 1-.13 0 2.65 2.65 0 0 0-1.21.65c-.36.27-.7.55-1 .85s-.57-.22-.27-.48a7.42 7.42 0 0 1 2.16-1.53l-.5-.46a17.93 17.93 0 0 0-2 1.91c-.3.3-.7 0-.4-.35a22.39 22.39 0 0 1 2-1.92c-.67-.6-1.2-1-1.41-1.22 1 .74 1.74.16 2.59.9l.12.11a21.78 21.78 0 0 1 3-1.31c.41-.13.28.51 0 .62a16 16 0 0 0-2.48 1.08l.51.41a.27.27 0 0 1 .11-.1 26.6 26.6 0 0 1 3-1.57c.42-.16.46.43.12.56a25.29 25.29 0 0 0-2.84 1.45l.61.46a.27.27 0 0 1 .25.19l.15.11a25.55 25.55 0 0 1 3-2.31c.38-.24.61.26.27.47a24.42 24.42 0 0 0-2.79 2.16l.8.59a5.44 5.44 0 0 1 .78-.81 16.11 16.11 0 0 1 1.6-1.26c.37-.25.6.25.27.48a12.93 12.93 0 0 0-1.31 1 4.21 4.21 0 0 0-.93.91l.53.42a10.46 10.46 0 0 1 2-2.23c.36-.26.59.24.27.48a9.38 9.38 0 0 0-1.88 2.09c.26.22.5.45.74.68a16.1 16.1 0 0 1 2.52-2.5c.37-.26.59.24.27.47a15.45 15.45 0 0 0-2.43 2.42l.2.22c.89-.92 1.71-1.91 2.55-2.89.29-.32.69 0 .4.35-.86 1-1.7 2-2.62 3l.17.25.6-.36c.63-.37 1.28-.72 1.93-1.07.39-.22.43.39.11.56-.55.3-1.1.59-1.64.91-.22.12-.47.26-.71.41a7.88 7.88 0 0 1 .38.77 19.69 19.69 0 0 1 2.43-1.66c.4-.21.44.39.12.56A18.68 18.68 0 0 0 38 53.92l.19.5a22.17 22.17 0 0 1 3.11-1.85c.41-.18.45.42.12.57a20.93 20.93 0 0 0-3 1.8 9.28 9.28 0 0 0 .41.88c1.26-.72 2.43-1.59 3.73-2.25.4-.21.43.39.11.56-1.23.63-2.36 1.45-3.56 2.15a4.19 4.19 0 0 0 .43.56 26.6 26.6 0 0 1 3.26-1.71c.43-.15.47.44.12.57a21.51 21.51 0 0 0-3 1.57l.79.82a25.81 25.81 0 0 1 2.69-2.33c.38-.25.6.25.27.47a21.14 21.14 0 0 0-2.58 2.24l.69.7a29.47 29.47 0 0 1 2.42-2.67c.34-.3.56.22.26.47a30 30 0 0 0-2.34 2.57l.75.77a33.62 33.62 0 0 1 1.84-2.84c.26-.35.65 0 .4.35-.69.91-1.26 1.9-1.86 2.88l.2.2.51.54a21 21 0 0 1 1.77-3.81c.21-.33.75-.18.5.19a24.29 24.29 0 0 0-1.86 4l1 1.1a40.75 40.75 0 0 0 1.4-3.92c.11-.34.71-.39.57 0a40.79 40.79 0 0 1-1.58 4.35l.15.17a19.6 19.6 0 0 1 1.63-3.07c.23-.32.77-.17.51.2A20.52 20.52 0 0 0 46.3 64l.93 1a11.07 11.07 0 0 1 1.22-3c.22-.33.75-.19.51.2a11.48 11.48 0 0 0-1.28 3.26c.33.35.66.7 1 1a7.68 7.68 0 0 1 1.56-3.83c.08-.09.25-.19.36-.13a1.26 1.26 0 0 1 .32.29c.22.27-.24.78-.46.52A8.13 8.13 0 0 0 49.19 67l.51.52A26.51 26.51 0 0 1 50.76 64c.17-.37.7-.21.51.2A30.49 30.49 0 0 0 50.1 68l.26.26a30.54 30.54 0 0 1 1-3c.16-.37.69-.21.51.2a27 27 0 0 0-1 3.19 10.91 10.91 0 0 0 1 .82v-3.14c0-.32.51-.53.59-.2 0-.1-.05-.2-.09-.3s.2-.47.41-.45a4.45 4.45 0 0 1-.38-.48c-.19-.27.29-.69.52-.43h.09a20.49 20.49 0 0 0 4.15.17 13.38 13.38 0 0 0-.25-1.54z"/><path class="cls-24" d="M55.18 59.3c-.06-.14-.11-.29-.16-.43-.61.44-1.22.89-1.82 1.35a12.67 12.67 0 0 0 1.98-.92zm1.54 6.89c-.81 0-1.62-.11-2.42-.16a15.65 15.65 0 0 0 2.7 1.64 11.64 11.64 0 0 0 .13-1.47zm.01-.63h.38v-.26a20.5 20.5 0 0 1-3.68-.07l.12.12c1.06.04 2.12.17 3.18.21zM54.48 67a18.86 18.86 0 0 0 2.28 1.64c0-.1.05-.19.07-.29A20.16 20.16 0 0 1 54.48 67zm.44 1.2c.38.59.8 1.17 1.22 1.74a2.84 2.84 0 0 0 .38-.66c-.52-.35-1.09-.7-1.6-1.08zm.23 1.54l.14.26c.08.16.17.33.25.5l.11-.08c-.17-.22-.34-.42-.5-.68zm-.51.46Q54 69 53.41 67.86c.15.91.24 1.83.34 2.75a2.74 2.74 0 0 0 .84.14 1.66 1.66 0 0 0 .32 0zM33.53 51.31c-.18-.25-.38-.51-.59-.76-.54 1.06-1 2.15-1.55 3.22a18.5 18.5 0 0 0 2.14-2.46zm2.02 3.85l-.21-.49c-1 .91-1.93 1.86-3 2.71a20.5 20.5 0 0 0 3.21-2.22zm13.28-28.57l-.18-.45-2.55 1.32a26.3 26.3 0 0 0 2.73-.87zm.09.72h.14a.83.83 0 0 0 0-.15c-.61.23-1.23.44-1.85.63zM17.16 29l.26.45c-.51-1-1-2.06-1.48-3.09l-.22.09c.3.48.6 1 .87 1.46s.41.71.57 1.09zm-5.05 14.68c-.72-.23-1.45-.42-2.18-.62a36.93 36.93 0 0 1-3.73-1.34c0 .4 0 .8-.07 1.2 2.39.49 4.83.8 7.23 1.25a5.5 5.5 0 0 0-1.25-.49zm-3.7 4.58L6.52 48c0 .15.08.31.13.46.59-.05 1.17-.12 1.76-.2zm2.19.3c-1.25.18-2.5.36-3.76.49.06.17.12.33.19.49a43.22 43.22 0 0 0 4.37-.85l-.7-.11zm-3.3 1.55v.09c.93-.16 1.85-.37 2.76-.6-.89.2-1.82.4-2.76.51zm30.18 15.52a25.93 25.93 0 0 0 3.62-1.18c-.32-.38-.62-.74-.91-1.06a12 12 0 0 0-2.71 2.24zm5.2 2.37c-.5-.07-1-.11-1.52-.15 1.32.77 2.58 1.63 3.84 2.5a7.75 7.75 0 0 0-1.09-2.17 7.45 7.45 0 0 1-1.23-.18zm-1.3.81c.8 1 1.61 1.89 2.39 2.86a2.53 2.53 0 0 0 1.07-.57c-1.14-.79-2.28-1.57-3.46-2.29zm-1.47.76c.12.84.22 1.69.27 2.54h.43c-.26-.84-.48-1.69-.7-2.54zM22.05 39.09z"/></g><path class="cls-18" d="M22.73 26.47a11.4 11.4 0 0 0-10 3 13.56 13.56 0 0 0-3.95 5.6c-.59 1.85-.36 3.8-.5 5.7-.26 3.49-1.69 7.26.8 10.36 1.8 2.24 1.87 1.68 2.05 2.67a7.75 7.75 0 0 0 3.47 4.65c2.4 1.47 2.77 3.55 6.23 5.3s5.27.87 7.25 2S36.81 71 41.21 70.2a.78.78 0 0 0 .56-1.3 61.68 61.68 0 0 0-4.58-6.38 9.84 9.84 0 0 1-2.3-4.71c-.49-1.74-2.78-8.3-7.12-11.09z"/><path class="cls-24" d="M27.22 44.52c-1.74-.69-3.51-2.08-5.22-2.08a6 6 0 0 0-5.44 4.11 13 13 0 0 0-.1 6c0 .15-.15.39-.33.31a5.65 5.65 0 0 0-5.53-.08 1.38 1.38 0 0 1 .57 1 6.19 6.19 0 0 0 .89 2.08c1.4-1.79 5.1-1.12 7.91.12a11.65 11.65 0 0 1-.68-6.11c.14-.81.46-2.27 1.36-2.6a2.76 2.76 0 0 1 1.39.15 2.55 2.55 0 0 0 2.41-.42c.07-.07.21-.15.3-.06a3.79 3.79 0 0 0 4.41.82 11 11 0 0 0-1.39-1.08z"/><path class="cls-25" d="M41.77 68.9a61.68 61.68 0 0 0-4.58-6.38 9.84 9.84 0 0 1-2.3-4.71A26.77 26.77 0 0 0 31.14 50a31.79 31.79 0 0 1 1.59 5.25c.4 2.18.49 4.78-1.08 6.56-2 2.2-5 2.2-7.61 1.44A26.7 26.7 0 0 1 16 59.49c1.35 1.34 2.17 2.92 4.87 4.26 3.47 1.74 5.27.87 7.25 2S36.81 71 41.21 70.2a.78.78 0 0 0 .56-1.3z"/><path class="cls-18" d="M12.79 56.84a8.48 8.48 0 0 0 1.55 1.39c-.53-.45-1.05-.91-1.55-1.39z"/><path class="cls-24" d="M11.17 53.78c0 .07 0 .15.05.23a3.72 3.72 0 0 1 1.12-.32 9.41 9.41 0 0 1 1.59-.07 6.3 6.3 0 0 1 1.42.3c.75.22 2.44.89 2.57-.4.16-1.51-.22-3-.09-4.5a6.55 6.55 0 0 1 2-4.2 5 5 0 0 1 3.49-1.59c1.09 0 2.43.43 3.69.56l-4.28-17.32a11.4 11.4 0 0 0-10 3 13.56 13.56 0 0 0-3.95 5.6c-.59 1.85-.36 3.8-.5 5.7-.26 3.49-1.69 7.26.8 10.36 1.84 2.22 1.92 1.66 2.09 2.65z"/><path class="cls-24" d="M17.83 49a6.63 6.63 0 0 1 1.66-3.82 11.52 11.52 0 0 0-2 .84 9.08 9.08 0 0 0-3.74 3.34 9.91 9.91 0 0 0-1.71 4.36l.29-.05a9.41 9.41 0 0 1 1.59-.07 6.3 6.3 0 0 1 1.42.3c.75.22 2.44.89 2.57-.4.17-1.5-.21-2.98-.08-4.5z"/><path class="cls-18" d="M30.19 37.24l-.06 7.87 3.77 2.6c1.8 1.24 4.59 3.72 5 5a8.17 8.17 0 0 0 3.84 5.2c2.72 1.55 2.35 1.74 3.47 3.59s5.76 7.07 7.43 6.94S55 64.13 53 60.47s0-2.35-.83-7.47-2.47-12.2-4.64-14.37a18 18 0 0 0 1-8.21c-.42-5-5.13-11-14.3-7.71a28.5 28.5 0 0 0-4.04 14.53z"/><path class="cls-24" d="M47.53 38.61a12.36 12.36 0 0 0 .64-2.14 8.75 8.75 0 0 0-4.84 1.8 10.81 10.81 0 0 0-2.67 4.07.24.24 0 0 1-.34.12 15.77 15.77 0 0 0-3.53-1.77 11.86 11.86 0 0 0-2-.43 4.12 4.12 0 0 1-3.23 1.9v.06a4.23 4.23 0 0 1 .14 1.62 2.54 2.54 0 0 1-1.05 1.62l1.7 1.17c.25-.51.44-1.05.7-1.57a4.15 4.15 0 0 1 1.33-1.34c.1-.08.28-.08.31.07a14 14 0 0 1 .13 1.44c1.18-1.56 3.18-1.43 4.89-.45a7.58 7.58 0 0 1 2.2 2.1 8.55 8.55 0 0 1 .79-3.11 8 8 0 0 1 2.39-2.9 5.35 5.35 0 0 1 3.17-1.06h.16a5.75 5.75 0 0 0-.89-1.2z"/><path class="cls-25" d="M53 60.47c-2-3.65.06-2.35-.81-7.49-.72-4.3-2-9.93-3.61-12.93.53 4.44 1.64 9 .92 13.41-.27 1.68-.32 3.81-2.14 4.47a6.28 6.28 0 0 1-4.93-.76 20.11 20.11 0 0 1-2.27-1.64 7.44 7.44 0 0 0 2.56 2.34c2.72 1.55 2.35 1.74 3.47 3.59s5.76 7.07 7.43 6.94S55 64.13 53 60.47z"/><path class="cls-24" d="M32.58 44.42c.18-.54.19-1.14.66-1.53.24-.19.56-.27.79-.47a1.16 1.16 0 0 0 .35-1.14c-.16-.6-.73-1-1.17-1.38a3.16 3.16 0 0 1-.63-.73 12.31 12.31 0 0 1-.53-1.17 11.85 11.85 0 0 0-1.15-2.41 9.3 9.3 0 0 0-.59-.81c-.07.79-.12 1.62-.12 2.46l-.06 7.87 1.17.81a2.62 2.62 0 0 0 1.28-1.5zM11.46 35a9.37 9.37 0 0 0 3.6-1.1 15 15 0 0 0 4.25-3.07c.89-.92 2-2.13 2.05-3.5a1.54 1.54 0 0 0-.36-1.05 11.53 11.53 0 0 0-8.23 3.17 18.56 18.56 0 0 0-3.24 3.71 1.94 1.94 0 0 0 .23 1.11 1.79 1.79 0 0 0 1.7.73z"/><path class="cls-24" d="M31.42 38a4.72 4.72 0 0 1 .72 1.18 6.41 6.41 0 0 0 .66 1.46c.51.65 1.25.53 2 .53a3.41 3.41 0 0 1 1.5.49 7 7 0 0 0 1.71.29c.49.09.6.42 1 .68a8.42 8.42 0 0 1 .87.71 9.42 9.42 0 0 0 1.2 1c.62.23.71-1.45.88-1.87a13.5 13.5 0 0 1 1.56-3 3.49 3.49 0 0 1 2.43-1.72 1.53 1.53 0 0 1 .79.14 1.05 1.05 0 0 1 .28.24.85.85 0 0 0 .45.23h.17a18.69 18.69 0 0 0 .88-7.94c-.42-5-5.13-11-14.3-7.71a28.55 28.55 0 0 0-4 14.37 4.17 4.17 0 0 1 1.2.92z"/><path class="cls-24" d="M39.87 38.4a11.25 11.25 0 0 0-5.2 2.6l1.61.68a7 7 0 0 0 1.71.29c.49.09.6.42 1 .68a8.42 8.42 0 0 1 .87.71 9.42 9.42 0 0 0 1.2 1c.62.23.71-1.45.88-1.87a13.5 13.5 0 0 1 1.56-3 4.19 4.19 0 0 1 1.9-1.69 47.51 47.51 0 0 0-5.53.6z"/><path class="cls-20" d="M36.25 41.09a8.94 8.94 0 0 1-2-.84 3.37 3.37 0 0 1-1.2-1.34c-.53-1.06-.88-2.21-1.43-3.26A5.31 5.31 0 0 0 30.39 34c-.11 1-.18 2-.2 3.05a4.17 4.17 0 0 1 1.23.92 4.72 4.72 0 0 1 .72 1.18 6.41 6.41 0 0 0 .66 1.46c.51.65 1.28.5 2 .71.89.28.15 2.7.53 2.3s2.06-1.8 2.6-1.72a6.21 6.21 0 0 0-1.68-.81z"/><path class="cls-12" d="M46.62 13.08a123.33 123.33 0 0 0-14.23.92c-.84.08-4.17 0-4.42 2.38-.2 2 .31 2.57.31 2.57a19.41 19.41 0 0 0-6.93 12 4.68 4.68 0 0 1 5.15-3.43 5 5 0 0 1 4.89 4.35c.06-.12.12-.24.19-.36C32 28.87 33.44 23.61 37 21s7.71 0 9.22 1a1.83 1.83 0 0 0 .45-2.8c-2.39-1.51-8.23-1.72-7.52-1.78s6.56-.12 7-.18 1.59-.22 1.65-2.05-1.18-2.11-1.18-2.11z"/><path class="cls-6" d="M39.14 17.46c-.08 0-.09 0 0 0 .73-.06 6.56-.12 7-.18a1.71 1.71 0 0 0 1.61-1.6c-2.71 0-11.8.16-13.9 1.78-.01-.03 3.94-.15 5.29 0zm-8.85.38a3.17 3.17 0 0 1 2.28-3.91h-.18c-.84.08-4.17 0-4.42 2.38a4.45 4.45 0 0 0 .25 2.48h.05zm16.5 2.93c-4.09-2.29-8.06-3-12.89-1.24-3.48 1.3-5.54 5.71-6.43 8.08a4.91 4.91 0 0 1 3.92 4.22c.06-.12.12-.24.19-.36C32 28.87 33.44 23.61 37 21s7.71 0 9.22 1a1.85 1.85 0 0 0 .84-1.1z"/><path class="cls-24" d="M45.8 29.86c-.93.26-2-.71-2.43-2.18s0-2.86 1-3.12 2 .72 2.42 2.18-.06 2.86-.99 3.12zm.67 6.14c-.89 0-1.62-1-1.62-2.34s.72-2.34 1.62-2.34 1.62 1 1.62 2.34S47.37 36 46.47 36z"/><path class="cls-26" d="M17.82 54.27c-3.93-2.46-6.28-1.23-6.68-1a9.31 9.31 0 0 1 .2 1 4.23 4.23 0 0 0 .34.88c.75-1.44 3.69-1.25 4.68-.87 2.04.72 1.46-.01 1.46-.01zM20.87 46c-3.07.14-2.87 4.71-2.51 6.33.7 3.17-.25 1.89-.25 1.89A8.72 8.72 0 0 1 20 43.61z"/><path class="cls-27" d="M11.36 53.44s2.48-1.3 6.1.81c0 0-4.18-1.36-5.92-.19zm7.93-8.58a8.67 8.67 0 0 0-1.86 6.6 8.46 8.46 0 0 0 .8 2.63S16.62 49 19.32 45.7z"/><path class="cls-26" d="M31.08 45.78a1.49 1.49 0 0 0 .18.34.78.78 0 0 0 .44.24c2.62-3.11 0-3.29 0-3.29 1.12.65.09 1.93-.62 2.71z"/><path class="cls-26" d="M34.5 40.72c-.34.88-.93 2.82-2 1.92 0 0 1 2 3-1.46.01-.35-.67-.59-1-.46z"/><path class="cls-27" d="M31.3 45.76s1.46-1.27 1-2.29a.87.87 0 0 1 .29 1 5.39 5.39 0 0 1-1 1.56zm3.35-4.83s-.59 2-1.43 2.08c0 0 .2.07.75-.37a4 4 0 0 0 1.14-1.74z"/><path class="cls-26" d="M48.24 36.13s-6 1-7.09 8.09c0 0 .25 1.37 1.28-1.94.5-1.59 2.77-4.17 5.28-3.55zm-12.46 5.41s2.49-1 5.12 2.56c0 0 .24 1.16-1-.22-.69-.75-3.66-1.87-4.59-.26-.03 0 0-1.62.47-2.08z"/><path class="cls-27" d="M35.7 42.73a5 5 0 0 1 4.58 1.21A3.33 3.33 0 0 0 38 42.29c-1.8-.4-2.3.44-2.3.44zm11.58-6.01a11.92 11.92 0 0 0-4.77 4.12 11.76 11.76 0 0 0-1 2.94 10.61 10.61 0 0 1 5.36-6.35s.59-.22.65-.43-.24-.28-.24-.28z"/><path class="cls-20" d="M21.85 29.79l-.62 1.49s-1.84 8.11-1.55 14.18a5.82 5.82 0 0 0 5 .21 5 5 0 0 0 2.35 1.24 11.23 11.23 0 0 0 3.3-.08A100.73 100.73 0 0 1 31.3 33a6.84 6.84 0 0 0-2.66-5.15C26 26 21.85 29.79 21.85 29.79z"/><path class="cls-18" d="M20.22 44.37s-.25.74.68.93 3 .06 3.59-.62.25 0 1.36.74S29.89 46 30 45s-1.06-2.59.8-13.86a5.56 5.56 0 0 0-2.17-3.29c-2.41-1.73-5.53.17-6.2.75a82 82 0 0 0-2.21 15.77z"/><g class="cls-10"><path class="cls-19" d="M30.81 31.18a5.56 5.56 0 0 0-2.17-3.29l-.11-.07a54.42 54.42 0 0 0-2.1 17.87c1.32.42 3.48.2 3.58-.65s-1.01-2.59.8-13.86z"/></g><path class="cls-24" d="M30.91 30.81c-.22 1.15-2.33 1.71-4.72 1.26s-4.14-1.77-3.92-2.92S24.6 27.44 27 27.9s4.13 1.76 3.91 2.91z"/><path class="cls-20" d="M21.33 31.05A5.53 5.53 0 0 1 26.81 28c4 .35 4.41 5.34 4.41 5.34l.64-3a5.44 5.44 0 0 0-4.81-3.39c-2.77-.18-4.54.76-5.35 2.27a7.27 7.27 0 0 0-.37 1.83z"/><path class="cls-26" d="M20.09 44s4.39 1.83 4.42-.58c0 0 1.55 3.36-4.37 1.9z"/><path class="cls-26" d="M30 45s-5.29 1.41-4.67-1.56c0 0-2.11 3.69 4.7 3z"/><path class="cls-27" d="M20.37 44.4s3.13 1.3 4.15-.22c0 0 0 .78-1.27 1a7.85 7.85 0 0 1-2.88-.24zm4.83.13s.16.83 1.77 1a8.14 8.14 0 0 0 2.94-.28v.43s-4.46 1.23-4.71-1.15z"/><path class="cls-28" d="M6.59 51.87a16 16 0 0 0 5 10.56c5 4.88 15.18 9.63 19.61 10.37.54.08-23.54-7.72-24.61-20.93z"/><path d="M50.5 28.2s2 5.33.37 8.68c0 0 7.31 7.06 6.88 17.15 0 0 5.08 13.57-1.12 19.14a15.91 15.91 0 0 0 1.92-12.51c-1.79-7.43-2-5.51-1.73-7.74s-1.73-10.47-6.13-14.68c0 0-1.36-1.18-.56-2s1.49-5.19.37-8.04z" style="mix-blend-mode:multiply" opacity=".3" fill="#c04148"/><path class="cls-28" d="M34.71 52.3a23.28 23.28 0 0 1 2.23 4.77c.8 2.54 1.24 3.65 2.85 5.26s5.76 6.88 5.7 8.42-3 1.62-3 1.62c.19.06 3 .43 3.78-.62s-.72-3-2.48-5.46-5-5.33-5.7-7.3c-.97-2.54-2.27-5.89-3.38-6.69z"/><path class="cls-30" d="M21.74 29.69s1.12-3.3 6.4-2.44c0 0-4.54-.7-6.4 2.44z"/><path class="cls-7" d="M12 25.41a4.24 4.24 0 0 0 .16-2.19c-.1-.48-.21-1.09-.3-1.76a9.78 9.78 0 0 1-.17-1.62 14.33 14.33 0 0 1 .31-4.46c.71-2.63 2.22-3.8 1.79-5.26a5.22 5.22 0 0 0-1.15-2 3.85 3.85 0 0 1 .2 3.51 13.62 13.62 0 0 0-1.65 8c.33 2.52 1.01 4.37.81 5.78z"/><path class="cls-4" d="M18.85 16.77s0-2.28 3.1-4.63 3.43-1.82 3.39-4.14-.09-6.48-.09-6.48 1.19 7.24.17 8.53c-1.9 2.4-5.04 2.71-6.57 6.72zM31 .87s.25 5.37-1 6.56-2.11.62-2.11.62A2 2 0 0 0 30.75 7C31.78 4.73 31 .87 31 .87zm5.28.04a14.4 14.4 0 0 0-1.41 5s-.41 2.89-2 2.56c0 0 1.36.74 2.07-1s.39-4.99 1.34-6.56z"/><path class="cls-30" d="M20 23.37s1-4 6.47-4.33A8 8 0 0 0 20 23.37z"/><path d="M22.38 30.87a105.51 105.51 0 0 0-1.61 12.76s1 .48 1-.5c.11-3 1.37-11.58 1.37-11.58z" style="mix-blend-mode:screen" fill="#c04148"/><path class="cls-7" d="M22.69 27.38s2.89-9.17 11.73-9.75c0 0 7.26-.61 12.15 1.81 0 0-8.31-2.59-14.63-.65s-9.25 8.59-9.25 8.59zm8.12-11.87s.43-1.18 2.41-1.43a127.58 127.58 0 0 1 13.38-.8s-13.81 1.08-15.79 2.23z"/></g></g></svg>