<svg xmlns="http://www.w3.org/2000/svg" viewBox="0 0 25.96 30.95">*{filter:url(#colorMeSaturate)}<g data-name="Слой 1"><path d="M20.36 5.46a6.59 6.59 0 0 0-1.36.21 5.2 5.2 0 0 0-1.38.56 6.12 6.12 0 0 0-1.39 1.19c-.09.1-.21.26-.33.3h-.27s-.47-.06-.66-1L14.72 0l-2 .05.21 6.95a4.78 4.78 0 0 0 1.2 3.14 1.21 1.21 0 0 0 .33.31 1.39 1.39 0 0 1 .54 1.18 4.69 4.69 0 0 1-3.63 4.63C7.22 17.25.78 18.17.09 23.47a5.42 5.42 0 0 0 1.09 4.28c1.25 1.42 3.58 1.88 5.4 1.84h.17a18.75 18.75 0 0 0 3.72-.68c.88-.21 2.09-.62 2.91 0 .56.42.51 1.26.4 1.9v.14c1.19-.06 2.37-.18 3.55-.27.66-.2.06-1.91-.08-2.27a3.43 3.43 0 0 0-1.45-2 6.08 6.08 0 0 0-4.41-.58c-1.53.29-2.93 1.12-4.51 1.21a3.53 3.53 0 0 1-2.39-.78 1.06 1.06 0 0 1-.4-.84 1 1 0 0 0-.34-.8l-.2-.13C4 24.2 4 23.23 4 22.87a2 2 0 0 0 1.36.43c1.27.05 1.16-1.08 1.32-.56.4 1.31 2.56 1.8 3.71 2a14.42 14.42 0 0 0 10.21-2.45 11.33 11.33 0 0 0 3.9-4.4c1.26-2.67 2.09-6.37.67-9.13a5.82 5.82 0 0 0-3.61-3.17 5.15 5.15 0 0 0-1.2-.13z" fill="#f4b6b0"/><path d="M13.71 31v-.14c.1-.6.18-1.45-.39-1.86a1.76 1.76 0 0 0-1.15-.3 6.79 6.79 0 0 0-1.43.25l-.3.08-.43.1a15.86 15.86 0 0 1-3.29.58h-.13a9.93 9.93 0 0 1-2.93-.38 5.29 5.29 0 0 1-2.5-1.47 5.48 5.48 0 0 1-1.1-4.31 6.37 6.37 0 0 1 3.76-4.94 25.7 25.7 0 0 1 6.34-2l1.19-.27A4.82 4.82 0 0 0 14 14.57a4.46 4.46 0 0 0 1-2.94 1.39 1.39 0 0 0-.5-1.19 1.42 1.42 0 0 1-.35-.31A4.87 4.87 0 0 1 12.89 7L12.66.05h2.09L15 6.77c.18.86.63.93.64.93h.25a1.1 1.1 0 0 0 .26-.23l.05-.07a6.33 6.33 0 0 1 1.4-1.19 5.65 5.65 0 0 1 1.4-.57 7 7 0 0 1 1.36-.21 5 5 0 0 1 1.22.12 6 6 0 0 1 3.63 3.18 8 8 0 0 1 .68 4.62 15 15 0 0 1-1.34 4.54 11.28 11.28 0 0 1-3.92 4.41 14.87 14.87 0 0 1-7.79 2.61 12.17 12.17 0 0 1-2.43-.15c-2.18-.36-3.44-1-3.74-2v-.11a.35.35 0 0 0-.06.09 1.13 1.13 0 0 1-1.05.61h-.19A2.13 2.13 0 0 1 4 22.94v.25c0 .43-.06 1.07-.44 1.31l.16.1a1.06 1.06 0 0 1 .35.83 1 1 0 0 0 .39.82 3.46 3.46 0 0 0 2.39.75 9.34 9.34 0 0 0 2.61-.65 12.1 12.1 0 0 1 1.89-.56 8.31 8.31 0 0 1 1.36-.15 5.27 5.27 0 0 1 3.07.73 3 3 0 0 1 .92.85 5.41 5.41 0 0 1 .55 1.13c.06.16.58 1.53.31 2.09a.41.41 0 0 1-.25.22l-1.16.1c-.79.06-1.6.13-2.4.17zm-1.51-2.46a1.84 1.84 0 0 1 1.19.32c.6.43.52 1.31.42 1.92a.43.43 0 0 0 0 .11l2.35-.17 1.16-.1a.35.35 0 0 0 .2-.18c.26-.54-.25-1.9-.31-2.05a3.35 3.35 0 0 0-1.44-1.95 5.27 5.27 0 0 0-3-.73 9.51 9.51 0 0 0-1.35.16 12.31 12.31 0 0 0-1.88.56 9.75 9.75 0 0 1-2.63.65 3.54 3.54 0 0 1-2.41-.79 1.09 1.09 0 0 1-.5-.85 1 1 0 0 0-.33-.79.72.72 0 0 0-.19-.12h.07c.35-.21.39-.85.42-1.28v-.37a2 2 0 0 0 1.34.42h.14a1.08 1.08 0 0 0 1-.58c0-.08.07-.12.1-.12s.07.05.11.16c.29.93 1.56 1.61 3.69 2a12.07 12.07 0 0 0 2.42.15 14.79 14.79 0 0 0 7.76-2.6 11.26 11.26 0 0 0 3.89-4.38c.6-1.28 2.42-5.7.67-9.11a5.7 5.7 0 0 0-3.59-3.15 4.92 4.92 0 0 0-1.21-.12A6.18 6.18 0 0 0 19 5.7a5.06 5.06 0 0 0-1.38.56 6.21 6.21 0 0 0-1.38 1.19l-.06.06a.9.9 0 0 1-.28.24.51.51 0 0 1-.17 0h-.15c-.12 0-.49-.21-.65-1L14.69.06l-2 .05L13 7a4.81 4.81 0 0 0 1.19 3.12 1.15 1.15 0 0 0 .33.3 1.41 1.41 0 0 1 .48 1.2 4.54 4.54 0 0 1-1 3 4.75 4.75 0 0 1-2.65 1.69l-1.19.28a25.74 25.74 0 0 0-6.33 2 6.29 6.29 0 0 0-3.72 4.9 5.42 5.42 0 0 0 1.09 4.24 5.21 5.21 0 0 0 2.48 1.46 9.78 9.78 0 0 0 2.9.37h.17A16.54 16.54 0 0 0 10 29l.43-.11.3-.07a6.7 6.7 0 0 1 1.47-.28z" fill="#bc546a"/><path d="M25.19 8.75a5.82 5.82 0 0 0-3.61-3.17 5.15 5.15 0 0 0-1.22-.12 6.59 6.59 0 0 0-1.36.21 5.2 5.2 0 0 0-1.38.56 6.12 6.12 0 0 0-1.39 1.19c-.09.1-.21.26-.33.3h-.27s-.47-.06-.66-1L14.72 0 14 .05l.23 6.69a1.76 1.76 0 0 0 .68 1.35.84.84 0 0 1 .3.73c-.13.39-1.4 1.18-2.28-1.82a4.78 4.78 0 0 0 1.2 3.14 1.21 1.21 0 0 0 .33.31 1.39 1.39 0 0 1 .54 1.18 4.55 4.55 0 0 1-.9 2.83 4 4 0 0 0 1.26-2.07c.35-1.44.05-4.23 3.18-4.86s5.29 3.45 3.34 8.36a10.49 10.49 0 0 1-5.47 5.22c-4.24 1.94-9.33.62-9.42-1.58s2.37-2.79 2.68-2.85l.13-.06c-2.84.64-6.19 1.47-8.14 3.53a6.88 6.88 0 0 1 3.03-1.75c1.62-.12 1.81 2.72.73 3.27s-2.5-.78-2.53-.92.85 3.79-2 4.25c.29 0 1.44-.14 1.82.84a4.51 4.51 0 0 0 5.51 2s-1.3.45-1.64 1.05a2.62 2.62 0 0 0-2.41-.46s-.56-1.3-3.17-1a2.39 2.39 0 0 0 .21.26c1.25 1.42 3.58 1.88 5.4 1.84h.17a18.75 18.75 0 0 0 3.72-.68c.88-.21 2.09-.62 2.91 0 .56.42.51 1.26.4 1.9v.14c1.19-.06 2.37-.18 3.55-.27.66-.2.06-1.91-.08-2.27a3.43 3.43 0 0 0-1.45-2 6.08 6.08 0 0 0-4.41-.58c-1.53.29-2.93 1.12-4.51 1.21a3.53 3.53 0 0 1-2.39-.78 1.06 1.06 0 0 1-.4-.84 1 1 0 0 0-.34-.8l-.2-.13c.42-.23.42-1.2.42-1.56a2 2 0 0 0 1.36.43c1.27.05 1.16-1.08 1.32-.56.4 1.31 2.56 1.8 3.71 2a14.42 14.42 0 0 0 10.21-2.45 11.33 11.33 0 0 0 3.9-4.4c1.28-2.68 2.11-6.38.69-9.14z" style="mix-blend-mode:multiply" opacity=".8" fill="#f4b6b0"/><path d="M12.88.24l.22 6.35a3.72 3.72 0 0 0 1 2.15 5.31 5.31 0 0 1-.81-2.44L13.07.23zm4.53 8.04s-1.16.32-1.64 2.85-1.29 5.22-6.14 5.69a5.88 5.88 0 0 0 3.85-1 5.79 5.79 0 0 0 1.7-2c.96-2.11.66-4.15 2.23-5.54zM3.19 19.16s-4.6 3.12-2.2 8c.01.01-2.21-4.06 2.2-8z" style="mix-blend-mode:screen" fill="#f4b6b0"/><path d="M11.64 27.69S9 27 8 29.08c-.06.14-.13.27-.19.41a27.2 27.2 0 0 0 2.68-.58c.88-.21 2.09-.62 2.91 0 .56.42.51 1.26.4 1.9v.14c1.19-.06 2.37-.18 3.55-.27.66-.2.06-1.91-.08-2.27a3.43 3.43 0 0 0-1.45-2 4.93 4.93 0 0 0-2.28-.72 2.2 2.2 0 0 0-.47 1s-1.21.21-1.43 1z" style="mix-blend-mode:multiply" fill="#f4b6b0" opacity=".2"/></g></svg>