<svg xmlns="http://www.w3.org/2000/svg" viewBox="0 0 9.47 15.38"><defs><filter id="colorMeSaturate"><feColorMatrix in="a1" type="saturate" values="0"/></filter><style>*{filter:url(#colorMeSaturate)}.cls-3{fill:#6d101c}.cls-4{fill:#af2c38;opacity:.5;mix-blend-mode:multiply}</style></defs><g style="isolation:isolate"><g id="Слой_1" data-name="Слой 1"><path d="M8.64 5.16a10.68 10.68 0 0 0-1.94-4 3.45 3.45 0 0 0-5-.12A5.27 5.27 0 0 0 .12 6.11c.28 1.53 1.44 2.4 2.56 3.46C4 10.86 3.61 13.66 5 14.88c1.65 1.41 3-.56 3.7-1.88a8.93 8.93 0 0 0 .32-6.22Q8.86 6 8.64 5.16z" fill="#952c38"/><path class="cls-3" d="M6.19 15.38A1.77 1.77 0 0 1 5 14.89a4.89 4.89 0 0 1-1.22-2.7 5.11 5.11 0 0 0-1.11-2.61l-.46-.43a5.54 5.54 0 0 1-2.1-3A5.28 5.28 0 0 1 1.73 1a4.1 4.1 0 0 1 2.58-1 3.12 3.12 0 0 1 2.4 1.11 10.42 10.42 0 0 1 1.94 4c.16.56.29 1.11.42 1.63.62 2.58.52 4.62-.32 6.23-.57 1.12-1.47 2.41-2.56 2.41zM4.31 0a4.05 4.05 0 0 0-2.56 1A5.23 5.23 0 0 0 .13 6.11a5.55 5.55 0 0 0 2.1 3l.46.43a5.14 5.14 0 0 1 1.14 2.63A4.92 4.92 0 0 0 5 14.87a1.79 1.79 0 0 0 1.15.49c1.08 0 2-1.29 2.54-2.36.83-1.61.94-3.64.31-6.21-.12-.52-.26-1.08-.41-1.63a10.43 10.43 0 0 0-1.94-4A3.08 3.08 0 0 0 4.31 0z"/><path class="cls-4" d="M9 6.46L7.94 7a12.33 12.33 0 0 1-.12 4.77 1.7 1.7 0 0 1-2.8.87 4.11 4.11 0 0 1-.93-2.41 4.18 4.18 0 0 0-1.71-3.17A4.18 4.18 0 0 1 .54 4.3a5.59 5.59 0 0 1 .22-2.17 5.68 5.68 0 0 0-.64 4C.4 7.64 1.56 8.51 2.68 9.57 4 10.86 3.61 13.66 5 14.88c1.65 1.41 3-.56 3.7-1.88a8.93 8.93 0 0 0 .32-6.22z"/><path d="M9.06 6.78q-.2-.8-.42-1.62a10.68 10.68 0 0 0-1.94-4 3.45 3.45 0 0 0-5-.12l-.15.13a1.34 1.34 0 0 1 1.3.37 2 2 0 0 1 .59 1.11A4.11 4.11 0 0 0 4.84 5C6 6.3 6.59 8.22 7.3 9.74a5.59 5.59 0 0 1 .61 3.49A5.35 5.35 0 0 1 7.24 15a6.08 6.08 0 0 0 1.5-2 8.93 8.93 0 0 0 .32-6.22z" fill="#af2c38"/><path class="cls-3" d="M7.24 15a5.58 5.58 0 0 0 .67-1.74 5.47 5.47 0 0 0-.61-3.48c-.18-.39-.35-.8-.53-1.23a11.92 11.92 0 0 0-1.94-3.5 4.18 4.18 0 0 1-1.36-2.44 2.09 2.09 0 0 0-.59-1.11 1.23 1.23 0 0 0-.94-.39H1.6L1.73 1a4.1 4.1 0 0 1 2.58-1 3.12 3.12 0 0 1 2.4 1.11 10.42 10.42 0 0 1 1.94 4c.16.56.29 1.11.42 1.63.62 2.58.52 4.62-.32 6.23a5.78 5.78 0 0 1-1.51 2zM1.94 1.09a1.22 1.22 0 0 1 1 .4 2.17 2.17 0 0 1 .6 1.12A4.06 4.06 0 0 0 4.85 5a11.87 11.87 0 0 1 1.93 3.51c.18.43.35.84.53 1.23a5.49 5.49 0 0 1 .61 3.49 5.25 5.25 0 0 1-.64 1.69A6 6 0 0 0 8.73 13c.83-1.61.94-3.64.31-6.21-.12-.52-.26-1.08-.41-1.63a10.43 10.43 0 0 0-1.94-4A3.08 3.08 0 0 0 4.31 0a4.05 4.05 0 0 0-2.56 1l-.11.09z"/><path class="cls-4" d="M7.92 9C7 7.41 5.88 6 4.8 4.54a8.94 8.94 0 0 1-1-2.21c-.35-.81-.8-1.06-1.24-1.08a1.11 1.11 0 0 1 .33.25 2 2 0 0 1 .59 1.11A4.11 4.11 0 0 0 4.84 5C6 6.3 6.59 8.22 7.3 9.74a5.59 5.59 0 0 1 .61 3.49A5.35 5.35 0 0 1 7.24 15a6.08 6.08 0 0 0 1.5-2 7.27 7.27 0 0 0 .69-3.87c-.32.68-.8.94-1.51-.13z"/><path d="M6.55 5.84A12.06 12.06 0 0 1 5 3.71C4.42 2.64 4.22 1 2.83.77c0 0-.08.06 0 .07C4.17 1.22 4.38 3.33 5 4.42A7.74 7.74 0 0 0 6 5.6a9.35 9.35 0 0 1 1.39 2s.1 0 .08-.06a7.16 7.16 0 0 0-.92-1.7z" fill="#f5b8b1" opacity=".4"/></g></g></svg>