<svg xmlns="http://www.w3.org/2000/svg" viewBox="0 0 28.97 57.28"><defs><filter id="colorMeSaturate"><feColorMatrix in="a1" type="saturate" values="0"/></filter><style>*{filter:url(#colorMeSaturate)}.cls-2,.cls-4{fill:#ea9553}.cls-3{fill:#f07f33}.cls-4{opacity:.8}.cls-21,.cls-4,.cls-6{mix-blend-mode:multiply}.cls-5{fill:#fff;opacity:.7}.cls-22,.cls-5{mix-blend-mode:screen}.cls-7{fill:#a368d4}.cls-8{fill:#d9002c}.cls-9{fill:#7a001d}.cls-11{fill:#118cd5}.cls-12{fill:#0b5b9e}.cls-19{fill:#6d101c}.cls-20,.cls-21{fill:#cf2c38}.cls-22{fill:#ec2c38}</style></defs><g style="isolation:isolate"><g id="Слой_1" data-name="Слой 1"><path class="cls-2" d="M22.31 11.42A12.57 12.57 0 0 0 18.12 19c-.56 4.66.73 9.73 2.26 14.64s6.44 11.43.48 13.69V48s3.4-.87 3.94-3.94-2-6.7-3.38-10-5-15.94.67-20.53z"/><path class="cls-3" d="M20.86 48.1a.08.08 0 0 1 0-.05v-.72a.07.07 0 0 1 0-.06 4.1 4.1 0 0 0 2.54-2.17c.88-2.09-.4-5-1.64-7.87a34.81 34.81 0 0 1-1.42-3.57c-1.51-4.84-2.82-10-2.26-14.67a12.74 12.74 0 0 1 4.21-7.61h.07a.06.06 0 0 1 0 .06l-.22 2.13c-3 2.44-3.25 7.16-2.94 10.69a36.71 36.71 0 0 0 2.29 9.76c.36.87.81 1.78 1.25 2.66 1.25 2.51 2.54 5.11 2.13 7.4-.54 3.08-3.95 4-4 4zm.06-.74V48c.5-.15 3.34-1.12 3.82-3.87.4-2.26-.88-4.84-2.12-7.33-.44-.88-.89-1.79-1.25-2.66a37 37 0 0 1-2.3-9.81C18.76 20.75 19 16 22 13.52l.2-2A12.59 12.59 0 0 0 18.18 19c-.56 4.69.75 9.8 2.26 14.63a33.07 33.07 0 0 0 1.41 3.55c1.25 2.87 2.54 5.83 1.64 8a4.18 4.18 0 0 1-2.57 2.18z"/><path class="cls-4" d="M21.42 34.08c-1.39-3.32-5-15.94.67-20.53l.22-2.13a13 13 0 0 0-2.77 3.39c.29-.16.6-.26.8-.13a14.18 14.18 0 0 0-1.93 7.2c-.16 4.67 2.58 12.64 3.22 14s4.07 8 1.77 9.49l-.14.09a4.41 4.41 0 0 1-2.4 1.85V48s3.4-.87 3.94-3.94-1.99-6.66-3.38-9.98z"/><path class="cls-5" d="M19.1 16a18.59 18.59 0 0 0-.65 9.78s-.68-5.59.65-9.78zm2.65 20.89s2.82 5.88 1.85 8c0 0 1-1.41-.2-4.47a16.1 16.1 0 0 0-1.65-3.53z"/><path class="cls-2" d="M6.66 11.42A12.57 12.57 0 0 1 10.85 19c.56 4.66-.73 9.73-2.26 14.64s-6.44 11.42-.48 13.68V48s-3.4-.87-3.95-3.94 2-6.7 3.39-10 4.94-15.94-.67-20.53z"/><path class="cls-3" d="M8.11 48.1s-3.44-.91-4-4c-.41-2.29.88-4.89 2.13-7.4.44-.88.89-1.79 1.25-2.66a36.71 36.71 0 0 0 2.29-9.76c.31-3.53.05-8.25-2.94-10.69l-.24-2.16a.06.06 0 0 1 0-.06h.1A12.74 12.74 0 0 1 10.91 19c.56 4.7-.75 9.83-2.26 14.67a34.81 34.81 0 0 1-1.42 3.57C6 40.06 4.71 43 5.59 45.09a4.07 4.07 0 0 0 2.54 2.17.07.07 0 0 1 0 .06V48a.08.08 0 0 1 0 .05zM6.94 13.52c3 2.48 3.27 7.23 3 10.77A37 37 0 0 1 7.6 34.1c-.36.87-.82 1.78-1.25 2.66-1.24 2.49-2.52 5.07-2.12 7.33.48 2.75 3.32 3.72 3.82 3.87v-.6a4.18 4.18 0 0 1-2.57-2.23c-.9-2.13.39-5.09 1.64-8a35.3 35.3 0 0 0 1.41-3.55c1.47-4.79 2.82-9.9 2.26-14.58a12.59 12.59 0 0 0-4-7.43z"/><path class="cls-4" d="M6.66 11.42l.22 2.13a7 7 0 0 1 1.42 1.6.2.2 0 0 1 .25-.15c.61.12 1.89 2.17 1.89 7.29a27.53 27.53 0 0 1-2.37 11.34c-1.17 2.82-3.86 7.45-3.18 10.55a4.15 4.15 0 0 0 .4 1.16.52.52 0 0 1-.2.77 6.39 6.39 0 0 0 3 1.93v-.72c-6-2.26-1-8.78.48-13.69s2.82-10 2.26-14.64a12.57 12.57 0 0 0-4.17-7.57z"/><path class="cls-5" d="M5.43 38.81s-1.72 3.69-1.08 5.56A5.25 5.25 0 0 0 5 45.54s-1.53-1.96.43-6.73zM8.9 16s2.1 3 .91 10l-.94 5a41.67 41.67 0 0 0 1.45-8.24C10.53 18.17 8.9 16 8.9 16z"/><g class="cls-6"><path class="cls-7" d="M10.29 11.39l.52-.11a2.71 2.71 0 0 0-.52.11z"/></g><path class="cls-8" d="M19.59 11.26A7.27 7.27 0 0 0 23 9.81l-1.15-.48a5.36 5.36 0 0 1-4.47.87 2.82 2.82 0 0 1-1.13-.64V.35h-2.14v8.89c-.69 1.09-2.37 1.48-4.07 1.47A5.7 5.7 0 0 1 6.5 9.5v.87s1 1.22 4.27.91a12.9 12.9 0 0 0-5.2 2.64l.17.69s3.74-2.86 6.84-3a6.89 6.89 0 0 1 1.48-.1v7.88c0 .15.51.27 1.09.27s1.08-.13 1.08-.29v-8a7.68 7.68 0 0 1 2.55 1 12.17 12.17 0 0 1 4.43 4.06l.87-.41a11.74 11.74 0 0 0-4.49-4.76z"/><path class="cls-9" d="M15.2 19.74c-.49 0-1-.09-1.14-.29v-7.86a7.17 7.17 0 0 0-1.41.1 11.25 11.25 0 0 0-4.57 1.53 20.3 20.3 0 0 0-2.25 1.44h-.08a.09.09 0 0 1 0-.05l-.16-.68a.07.07 0 0 1 0-.06 14 14 0 0 1 4.51-2.49h-.31c-2.46 0-3.26-.94-3.3-1v-.87a.07.07 0 0 1 0-.06h.06a5.75 5.75 0 0 0 3.45 1.2h.07c1.13 0 3.15-.19 3.94-1.43V.35a.06.06 0 0 1 .06-.06h2.17v9.25a2.76 2.76 0 0 0 1.09.6 4.2 4.2 0 0 0 1.27.19 5.66 5.66 0 0 0 3.14-1.05.07.07 0 0 1 .06 0l1.15.48a.1.1 0 0 1 0 .05 7 7 0 0 1-3.32 1.44 14.41 14.41 0 0 1 3.48 3.13 7.66 7.66 0 0 1 .95 1.52.06.06 0 0 1 0 .08l-.86.41a.05.05 0 0 1-.08 0 12.23 12.23 0 0 0-4.41-4 8 8 0 0 0-2.46-1v8a.09.09 0 0 1 0 .05c.09.18-.48.3-1.05.3zm-1-.36c0 .09.4.23 1 .23.66 0 1-.15 1-.23v-8h.05a7.78 7.78 0 0 1 2.57 1 12.71 12.71 0 0 1 4.42 4l.77-.36a12 12 0 0 0-4.49-4.63v-.06a.05.05 0 0 1 0-.05 7.36 7.36 0 0 0 3.34-1.37l-1-.43a5.85 5.85 0 0 1-3.19 1 4.4 4.4 0 0 1-1.3-.19 2.82 2.82 0 0 1-1.16-.65V.41h-2v8.86c-.81 1.3-2.89 1.5-4.05 1.5H10a6 6 0 0 1-3.43-1.13v.71c.11.12 1 .92 3.19.92a8.86 8.86 0 0 0 1 0 .07.07 0 0 1 .07.06.06.06 0 0 1-.06.06A12.71 12.71 0 0 0 5.68 14l.13.56A20.08 20.08 0 0 1 8 13.11a11.34 11.34 0 0 1 4.61-1.54 7.09 7.09 0 0 1 1.5-.1.06.06 0 0 1 .05.06z"/><path class="cls-5" d="M14.7 1.75v16.87a11.39 11.39 0 0 0 .21-1.78c0-.72-.24-15.09-.21-15.09z"/><g class="cls-6"><path class="cls-7" d="M10.8 11.28h-.01.01zm-4.27-1.1v.19s1 1.22 4.26.91l.93-.3c-3.04.44-4.63-.4-5.19-.8zm4.26 1.1l-.45.1.34-.06zm-1.39.8a16.71 16.71 0 0 0-3.72 2.12l.1.41s3.74-2.86 6.84-3a6.89 6.89 0 0 1 1.48-.1c.14-.75-2.33-.39-4.7.57z"/></g><path d="M18.89 11.42c0-.2.56-.18.73-.17A7.1 7.1 0 0 0 23 9.81l-.6-.25a9.31 9.31 0 0 1-2.15 1.1 4.64 4.64 0 0 1-3.6-.27.72.72 0 0 1-.4-.83V.35h-2.14v1.28c.1-.25.25-.46.46-.43a.57.57 0 0 1 .78.52v16.62a1 1 0 0 1-1.11.81h-.14v.27c0 .15.51.27 1.09.27s1.08-.13 1.08-.29v-8a7.68 7.68 0 0 1 2.55 1 12.17 12.17 0 0 1 4.43 4.06l.41-.19c-2.1-3.55-4.81-4.61-4.77-4.85z" style="mix-blend-mode:multiply" fill="#a368d4"/><path class="cls-5" d="M7.53 10.34a7.22 7.22 0 0 0 6.41-.51A5.94 5.94 0 0 1 10.31 11a6.15 6.15 0 0 1-2.78-.66zm-1.36 3.33a18.31 18.31 0 0 1 4.92-2.32 14.43 14.43 0 0 0-4.92 2.32zm11.31-3.18a6.47 6.47 0 0 0 4.49-1 5.08 5.08 0 0 1-4.49 1zm2.59 1.33a11.27 11.27 0 0 1 3.71 3.95 14.49 14.49 0 0 0-3.71-3.95z"/><path class="cls-11" d="M22.94 15.66l-.15-1.14a21.16 21.16 0 0 0-3.87-3.38s2.47-.56 3.25-1.56-.1-1.08-.1-1.08a5.61 5.61 0 0 1-4 1.62 6.44 6.44 0 0 1-3.63-1.58v-7.1h-2.18v9a3.72 3.72 0 0 1-2.68 1.42 4.35 4.35 0 0 1-3.11-1.24s-.68.07-.08.83a5.14 5.14 0 0 0 2.16 1.2A11.13 11.13 0 0 0 6 15l.24.67c2.07-3 5.23-3.08 6.06-3.28v8.13c0 .16.51.27 1.08.27s1.09-.13 1.09-.29V10.17c.67.32 5.62 1.41 8.47 5.49z"/><path class="cls-12" d="M13.35 20.83c-.48 0-1-.1-1.13-.29a.08.08 0 0 1 0-.05v-8l-.37.06a7.89 7.89 0 0 0-5.58 3.17h-.06L5.89 15a.07.07 0 0 1 0-.06 12 12 0 0 1 2.49-2.3 4.72 4.72 0 0 1-2.06-1.17c-.23-.29-.31-.53-.23-.7a.42.42 0 0 1 .35-.22 4.4 4.4 0 0 0 2.8 1.23h.26a3.6 3.6 0 0 0 2.63-1.39V1.44a.06.06 0 0 1 .06-.06h2.17v7.13l.2.15a6.06 6.06 0 0 0 3.37 1.4h.34A5.68 5.68 0 0 0 22 8.46h.05a.54.54 0 0 1 .44.28c.1.21 0 .51-.29.89a6.92 6.92 0 0 1-3.14 1.54 21.69 21.69 0 0 1 3.75 3.32l.19 1.17a.05.05 0 0 1 0 .06.06.06 0 0 1-.07 0c-2.44-3.49-6.44-4.79-8-5.29l-.45-.15v10.15c.01.27-.57.4-1.13.4zm-1-.37s.4.22 1 .23c.66 0 1-.16 1-.24V10.17a.08.08 0 0 1 0-.05h.06l.53.18c1.49.48 5.4 1.76 7.87 5.13l-.12-.88a20.75 20.75 0 0 0-3.84-3.36v-.11s2.46-.57 3.22-1.54c.26-.33.36-.59.29-.76a.43.43 0 0 0-.32-.21 5.83 5.83 0 0 1-3.69 1.62H18a6.25 6.25 0 0 1-3.43-1.42l-.23-.17a.08.08 0 0 1 0-.05v-7h-2v8.91a3.8 3.8 0 0 1-2.73 1.45H9.3a4.48 4.48 0 0 1-2.86-1.24.31.31 0 0 0-.23.15c-.06.13 0 .32.22.57a5.1 5.1 0 0 0 2.13 1.18.07.07 0 0 1 0 .06A11.23 11.23 0 0 0 6 15l.19.53a8.07 8.07 0 0 1 5.61-3.13l.43-.08z"/><path d="M6.13 10.94a1.15 1.15 0 0 0 .25.48 5.14 5.14 0 0 0 2.16 1.2l.39-.4a7.34 7.34 0 0 1-2.8-1.28zm12.32.3c-.22-.16.47-.1.47-.1s2.47-.56 3.25-1.56.1-1-.06-1.07c-.24.39-.62 1-.66 1a8.14 8.14 0 0 1-2.68 1 11.69 11.69 0 0 1-4.1-1.18c-.38-.26-.24-.87-.24-.87V1.44h-2.17v2.07c0-.17.16-1.22.66-1.22s.69.76.72 1.85v13.28s.15 2.29-1.39 2.17v.9c0 .16.51.27 1.08.27s1.09-.13 1.09-.29v-10.3c.71.32 5.66 1.41 8.51 5.49l-.08-.55a18.54 18.54 0 0 0-4.4-3.87zM8.57 13A14.31 14.31 0 0 0 6 15.24l.15.4c2.07-3 5.23-3.08 6.06-3.28v-.76A16.11 16.11 0 0 0 8.57 13z" fill="#107fcb" opacity=".5"/><path d="M12.49 3.23v16a3.41 3.41 0 0 0 .3-1.84V4.05a1.67 1.67 0 0 0-.3-.82zm-4.42 8.54a4.51 4.51 0 0 0 4.21-.95 3.59 3.59 0 0 1-2.61 1.24c-1.38.05-1.6-.29-1.6-.29zM16 9.75a5.41 5.41 0 0 0 4.66 0 4.9 4.9 0 0 1-2.53.64A4.94 4.94 0 0 1 16 9.75z" style="mix-blend-mode:screen" fill="#118cd5"/><path class="cls-11" d="M14.43 1.44c0 .16-.49.29-1.09.29s-1.08-.13-1.08-.29.48-.29 1.08-.29 1.09.13 1.09.29z"/><path class="cls-12" d="M13.35 1.79a3 3 0 0 1-.78-.09c-.24-.06-.36-.15-.36-.26s.57-.35 1.14-.35 1.15.12 1.15.35-.59.35-1.15.35zm0-.58c-.66 0-1 .15-1 .23s.07.09.27.15a3.25 3.25 0 0 0 .75.08c.66 0 1-.15 1-.23s-.37-.23-1.03-.23z"/><path d="M14.43 1.44c0 .16-.49.29-1.09.29s-1.08-.13-1.08-.29.48-.29 1.08-.29 1.09.13 1.09.29z" fill="#0c62b3"/><path d="M13.35 1.79a3 3 0 0 1-.78-.09c-.24-.06-.36-.15-.36-.26s.57-.35 1.14-.35 1.15.12 1.15.35-.59.35-1.15.35zm0-.58c-.66 0-1 .15-1 .23s.07.09.27.15a3.25 3.25 0 0 0 .75.08c.66 0 1-.15 1-.23s-.37-.23-1.03-.23z" fill="#042455"/><path d="M14 1.43c0 .1-.29.18-.66.18s-.65-.08-.65-.18.29-.18.65-.18.66.08.66.18z" style="mix-blend-mode:multiply" fill="#0c62b3"/><path class="cls-19" d="M5 12.84a4.06 4.06 0 0 1 .76.67 2.51 2.51 0 0 1 .49 1.06h.06A2.23 2.23 0 0 0 5 12.84zm1.93-2.63a1.46 1.46 0 0 0-1.06-1.08s-.07 0 0 .06a2.09 2.09 0 0 1 1 1.07s.07-.02.06-.05z"/><path class="cls-20" d="M7.54 5.71a2.68 2.68 0 0 0-1.46-.63 4.72 4.72 0 0 0-1.79.18C1.88 6 .32 8.62.12 11.07a8.5 8.5 0 0 0 .51 4.3 4 4 0 0 0 2.84 2.24A2.49 2.49 0 0 0 5.59 17a3.1 3.1 0 0 0 .6-1.1 3.5 3.5 0 0 0 .15-.64v-.6c0-.1 1.66-2.31.66-4.49a1.84 1.84 0 0 0 1.46-1.9 3.06 3.06 0 0 0-.92-2.56z"/><path class="cls-19" d="M3.85 17.7a2.56 2.56 0 0 1-.39 0 4.08 4.08 0 0 1-2.89-2.3 8.68 8.68 0 0 1-.51-4.33C.26 8.7 1.77 5.93 4.27 5.2A4.7 4.7 0 0 1 6.09 5a2.7 2.7 0 0 1 1.49.64 3.11 3.11 0 0 1 .9 2.62 1.94 1.94 0 0 1-1.43 1.94 5 5 0 0 1-.63 4.43.92.92 0 0 0 0 .35v.22a3.09 3.09 0 0 1-.16.65A3 3 0 0 1 5.64 17a2.57 2.57 0 0 1-1.79.7zm1.8-12.59a4.73 4.73 0 0 0-1.35.21C1.85 6 .37 8.75.18 11.08a8.66 8.66 0 0 0 .5 4.27 3.93 3.93 0 0 0 2.8 2.2 2.31 2.31 0 0 0 .37 0 2.45 2.45 0 0 0 1.7-.67 2.8 2.8 0 0 0 .58-1.08 3.72 3.72 0 0 0 .15-.62V15a.81.81 0 0 1 0-.43s1.55-2.26.59-4.38a.06.06 0 0 1 0-.06s1.28-.17 1.4-1.84a3 3 0 0 0-.77-2.54 2.62 2.62 0 0 0-1.42-.61 3 3 0 0 0-.43-.03z"/><path class="cls-19" d="M5.63 13.53A2.24 2.24 0 0 1 6.34 15c0 .05.07 0 .08 0a1.56 1.56 0 0 0-.32-1.1 1.45 1.45 0 0 0-.47-.37zm.98-3.4a1 1 0 0 0 .93-.13v-.07a1.41 1.41 0 0 1-1 .06z"/><path class="cls-21" d="M7.54 5.71a2.68 2.68 0 0 0-1.46-.63 4.26 4.26 0 0 0-1.42.09 2.17 2.17 0 0 1 .73 0A2.12 2.12 0 0 1 7 7.42a2.17 2.17 0 0 1-2.46 1.76A3.92 3.92 0 0 1 5.68 13c0 .05-.1.11-.15.06A4.58 4.58 0 0 0 4 12.15L3.6 12a3.12 3.12 0 0 1 .53 2.56 1.54 1.54 0 0 1-2.36 1 3.82 3.82 0 0 1-1.7-2.73 6.57 6.57 0 0 0 .56 2.52 4 4 0 0 0 2.84 2.24A2.49 2.49 0 0 0 5.59 17a3.1 3.1 0 0 0 .6-1.1 3.5 3.5 0 0 0 .15-.64v-.6c0-.1 1.66-2.31.66-4.49a1.84 1.84 0 0 0 1.46-1.9 3.06 3.06 0 0 0-.92-2.56z"/><path class="cls-22" d="M5.33 5.46A5.47 5.47 0 0 0 1 9.09a6.93 6.93 0 0 0 .12 5.75S-.42 8.56 5.33 5.46z"/><path class="cls-21" d="M4.59 13.23a2.84 2.84 0 0 1 .14 2.56 1.83 1.83 0 0 1-1.81 1 2.2 2.2 0 0 0 2.29-1.33 1.85 1.85 0 0 0-.62-2.23zm.66-3.58a3.88 3.88 0 0 1 .85 3.1 2.63 2.63 0 0 0-.85-3.1zM7 5.75s1.31 1.69.16 2.89A1.38 1.38 0 0 0 8 7.36a2.1 2.1 0 0 0-1-1.61z"/><path class="cls-19" d="M23.93 12.84a4.06 4.06 0 0 0-.76.67 2.51 2.51 0 0 0-.49 1.06h-.06a2.21 2.21 0 0 1 1.31-1.73zM22 10.21a1.46 1.46 0 0 1 1.1-1.08s.06 0 0 .06a2.09 2.09 0 0 0-1 1.07s-.1-.02-.1-.05z"/><path class="cls-20" d="M21.43 5.71a2.65 2.65 0 0 1 1.45-.63 4.75 4.75 0 0 1 1.8.18c2.41.7 4 3.36 4.17 5.81a8.5 8.5 0 0 1-.51 4.3 4 4 0 0 1-2.84 2.24 2.49 2.49 0 0 1-2.12-.61 3.1 3.1 0 0 1-.6-1.1 3.5 3.5 0 0 1-.15-.64v-.6c0-.1-1.63-2.31-.63-4.49a1.83 1.83 0 0 1-1.45-1.9 3.06 3.06 0 0 1 .88-2.56z"/><path class="cls-19" d="M25.12 17.7a2.57 2.57 0 0 1-1.79-.7 3 3 0 0 1-.6-1.13 3.09 3.09 0 0 1-.16-.65V15a1.19 1.19 0 0 0 0-.35c-.06-.1-1.56-2.28-.63-4.43a1.93 1.93 0 0 1-1.43-1.94 3.11 3.11 0 0 1 .9-2.62A2.7 2.7 0 0 1 22.88 5a4.7 4.7 0 0 1 1.82.18c2.5.73 4 3.5 4.21 5.87a8.68 8.68 0 0 1-.51 4.33 4.08 4.08 0 0 1-2.89 2.27 2.56 2.56 0 0 1-.39.05zm-1.8-12.59a3 3 0 0 0-.43 0 2.59 2.59 0 0 0-1.42.61 3 3 0 0 0-.86 2.52A1.79 1.79 0 0 0 22 10.11a.06.06 0 0 1 0 .06c-1 2.11.53 4.29.59 4.38a.81.81 0 0 1 0 .43v.2a3.72 3.72 0 0 0 .15.62 2.8 2.8 0 0 0 .58 1.08 2.41 2.41 0 0 0 1.7.67 2.31 2.31 0 0 0 .37 0 3.94 3.94 0 0 0 2.8-2.2 8.66 8.66 0 0 0 .5-4.27c-.19-2.33-1.67-5-4.12-5.76a4.73 4.73 0 0 0-1.25-.21z"/><path class="cls-21" d="M28.85 11.07c-.21-2.45-1.76-5.07-4.17-5.81a4.75 4.75 0 0 0-1.8-.18 2.7 2.7 0 0 0-1.1.37 3.4 3.4 0 0 1 2.79.26 6.67 6.67 0 0 1 2.85 4.52c.28 1.6-.05 3.71-1.61 4.6a1.7 1.7 0 0 1-2.34-.52 1.43 1.43 0 0 1 .15-1.31 1.48 1.48 0 0 1-1.21-.46 2.1 2.1 0 0 1-.09-2.06 3.32 3.32 0 0 1 .61-1 2.57 2.57 0 0 1-1.64-.27 1.62 1.62 0 0 1-.75-1.06v.14A1.83 1.83 0 0 0 22 10.17c-1 2.18.6 4.44.6 4.44v.6a3.5 3.5 0 0 0 .15.64 3.1 3.1 0 0 0 .6 1.1 2.49 2.49 0 0 0 2.12.66 4 4 0 0 0 2.84-2.24 8.5 8.5 0 0 0 .54-4.3z"/><path class="cls-19" d="M23.34 13.53a2.24 2.24 0 0 0-.71 1.47c0 .05-.08 0-.08 0a1.6 1.6 0 0 1 .31-1.1 1.61 1.61 0 0 1 .48-.37zm-.98-3.4a1 1 0 0 1-.93-.13v-.07a1.41 1.41 0 0 0 1.07.07z"/><path class="cls-22" d="M22.21 5.58a2.52 2.52 0 0 0-1.32 2.6 1.56 1.56 0 0 0 1.63 1.06s-.86-.13-1.15-1.42a2.36 2.36 0 0 1 .84-2.24zm1.42 3.51a3 3 0 0 0-1.36 2.74 1 1 0 0 0 .7.85s-1.07-1.2.66-3.59zm.31 3.82a1.09 1.09 0 0 0 0 1.65 2.66 2.66 0 0 1 1.33-2.13 2.36 2.36 0 0 0-1.33.48z"/><path class="cls-21" d="M23.54 16.54a2 2 0 0 0 2.42.67c1.78-.49 3.35-3.69 2.26-7.19 0 0 .81 5.28-1.93 6.64a2.5 2.5 0 0 1-2.75-.12z"/><path d="M20.78 46c-1.93-2.55-5.59-2.56-5.59-2.56h-1.41s-3.66 0-5.6 2.56.18 4.05 2.81 5c0 0 2.17.46 2.64 1.7l.53 4.45a1.11 1.11 0 0 0 .3 0 1.34 1.34 0 0 0 .35 0l.53-4.46C15.81 51.48 18 51 18 51c2.61-.91 4.72-2.41 2.78-5z" fill="#ce8453"/><path d="M14.54 57.28h-.12a.74.74 0 0 1-.29-.05l-.53-4.43c-.49-1.25-2.6-1.72-2.6-1.72-2.07-.73-3.22-1.59-3.53-2.62A2.76 2.76 0 0 1 8.14 46c1.93-2.54 5.6-2.58 5.64-2.58h1.41s3.71 0 5.64 2.58a2.76 2.76 0 0 1 .69 2.46c-.31 1-1.47 1.89-3.52 2.62 0 0-2.14.47-2.6 1.66l-.53 4.44a.88.88 0 0 1-.33.1zm-.32-.16a.69.69 0 0 0 .2 0h.12a.66.66 0 0 0 .21 0l.53-4.42c.48-1.25 2.59-1.7 2.72-1.7 2-.7 3.15-1.56 3.44-2.54a2.62 2.62 0 0 0-.66-2.34c-1.9-2.5-5.51-2.54-5.55-2.54h-1.45s-3.65 0-5.55 2.54a2.62 2.62 0 0 0-.66 2.34C7.86 49.4 9 50.26 11 51c.09 0 2.2.49 2.67 1.74z" fill="#944a24"/><path d="M20.78 46a5.74 5.74 0 0 0-1.93-1.61 2.48 2.48 0 0 1 .41 2.61c-1 2.26-3.72 2.78-6 2.74-1.59 0-4.12-.18-5-1.79a2.9 2.9 0 0 1-.14-2c-1.94 2.55.18 4.05 2.81 5 0 0 2.17.46 2.64 1.7l.53 4.45a1.11 1.11 0 0 0 .3 0 1.34 1.34 0 0 0 .35 0l.53-4.46C15.81 51.48 18 51 18 51c2.61-.91 4.72-2.41 2.78-5z" style="mix-blend-mode:multiply" opacity=".6" fill="#ce8453"/><g style="mix-blend-mode:multiply" opacity=".8"><path class="cls-2" d="M14.09 57.11c0-.14 0-.41-.06-.8 0-.57-.12-1.38-.22-2.35l-.09-.76c0-.13 0-.26-.05-.4a1.09 1.09 0 0 0-.12-.4 1.78 1.78 0 0 0-.62-.6 5.59 5.59 0 0 0-.81-.41c-.56-.24-1.16-.44-1.76-.68a7.17 7.17 0 0 1-1.72-.88 2.75 2.75 0 0 1-.64-.68 2.51 2.51 0 0 1-.38-.87 2.29 2.29 0 0 1 0-.94A4.9 4.9 0 0 1 8 46.5a1.22 1.22 0 0 1 .12-.19l.12-.19c.09-.12.18-.24.28-.35a4.93 4.93 0 0 1 .61-.6 7.25 7.25 0 0 1 .67-.46 6.18 6.18 0 0 1 .67-.35 9.73 9.73 0 0 1 1.26-.45c.38-.1.72-.16 1-.21.57-.08.9-.09.9-.09a7.2 7.2 0 0 0-.9.08 9.36 9.36 0 0 0-1 .2 8.31 8.31 0 0 0-1.26.44 5.49 5.49 0 0 0-.68.35 5 5 0 0 0-.67.46 5.91 5.91 0 0 0-.63.6c-.1.11-.18.23-.28.35l-.21.19-.12.2a4.08 4.08 0 0 0-.38.85 2.22 2.22 0 0 0 0 1 2.43 2.43 0 0 0 .38.89 3.1 3.1 0 0 0 .69.71 7.24 7.24 0 0 0 1.73.88c.6.24 1.2.44 1.77.67a6.63 6.63 0 0 1 .8.4 1.7 1.7 0 0 1 .6.59.89.89 0 0 1 .12.39v.39c0 .13.07.52.1.76.05.49.1.93.14 1.33s.07.74.1 1 .15.66.16.77z"/><path class="cls-2" d="M14.06 56.36c0 .4.06.67.07.79 0-.12 0-.39-.06-.79s0-.6-.07-1-.07-.8-.11-1.27c0-.23-.05-.47-.08-.72s0-.25 0-.38v-.4a1.28 1.28 0 0 0-.46-.67 3.46 3.46 0 0 0-.73-.46c-.53-.26-1.09-.47-1.66-.71a7.24 7.24 0 0 1-1.61-.89 3.08 3.08 0 0 1-.63-.67 2.38 2.38 0 0 1-.35-.84 2.43 2.43 0 0 1 0-.89 2.11 2.11 0 0 1 .12-.43c.05-.14.11-.27.17-.4a4.53 4.53 0 0 1 1-1.36l.11-.27.3-.23a6.1 6.1 0 0 1 .62-.38 7.72 7.72 0 0 1 1.18-.48 8.53 8.53 0 0 1 1-.23 7.16 7.16 0 0 1 .85-.1 5.76 5.76 0 0 0-.85.09 7 7 0 0 0-1 .22 6.42 6.42 0 0 0-1.18.47 4.49 4.49 0 0 0-.62.38 3.55 3.55 0 0 0-.31.23 3.85 3.85 0 0 0-.3.27 4.07 4.07 0 0 0-.54.62 3.62 3.62 0 0 0-.44.74c-.06.13-.12.27-.17.41a2.13 2.13 0 0 0-.13.43 2.54 2.54 0 0 0 .05.91 2.5 2.5 0 0 0 .36.86 3.18 3.18 0 0 0 .63.69 7.2 7.2 0 0 0 1.63.89c.57.24 1.14.45 1.66.7a3.5 3.5 0 0 1 .72.45 1.25 1.25 0 0 1 .45.65v.77c0 .12.06.49.08.73 0 .46.08.89.12 1.26s.12.74.18 1.01z"/><path class="cls-2" d="M14 55.47c0 .36.06.67.08.93s.05.67.06.77c0-.1 0-.37-.05-.77S14 55.14 14 54.26c0-.45-.09-.93-.13-1.43a1.38 1.38 0 0 0-.09-.39 1.68 1.68 0 0 0-.2-.34 2.7 2.7 0 0 0-.64-.52 14.64 14.64 0 0 0-1.54-.75 6.46 6.46 0 0 1-1.51-.91 2.74 2.74 0 0 1-1-2.31 1.85 1.85 0 0 1 .07-.41A1.72 1.72 0 0 0 9 47a1.46 1.46 0 0 1 .07-.19 4.75 4.75 0 0 1 .8-1.37A4.62 4.62 0 0 1 11 44.5a5.42 5.42 0 0 1 1.05-.5 6.29 6.29 0 0 1 .9-.25 5.4 5.4 0 0 1 .59-.09h.22-.22a4.66 4.66 0 0 0-.59.08A6.22 6.22 0 0 0 12 44a5.1 5.1 0 0 0-1.09.52 5.23 5.23 0 0 0-1.1.93A4.61 4.61 0 0 0 9 46.78V47l-.06.2a1.49 1.49 0 0 0-.08.42 2.82 2.82 0 0 0 .07.87A2.78 2.78 0 0 0 9.81 50a6.4 6.4 0 0 0 1.53.9c.52.25 1.06.47 1.54.75a2.56 2.56 0 0 1 .62.51 1.15 1.15 0 0 1 .21.33 1.53 1.53 0 0 1 .08.37c.05.51.11 1 .14 1.43s.07.82.07 1.18z"/><path class="cls-2" d="M14.09 55.55c0 .34.05.64.06.89 0 .4 0 .66.06.74 0-.08 0-.34-.05-.74 0-.25 0-.55-.05-.89s0-.73-.08-1.15-.03-.88-.11-1.4v-.37a1.27 1.27 0 0 0-.12-.36 1.69 1.69 0 0 0-.51-.59 9.8 9.8 0 0 0-1.41-.82 6.28 6.28 0 0 1-1.4-.92 3 3 0 0 1-.92-2.23 2.6 2.6 0 0 1 0-.4c0-.13.07-.26.1-.38a5.11 5.11 0 0 1 .65-1.37 6.23 6.23 0 0 1 .44-.55 5 5 0 0 1 .49-.44 5 5 0 0 1 1-.59 6.32 6.32 0 0 1 .84-.28 3.61 3.61 0 0 1 .57-.1h.2-.2a4.86 4.86 0 0 0-.57.09 6.21 6.21 0 0 0-.85.27 4.41 4.41 0 0 0-1.49 1 4.89 4.89 0 0 0-.45.55 5.18 5.18 0 0 0-.66 1.38c0 .13-.07.26-.11.39a2.83 2.83 0 0 0 0 .41 3.07 3.07 0 0 0 .89 2.31 6.18 6.18 0 0 0 1.41.91 10.16 10.16 0 0 1 1.41.81 1.72 1.72 0 0 1 .5.58 1.12 1.12 0 0 1 .12.35v.37c0 .48.08.94.11 1.36s.1.83.13 1.17z"/><path class="cls-2" d="M14 53.23c0 .47.07.9.1 1.3s.06.77.08 1.1 0 .61 0 .85v-.85c0-.33-.05-.7-.07-1.1s-.06-.84-.09-1.3v-.35a2.23 2.23 0 0 0-.05-.36 1.45 1.45 0 0 0-.36-.65 5.27 5.27 0 0 0-1.29-.87A6.17 6.17 0 0 1 11 50a3 3 0 0 1-.74-1.38 3.32 3.32 0 0 1-.1-.77 2.34 2.34 0 0 1 .08-.75c0-.13.07-.25.1-.37a1.09 1.09 0 0 1 .05-.17c0-.06.05-.12.07-.17a3.24 3.24 0 0 1 .13-.33l.16-.32a1 1 0 0 1 .07-.15l.1-.14.18-.27a3.84 3.84 0 0 1 .41-.47 4.49 4.49 0 0 1 .88-.66l.21-.11.2-.08c.13-.06.26-.09.37-.13l.53-.12h.19-.19a3.34 3.34 0 0 0-.53.11l-.37.12a1.89 1.89 0 0 0-.21.09l-.21.1a3.87 3.87 0 0 0-.89.65c-.15.14-.28.31-.42.47l-.18.28-.1.14-.08.15c-.05.11-.1.21-.16.32a3.24 3.24 0 0 0-.13.33 1.34 1.34 0 0 1-.07.18.84.84 0 0 0-.05.17c0 .12-.07.24-.1.36a2.5 2.5 0 0 0-.09.77 3.56 3.56 0 0 0 .1.79 3 3 0 0 0 .75 1.4 6.28 6.28 0 0 0 1.3.95 5.28 5.28 0 0 1 1.26.89 1.36 1.36 0 0 1 .35.63 2.27 2.27 0 0 1 0 .35c.13.14.13.26.13.37z"/><path class="cls-2" d="M14.06 53.42c0 .44 0 .86.07 1.24s0 .73.07 1.05 0 .58 0 .8v-.8c0-.31 0-.67-.05-1.05s-.05-.8-.07-1.24v-.68a1.68 1.68 0 0 0-.21-.68 2.11 2.11 0 0 0-.48-.56 5.39 5.39 0 0 0-.59-.45 6.78 6.78 0 0 1-1.17-1 3.46 3.46 0 0 1-.22-.31.86.86 0 0 1-.1-.16l-.09-.17a3.32 3.32 0 0 1-.25-.71 4.55 4.55 0 0 1-.09-.73 3.51 3.51 0 0 1 0-.73c0-.11 0-.23.07-.35s0-.23.09-.34.07-.21.1-.32 0-.11 0-.16a1 1 0 0 0 .07-.15l.12-.3c0-.1.11-.19.15-.28s.22-.34.33-.5l.18-.21.09-.1.1-.09a1.54 1.54 0 0 1 .19-.17l.19-.15a3.57 3.57 0 0 1 .71-.38l.28-.09a1.15 1.15 0 0 1 .22 0h.18-.4l-.29.08a3.34 3.34 0 0 0-.71.38 3.6 3.6 0 0 0-.77.71c-.1.16-.23.32-.33.51l-.15.27c0 .1-.08.2-.13.3l-.06.16-.06.16c0 .1-.07.21-.1.32l-.09.34a3.59 3.59 0 0 1-.08.35 3.64 3.64 0 0 0 0 .74 4.53 4.53 0 0 0 .09.74 3.94 3.94 0 0 0 .25.73l.09.17a.86.86 0 0 0 .1.16 3.19 3.19 0 0 0 .23.32 6.41 6.41 0 0 0 1.18 1 3.39 3.39 0 0 1 1.06 1 1.55 1.55 0 0 1 .21.66c.01.25.01.45.07.67z"/><path class="cls-2" d="M14.05 52.46a.9.9 0 0 1 0 .16 1.83 1.83 0 0 1 0 .33v.65c0 .42 0 .81.06 1.18.07 1.37.12 2.32.12 2.43 0-.11 0-1.06-.09-2.43 0-.37 0-.77-.05-1.19v-1.31a2 2 0 0 0-.33-.62 4.91 4.91 0 0 0-.51-.51l-.54-.47a5 5 0 0 1-.49-.54 3.25 3.25 0 0 1-.35-.63l-.07-.17a1.09 1.09 0 0 1 0-.17l-.09-.35a4.74 4.74 0 0 1-.09-1.4 1.88 1.88 0 0 1 .05-.33l.06-.33c0-.21.1-.42.15-.62l.1-.3c0-.09.06-.19.1-.28s.16-.35.25-.51a3.63 3.63 0 0 1 .6-.79 2.53 2.53 0 0 1 .62-.45 2.07 2.07 0 0 1 .46-.17h.17-.17a2 2 0 0 0-.47.16 3 3 0 0 0-.63.44 3.22 3.22 0 0 0-.6.8 4.85 4.85 0 0 0-.26.51c0 .09-.07.19-.11.28s-.07.2-.1.3-.11.41-.16.62 0 .22-.06.33 0 .23 0 .34a5.18 5.18 0 0 0 .09 1.41 3.59 3.59 0 0 0 .08.35c0 .07 0 .12.06.18l.07.17a2.66 2.66 0 0 0 .35.64 4.35 4.35 0 0 0 .5.55l.55.47a4.72 4.72 0 0 1 .5.5 1.86 1.86 0 0 1 .33.6 1 1 0 0 1-.1.17z"/><path class="cls-2" d="M14.15 52.5v2.38c.06 1.34.1 2.25.1 2.33 0-.08 0-1-.06-2.33v-2.39a1.84 1.84 0 0 0-.2-.64 3 3 0 0 0-.38-.57 7.48 7.48 0 0 1-.87-1.08 2.91 2.91 0 0 1-.17-.3c0-.11-.09-.21-.12-.32s-.07-.22-.11-.33a3.4 3.4 0 0 0-.07-.34 7.61 7.61 0 0 1-.09-1.34 4.48 4.48 0 0 1 .07-.64v-.3l.06-.3a7.43 7.43 0 0 1 .31-1.09 3.89 3.89 0 0 1 .44-.84l.12-.16.13-.15.12-.12.13-.1a1.31 1.31 0 0 1 .42-.22h.16-.17a1.46 1.46 0 0 0-.42.21l-.12.1-.13.12-.13.14a1.09 1.09 0 0 0-.13.17 4.39 4.39 0 0 0-.45.84 7.4 7.4 0 0 0-.32 1.09l-.06.3a2.91 2.91 0 0 0 0 .31 4.48 4.48 0 0 0-.07.64 6.89 6.89 0 0 0 .08 1.35c0 .11 0 .23.07.34s.07.22.1.34.09.21.13.32a1.54 1.54 0 0 0 .17.31 7.77 7.77 0 0 0 .88 1.09 2.57 2.57 0 0 1 .38.55 2 2 0 0 1 .2.63z"/><path class="cls-2" d="M14.25 52.68v2.29c0 1.31.07 2.19.08 2.24v-4.54a2.74 2.74 0 0 0-.13-.67 3.26 3.26 0 0 0-.25-.61c-.11-.2-.24-.38-.36-.57a5.54 5.54 0 0 1-.32-.59 4.57 4.57 0 0 1-.22-.62c-.05-.22-.1-.44-.13-.65a9.5 9.5 0 0 1-.08-1.29v-.62c0-.2 0-.4.07-.59s.09-.33.09-.46a3.82 3.82 0 0 1 .11-.51l.06-.24a2 2 0 0 1 .07-.23c0-.14.1-.28.14-.4a2.8 2.8 0 0 1 .36-.61 1.23 1.23 0 0 1 .34-.3h.15-.15a1.32 1.32 0 0 0-.35.29 2.45 2.45 0 0 0-.36.61 3.7 3.7 0 0 0-.16.4l-.08.23-.06.24c0 .16-.07.33-.11.51s-.06.37-.09.56-.05.39-.07.59 0 .41 0 .62a8.1 8.1 0 0 0 .07 1.24c0 .22.08.44.12.66a3.48 3.48 0 0 0 .23.64 4.91 4.91 0 0 0 .33.59c.12.19.24.37.35.56a2.63 2.63 0 0 1 .25.6 2.76 2.76 0 0 1 .1.63z"/><path class="cls-2" d="M14.24 51.89v3.15c0 1.29.05 2.15.05 2.17v-4.39a3 3 0 0 0 0-.31v-.31c0-.1 0-.21-.05-.32s0-.21-.08-.31c-.12-.41-.31-.81-.42-1.22-.07-.21-.1-.43-.15-.64s-.05-.42-.07-.63 0-.43-.05-.64 0-.41 0-.62c0-.4 0-.79.05-1.17v-.54l.06-.5c0-.32.09-.62.15-.88a4.25 4.25 0 0 1 .2-.65 1.15 1.15 0 0 1 .22-.38.24.24 0 0 1 .09-.07.24.24 0 0 0-.09.07 1.18 1.18 0 0 0-.23.37 4.71 4.71 0 0 0-.21.66c-.06.25-.11.55-.16.87q0 .24-.06.51c0 .17 0 .35-.05.54 0 .37-.06.77 0 1.17v1.26c0 .21 0 .43.08.64a4.56 4.56 0 0 0 .14.64c.12.42.31.82.43 1.22.1.11.13.21.15.31z"/><path class="cls-2" d="M14.43 43.61a.51.51 0 0 0 0 .14 2.74 2.74 0 0 0-.07.43c-.05.37-.08.9-.1 1.54v4.65c0 .21.05.43.07.64s.05.42.07.63v.67-.62c0-.21 0-.42-.07-.63s-.06-.42-.08-.63 0-.43-.05-.64 0-.42 0-.63v-3.39c0-.29 0-.61.06-.87s0-.49.07-.67a4.28 4.28 0 0 1 .07-.43.77.77 0 0 1 .03-.19zm.09 0a.77.77 0 0 1 .06.14 4.28 4.28 0 0 1 .07.43c0 .18 0 .41.07.67s0 .55.06.87 0 .67 0 1v3.66c0 .21-.05.42-.08.63s-.05.42-.07.63v5.6-5.57c0-.21 0-.42.07-.63s.05-.42.07-.64 0-.42.05-.63 0-.43 0-.64v-3.38c0-.64-.05-1.17-.1-1.54a2.74 2.74 0 0 0-.07-.43.51.51 0 0 0-.13-.17z"/><path class="cls-2" d="M14.6 43.61a.24.24 0 0 1 .09.07 1.18 1.18 0 0 1 .23.37 4.71 4.71 0 0 1 .21.66c.06.25.11.55.16.87l.06.51v.54c0 .37.06.77.05 1.17v1.26c0 .21 0 .43-.08.64a4.56 4.56 0 0 1-.14.64c-.12.42-.31.82-.43 1.22 0 .11-.06.21-.08.31s0 .21-.05.31 0 .21 0 .31v2.53l-.05 2.18v-5.02c0-.11 0-.21.05-.32s.05-.21.08-.31c.12-.41.31-.81.42-1.22.07-.21.1-.43.15-.64s0-.42.07-.63 0-.43 0-.64v-.62a11.24 11.24 0 0 0 0-1.17v-.54l-.06-.5c-.05-.32-.09-.62-.15-.88a4.25 4.25 0 0 0-.2-.65 1.15 1.15 0 0 0-.22-.38.24.24 0 0 0-.09-.07z"/><path class="cls-2" d="M14.69 43.61h.15a1.32 1.32 0 0 1 .35.29 2.45 2.45 0 0 1 .36.61 3.7 3.7 0 0 1 .16.4 2 2 0 0 1 .07.23 2.17 2.17 0 0 1 .07.24c0 .16.07.33.11.51s.06.37.09.56.05.39.07.59 0 .41 0 .62a8.1 8.1 0 0 1-.04 1.34c0 .22-.08.44-.12.66a3.48 3.48 0 0 1-.23.64 4.91 4.91 0 0 1-.33.59c-.12.19-.24.37-.35.56a2.63 2.63 0 0 0-.25.6 2.76 2.76 0 0 0-.1.63v2.29c-.05 1.35-.08 2.25-.08 2.25v-4.55a2.74 2.74 0 0 1 .09-.63 3.26 3.26 0 0 1 .25-.61c.11-.2.24-.38.36-.57s.22-.38.32-.59a4.57 4.57 0 0 0 .22-.62c0-.22.1-.44.13-.65a9.5 9.5 0 0 0 .08-1.29v-.62c0-.2 0-.4-.07-.59s-.05-.37-.09-.55-.06-.35-.1-.51a1.05 1.05 0 0 1-.06-.24l-.07-.2a3.71 3.71 0 0 0-.15-.4 2.45 2.45 0 0 0-.35-.61 1.23 1.23 0 0 0-.34-.3z"/><path class="cls-2" d="M14.77 43.61h.17a1.46 1.46 0 0 1 .42.21l.12.1.13.12.13.14a1.09 1.09 0 0 1 .13.17 4.39 4.39 0 0 1 .45.84 6.37 6.37 0 0 1 .31 1.09c0 .1.05.2.07.3a2.91 2.91 0 0 1 0 .31 4.48 4.48 0 0 1 .07.64 6.89 6.89 0 0 1-.08 1.35c0 .11-.05.23-.07.34a3.37 3.37 0 0 0-.1.34c0 .11-.09.21-.13.32a1.54 1.54 0 0 1-.17.31 7.77 7.77 0 0 1-.88 1.09 2.57 2.57 0 0 0-.38.55 2 2 0 0 0-.2.63v2.38l-.1 2.34s0-.94.06-2.34v-2.39a2.05 2.05 0 0 1 .19-.64 3.6 3.6 0 0 1 .39-.57 7.48 7.48 0 0 0 .87-1.08 2.91 2.91 0 0 0 .17-.3c0-.11.09-.21.12-.32l.11-.33.06-.34a6.78 6.78 0 0 0 .1-1.34 4.48 4.48 0 0 0-.07-.64v-.3l-.06-.3a7.43 7.43 0 0 0-.31-1.09 3.89 3.89 0 0 0-.44-.84l-.12-.16-.13-.15-.12-.05-.13-.1a1.31 1.31 0 0 0-.42-.22z"/><path class="cls-2" d="M17.47 47.42c0-.11 0-.23-.06-.34s0-.22-.05-.33-.11-.42-.16-.62-.07-.2-.1-.3-.07-.19-.11-.28a4.85 4.85 0 0 0-.26-.51 3 3 0 0 0-.61-.8 2.75 2.75 0 0 0-.62-.44 2.15 2.15 0 0 0-.47-.16h-.17.17a2.07 2.07 0 0 1 .46.17 2.53 2.53 0 0 1 .62.45 3.63 3.63 0 0 1 .6.79c.09.16.16.34.25.51s.06.19.1.28l.1.3c.05.2.11.41.15.62l.06.33a1.88 1.88 0 0 1 .05.33 5.11 5.11 0 0 1-.09 1.4l-.09.35a.58.58 0 0 1-.06.17l-.06.17a2.8 2.8 0 0 1-.35.63 5 5 0 0 1-.49.54l-.54.47a4.91 4.91 0 0 0-.51.51 2 2 0 0 0-.33.62s0 .11-.05.17a.88.88 0 0 0 0 .17v2.16c-.06 1.45-.09 2.42-.09 2.43s0-1 .12-2.43c0-.37 0-.76.06-1.18v-.65a1.83 1.83 0 0 1 0-.33v-.16a1.09 1.09 0 0 0 0-.17 1.86 1.86 0 0 1 .33-.6 4.72 4.72 0 0 1 .5-.5l.55-.47a4.35 4.35 0 0 0 .5-.55 2.66 2.66 0 0 0 .35-.64l.07-.17a1 1 0 0 0 .05-.18 3.57 3.57 0 0 0 .1-.35 5.6 5.6 0 0 0 .08-1.41z"/><path class="cls-2" d="M18.11 47.26a3.59 3.59 0 0 1-.08-.35c0-.11-.05-.23-.09-.34s-.07-.22-.1-.32l-.06-.16-.06-.16c0-.1-.09-.2-.13-.3l-.15-.27a5 5 0 0 0-.34-.51 3.56 3.56 0 0 0-1.47-1.09l-.29-.08h-.4.18a1.15 1.15 0 0 1 .22 0l.28.09a3.57 3.57 0 0 1 .71.38l.19.15a1.54 1.54 0 0 1 .19.17l.1.09.09.1.18.21c.11.16.23.32.33.5s.1.18.14.28.09.2.13.3l.07.15s0 .11.05.16.07.22.1.32a2.09 2.09 0 0 1 .08.34c0 .12.05.24.08.35a3.51 3.51 0 0 1 0 .73 3.66 3.66 0 0 1-.1.73 2.83 2.83 0 0 1-.24.71l-.09.17a.86.86 0 0 1-.1.16 2.26 2.26 0 0 1-.23.31 6.35 6.35 0 0 1-1.16 1 6.7 6.7 0 0 0-.6.45 2.26 2.26 0 0 0-.47.56 1.68 1.68 0 0 0-.21.68v.68c0 .44 0 .85-.07 1.24s0 .73 0 1.05c0-.31 0-.67.07-1.05s0-.8.07-1.24v-.67a1.55 1.55 0 0 1 .21-.66 3.39 3.39 0 0 1 1.06-1 6.41 6.41 0 0 0 1.18-1 3.19 3.19 0 0 0 .23-.32.86.86 0 0 0 .1-.16l.09-.17a3.94 3.94 0 0 0 .25-.73 4.53 4.53 0 0 0 .09-.74 3.64 3.64 0 0 0-.03-.74z"/><path class="cls-2" d="M18.72 47.1c0-.12-.06-.24-.1-.36a.84.84 0 0 0-.05-.17 1.34 1.34 0 0 1-.07-.18 3.24 3.24 0 0 0-.13-.33c-.06-.11-.11-.21-.16-.32l-.08-.15-.1-.14-.18-.28c-.15-.16-.27-.33-.42-.47a3.87 3.87 0 0 0-.89-.65l-.21-.1a1.89 1.89 0 0 0-.21-.09l-.37-.12a3.58 3.58 0 0 0-.53-.11h-.19.19l.53.12c.11 0 .24.07.37.13l.2.08.21.11a4.49 4.49 0 0 1 .88.66 3.84 3.84 0 0 1 .41.47l.18.27.1.14a1 1 0 0 1 .07.15c.06.11.11.21.16.32a3.24 3.24 0 0 1 .13.33c0 .05 0 .11.07.17a1.09 1.09 0 0 1 0 .17c0 .12.06.24.1.37a2.66 2.66 0 0 1 .08.75 4 4 0 0 1-.1.77 2.88 2.88 0 0 1-.7 1.36 5.86 5.86 0 0 1-1.28.94 5.27 5.27 0 0 0-1.26.91 1.45 1.45 0 0 0-.36.65 2.23 2.23 0 0 0 0 .36v.35c0 .46-.06.9-.09 1.3s0 .77-.07 1.1 0 .61 0 .85c0-.24 0-.52.05-.85s.06-.69.08-1.1.06-.83.1-1.3v-.35a2.27 2.27 0 0 1 .05-.35 1.36 1.36 0 0 1 .35-.63 5.28 5.28 0 0 1 1.18-.88 6.28 6.28 0 0 0 1.3-.95 2.86 2.86 0 0 0 .75-1.4 3.56 3.56 0 0 0 .1-.79 2.5 2.5 0 0 0-.09-.76z"/><path class="cls-2" d="M19.44 47.33c0-.13-.07-.26-.11-.39a5.18 5.18 0 0 0-.66-1.38 4.89 4.89 0 0 0-.45-.55 4.41 4.41 0 0 0-1.49-1 6.21 6.21 0 0 0-.85-.27 4.86 4.86 0 0 0-.57-.09h-.2.2a3.61 3.61 0 0 1 .57.1 6.32 6.32 0 0 1 .84.28 5 5 0 0 1 1 .59 5 5 0 0 1 .49.44 6.23 6.23 0 0 1 .44.55 4.8 4.8 0 0 1 .63 1.39c0 .12.08.25.11.38a2.6 2.6 0 0 1 0 .4A3 3 0 0 1 18.5 50a6.51 6.51 0 0 1-1.4.92 9.28 9.28 0 0 0-1.41.82 1.69 1.69 0 0 0-.51.59 1.27 1.27 0 0 0-.12.36v.37c0 .49-.07.95-.11 1.37s-.06.81-.08 1.15 0 .64-.05.89v.76c0-.07 0-.34.06-.76 0-.25 0-.55.06-.89s.06-.73.09-1.15.08-.88.12-1.36v-.37a1.12 1.12 0 0 1 .12-.35 1.72 1.72 0 0 1 .5-.58 10.16 10.16 0 0 1 1.41-.81 6.41 6.41 0 0 0 1.36-.96 2.78 2.78 0 0 0 .84-1.46 2.87 2.87 0 0 0 .09-.82 2.83 2.83 0 0 0-.03-.39z"/><path class="cls-2" d="M20.13 47.6a1.49 1.49 0 0 0-.08-.42L20 47l-.08-.2a4.61 4.61 0 0 0-.81-1.38 5.23 5.23 0 0 0-1.1-.93 5.1 5.1 0 0 0-1.1-.49 6.22 6.22 0 0 0-.91-.24 4.66 4.66 0 0 0-.59-.08h-.22.22a5.4 5.4 0 0 1 .59.09 6.29 6.29 0 0 1 .9.25 5.42 5.42 0 0 1 1.1.48 4.62 4.62 0 0 1 1.08.93 4.75 4.75 0 0 1 .8 1.37 1.46 1.46 0 0 1 .07.19 1.72 1.72 0 0 0 .07.21 1.85 1.85 0 0 1 .07.41 2.72 2.72 0 0 1-.07.85 2.78 2.78 0 0 1-.91 1.46 6.46 6.46 0 0 1-1.51.91 14.64 14.64 0 0 0-1.54.75 2.7 2.7 0 0 0-.64.52 1.68 1.68 0 0 0-.2.34 1.38 1.38 0 0 0-.09.39c0 .5-.1 1-.13 1.43-.08.88-.13 1.62-.16 2.14s-.05.7-.05.79c0-.09 0-.37.06-.79 0-.26.05-.57.07-.93s.07-.77.11-1.21.09-.92.14-1.43a1.53 1.53 0 0 1 .08-.37 1.15 1.15 0 0 1 .21-.33 2.56 2.56 0 0 1 .62-.51c.48-.28 1-.5 1.54-.75a6.4 6.4 0 0 0 1.53-.9 2.78 2.78 0 0 0 .92-1.5 2.82 2.82 0 0 0 .06-.87z"/><path class="cls-2" d="M20.78 47.47a2.13 2.13 0 0 0-.13-.43c0-.14-.11-.28-.17-.41a4.13 4.13 0 0 0-.44-.74 4.07 4.07 0 0 0-.54-.62l-.3-.27a3.55 3.55 0 0 0-.31-.23 4.49 4.49 0 0 0-.62-.38 6.72 6.72 0 0 0-1.18-.47 7 7 0 0 0-1-.22 5.76 5.76 0 0 0-.85-.09 7.16 7.16 0 0 1 .85.1 8.53 8.53 0 0 1 .95.23 7.72 7.72 0 0 1 1.18.48 5.07 5.07 0 0 1 .61.38 3.55 3.55 0 0 1 .31.23l.29.26a4.53 4.53 0 0 1 1 1.36c.06.13.12.26.17.4a2.11 2.11 0 0 1 .12.43 2.43 2.43 0 0 1-.05.89 2.38 2.38 0 0 1-.35.84 3.08 3.08 0 0 1-.63.67 7.24 7.24 0 0 1-1.61.89c-.57.24-1.13.45-1.66.71a3.46 3.46 0 0 0-.73.46 1.28 1.28 0 0 0-.46.67v.2a1.36 1.36 0 0 1 0 .2v.38c0 .13-.06.49-.08.72 0 .47-.08.9-.11 1.27s0 .71-.07 1c0 .43-.06.71-.06.81 0-.1 0-.38.07-.81 0-.27 0-.6.08-1s.08-.8.12-1.26c0-.24.06-.48.08-.73s0-.25.05-.38v-.39a1.25 1.25 0 0 1 .45-.65 3.5 3.5 0 0 1 .72-.45c.53-.26 1.09-.46 1.66-.7a7.2 7.2 0 0 0 1.63-.89 3.18 3.18 0 0 0 .63-.69 2.32 2.32 0 0 0 .36-.86 2.54 2.54 0 0 0 .02-.91z"/><path class="cls-2" d="M21.41 47.33a4.08 4.08 0 0 0-.38-.85l-.12-.2-.13-.19a3.07 3.07 0 0 0-.28-.35 5 5 0 0 0-.62-.6 5.7 5.7 0 0 0-.67-.46 5.49 5.49 0 0 0-.68-.35 8.31 8.31 0 0 0-1.26-.44 9.36 9.36 0 0 0-1-.2 7.2 7.2 0 0 0-.9-.08s.33 0 .9.09c.28 0 .62.11 1 .21a9.73 9.73 0 0 1 1.26.45 6.18 6.18 0 0 1 .67.35 7.25 7.25 0 0 1 .67.46 5.74 5.74 0 0 1 .61.6c.1.11.19.23.28.35l.12.19a1.22 1.22 0 0 1 .12.19 4.2 4.2 0 0 1 .37.84 2.13 2.13 0 0 1 0 .94 2.51 2.51 0 0 1-.38.87 2.75 2.75 0 0 1-.67.69 7.17 7.17 0 0 1-1.72.88c-.6.24-1.2.44-1.76.68a5.12 5.12 0 0 0-.81.41 1.78 1.78 0 0 0-.62.6 1.33 1.33 0 0 0-.12.4v.4l-.09.76c-.1 1-.17 1.78-.22 2.35s-.06.72-.07.84c0-.12 0-.41.08-.84s.06-.63.1-1 .09-.84.14-1.33c0-.24.07-.49.1-.76s0-.26.05-.39a.89.89 0 0 1 .12-.39 1.7 1.7 0 0 1 .6-.59 6.63 6.63 0 0 1 .8-.4c.57-.23 1.17-.43 1.77-.67a7.43 7.43 0 0 0 1.73-.88 3.27 3.27 0 0 0 .69-.7 2.74 2.74 0 0 0 .38-.9 2.22 2.22 0 0 0-.06-.98z"/></g><path d="M12.76 51.75a2.19 2.19 0 0 1 .87 1v.48a1.1 1.1 0 0 1 .35-.33.85.85 0 0 1 1.22.62l.09-.77a2.73 2.73 0 0 1 1.48-1.31 9.21 9.21 0 0 1-2.39.57 4.66 4.66 0 0 1-1.62-.26z" style="mix-blend-mode:multiply" fill="#ce8453" opacity=".6"/><path d="M8.3 46.3s2-3.32 8.24-2.51c0 0-6.43.21-8 4a3.77 3.77 0 0 1-.24-1.49zm5.52 6.95l.42 3.82s.19.06.23 0-.32-4.07-.32-4.07a.42.42 0 0 0-.33.25z" style="mix-blend-mode:screen" fill="#ce8453"/><path class="cls-11" d="M16.28.35c0 .16-.49.29-1.08.29S14.11.51 14.11.35s.48-.29 1.09-.29 1.08.13 1.08.29z"/><path class="cls-12" d="M15.2.7c-.58 0-1.15-.12-1.15-.35S14.62 0 15.19 0s1.15.12 1.15.35-.57.35-1.14.35zm0-.58c-.67 0-1 .15-1 .23s.36.23 1 .23c.66 0 1-.15 1-.23s-.34-.23-1-.23z"/><path class="cls-8" d="M16.28.35c0 .16-.49.29-1.08.29S14.11.51 14.11.35s.48-.29 1.09-.29 1.08.13 1.08.29z"/><path class="cls-9" d="M15.2.7c-.58 0-1.15-.12-1.15-.35S14.62 0 15.19 0s1.15.12 1.15.35-.57.35-1.14.35zm0-.58c-.67 0-1 .15-1 .23s.36.23 1 .23c.66 0 1-.15 1-.23s-.34-.23-1-.23z"/><path d="M15.85.34c0 .1-.29.18-.65.18s-.66-.08-.66-.18.29-.17.66-.17.65.08.65.17z" style="mix-blend-mode:multiply" fill="#992932"/></g></g></svg>