<svg xmlns="http://www.w3.org/2000/svg" viewBox="0 0 40.82 69.17" width="600" height="900"><defs><filter id="colorMeSaturate"><feColorMatrix in="a1" type="saturate" values="0"/></filter><style>*{filter:url(#colorMeSaturate)}.cls-2,.cls-4{fill:#9e383b}.cls-3{fill:#5b090e}.cls-4{opacity:.5}.cls-18,.cls-20,.cls-23,.cls-4,.cls-7{mix-blend-mode:multiply}.cls-5,.cls-7,.cls-9{fill:#da3f48}.cls-6{fill:#801b25}.cls-7{opacity:.4}.cls-21,.cls-9{mix-blend-mode:screen}.cls-10,.cls-20,.cls-21{fill:#f29f93}.cls-11{fill:#8c1126}.cls-12,.cls-18{fill:#bd4148}.cls-19{fill:#cf5a46}</style></defs><path class="cls-2" d="M38.81 65.66c-.75-1.57-2.73-3.91-9-5.84s-7.71-.43-7.75.64a14.69 14.69 0 0 0 .63 4c.65 2 1.69 2.77 4.25 3.48a29.89 29.89 0 0 0 8.85.93 8.41 8.41 0 0 0 2.94-1.28 1.87 1.87 0 0 0 .08-1.93z"/><path class="cls-3" d="M34.46 69a33 33 0 0 1-7.54-1c-2.7-.75-3.67-1.54-4.28-3.52a14.89 14.89 0 0 1-.64-4c0-.38.26-1.63 2.84-1.63a17.94 17.94 0 0 1 5 .94c4.85 1.49 7.89 3.46 9 5.86a1.94 1.94 0 0 1-.08 2 8.32 8.32 0 0 1-3 1.29 10.54 10.54 0 0 1-1.3.06zm-9.62-10c-.62 0-2.67.1-2.72 1.5a14.77 14.77 0 0 0 .63 3.95c.6 1.93 1.55 2.7 4.2 3.45a33.34 33.34 0 0 0 7.51 1 10.11 10.11 0 0 0 1.32-.07 8.16 8.16 0 0 0 2.9-1.26 1.79 1.79 0 0 0 .07-1.83c-1.12-2.38-4.14-4.33-9-5.81a17.87 17.87 0 0 0-4.91-.93z"/><path class="cls-4" d="M38.81 65.66c-.75-1.57-2.73-3.91-9-5.84s-7.71-.43-7.75.64a14.69 14.69 0 0 0 .63 4c.1.29.2.55.31.8a3.63 3.63 0 0 1-.09-.8c0-.78.23-1.79 1.07-2.06a3.59 3.59 0 0 1 1.13.05c.84 0 9.17 2.23 11.18 4.7.45.56.49 1.09-.16 1.49a3.21 3.21 0 0 1-.45.24h.11a8.41 8.41 0 0 0 2.94-1.28 1.87 1.87 0 0 0 .08-1.94z"/><path class="cls-5" d="M31.88 58.77c-.58-1.61-3.35-2.11-6.36-4.66s-3-4.67-3-4.67a31 31 0 0 1-.37 2 34.19 34.19 0 0 0-.55 6.34 33.77 33.77 0 0 0 .18 3.92 14.16 14.16 0 0 0 .78 3.3c1.48 3.72 5 3.47 9.45 4a10.94 10.94 0 0 0 3.78-.18 29.89 29.89 0 0 1-8.85-.93c-2.56-.71-3.6-1.43-4.25-3.48a14.69 14.69 0 0 1-.63-4c0-1.07 1.48-2.56 7.75-.64.83.26 1.58.52 2.27.79a5.31 5.31 0 0 0-.2-1.79z"/><path class="cls-6" d="M33.42 69.17a11.52 11.52 0 0 1-1.42-.09l-1.82-.18c-3.57-.34-6.39-.6-7.67-3.84a13.4 13.4 0 0 1-.76-3.37 33.88 33.88 0 0 1-.19-3.94 35.47 35.47 0 0 1 .56-6.34c.18-.78.3-1.5.37-2l.05-.06h.05a.08.08 0 0 1 0 .05 3.73 3.73 0 0 0 .41 1.4 9.24 9.24 0 0 0 2.59 3.26 22.52 22.52 0 0 0 3.74 2.49c1.34.75 2.31 1.29 2.63 2.2a5 5 0 0 1 .21 1.86c-.71-.28-1.47-.54-2.27-.79a17.87 17.87 0 0 0-5.06-.82c-.62 0-2.67.1-2.72 1.5a14.77 14.77 0 0 0 .63 3.95c.6 1.93 1.55 2.7 4.2 3.45a33.34 33.34 0 0 0 7.51 1 10.11 10.11 0 0 0 1.32-.07.06.06 0 0 1 0 .12 10.34 10.34 0 0 1-2.36.22zM22.54 49.88c-.07.44-.17 1-.3 1.55a37.57 37.57 0 0 0-.37 10.24 13.71 13.71 0 0 0 .75 3.33c1.26 3.16 4 3.42 7.57 3.76L32 69a11.71 11.71 0 0 0 2.71 0 33.29 33.29 0 0 1-7.81-1c-2.7-.75-3.67-1.54-4.28-3.52a14.89 14.89 0 0 1-.64-4c0-.38.26-1.63 2.84-1.63a17.94 17.94 0 0 1 5 .94c.77.23 1.5.49 2.19.75a5 5 0 0 0-.2-1.73c-.31-.86-1.26-1.4-2.58-2.14a21.89 21.89 0 0 1-3.76-2.5c-2.21-1.91-2.79-3.54-2.93-4.29z"/><path class="cls-5" d="M40.68 58.8c-.25-4-.83-5-.83-5-.25-2.42-.58-2.46-.71-2.63s.53 2.35-1.57 5.52-4 4-4.94 4.17c4.08 1.69 5.56 3.52 6.18 4.83a1.87 1.87 0 0 1-.08 1.9 4.72 4.72 0 0 0 1.06-1c.7-.97 1.15-3.74.89-7.79z"/><path class="cls-6" d="M38.73 67.62a.06.06 0 0 1 0-.08 1.81 1.81 0 0 0 .07-1.84c-.88-1.87-3-3.49-6.15-4.81v-.06c2.31-.47 4.33-3.29 4.9-4.14 2.07-3.12 1.56-5.46 1.56-5.48h.05c.16.17.44.45.67 2.61.07.13.59 1.2.84 5s-.12 6.72-.92 7.82a4.43 4.43 0 0 1-1.07 1zm-5.91-6.78c3.13 1.32 5.16 2.93 6 4.79a1.93 1.93 0 0 1 0 1.72 4.18 4.18 0 0 0 .83-.81c.77-1.05 1.12-4.08.88-7.73-.25-4-.82-5-.82-5-.19-1.79-.41-2.26-.56-2.45a8.32 8.32 0 0 1-1.61 5.38c-1.96 3.03-3.84 3.87-4.72 4.1z"/><path class="cls-5" d="M37.57 56.66c2.1-3.17 1.57-5.52 1.57-5.52a.28.28 0 0 1-.06-.21c0-.58-.39-3.47-3.21-8.74a16.61 16.61 0 0 0-6.69-7.07c-1.67-.77-4.17-1-5.14 1.61s-.38 7.71-.83 9.12a27.39 27.39 0 0 0-.66 3.62s0 2.11 3 4.67 5.78 3 6.36 4.66a5.31 5.31 0 0 1 .2 1.84l.55.22c.94-.23 2.89-1.14 4.91-4.2z"/><path class="cls-6" d="M32.63 60.89l-.54-.21a.08.08 0 0 1 0-.06 5 5 0 0 0-.2-1.82c-.31-.86-1.26-1.4-2.58-2.14a21.89 21.89 0 0 1-3.76-2.5c-2.9-2.46-3-4.48-3-4.69.05-.33.1-.65.14-1a17.32 17.32 0 0 1 .52-2.67 14.62 14.62 0 0 0 .21-3.1 20.55 20.55 0 0 1 .63-6 3 3 0 0 1 3-2.17 5.54 5.54 0 0 1 2.24.53 11.85 11.85 0 0 1 2.29 1.57A18.8 18.8 0 0 1 36 42.15a35.41 35.41 0 0 1 2.67 6.14 10.19 10.19 0 0 1 .55 2.63.27.27 0 0 0 0 .19c0 .21.43 2.53-1.58 5.56-2.19 3.31-4.21 4-5 4.19zm-.49-.32l.49.19c2.32-.48 4.33-3.28 4.89-4.13 2-3 1.59-5.34 1.56-5.47a.43.43 0 0 1-.06-.24s0-2.8-3.21-8.71a18.7 18.7 0 0 0-4.38-5.49 11.57 11.57 0 0 0-2.27-1.55 5.34 5.34 0 0 0-2.16-.54 2.88 2.88 0 0 0-2.87 2.09 20.58 20.58 0 0 0-.62 6 14.94 14.94 0 0 1-.21 3.13 17.42 17.42 0 0 0-.52 2.66c0 .3-.09.62-.14.94s0 2.11 2.95 4.61a22.52 22.52 0 0 0 3.74 2.49c1.34.75 2.31 1.29 2.63 2.2a5 5 0 0 1 .18 1.82z"/><path class="cls-3" d="M1.74 51a.06.06 0 0 1-.06-.06.08.08 0 0 1 .07 0 .06.06 0 0 1 .05.06.06.06 0 0 1-.06 0z"/><path class="cls-5" d="M3.5 52.19a14 14 0 0 0 3.93 1.09 17.87 17.87 0 0 0 6.72-.08 10.66 10.66 0 0 0 4.49-1.78c-.52-2.25-.58-4.18-1-5.6s.13-6.49-.83-9.12-3.47-2.38-5.14-1.61A16.61 16.61 0 0 0 5 42.16c-2.82 5.27-3.21 8.16-3.21 8.74-.04.1.09.47 1.71 1.29z"/><path class="cls-6" d="M10.66 53.62a18.91 18.91 0 0 1-3.24-.28 14 14 0 0 1-3.95-1.1c-1.58-.79-1.78-1.19-1.79-1.32 0-1 .67-4 3.22-8.77a18.84 18.84 0 0 1 4.42-5.55 11.14 11.14 0 0 1 2.29-1.6 5.54 5.54 0 0 1 2.24-.53 3 3 0 0 1 3 2.17 20.51 20.51 0 0 1 .63 6 14.62 14.62 0 0 0 .21 3.1 17.32 17.32 0 0 1 .52 2.67c.12.88.27 1.87.51 2.92a.1.1 0 0 1 0 .07 10.7 10.7 0 0 1-4.52 1.79 16.76 16.76 0 0 1-3.54.43zm3.19-19a5.34 5.34 0 0 0-2.19.52 11.23 11.23 0 0 0-2.27 1.56A18.7 18.7 0 0 0 5 42.19c-3.16 5.91-3.2 8.68-3.2 8.71s.08.39 1.72 1.21a14.1 14.1 0 0 0 3.92 1.1 17.9 17.9 0 0 0 6.7-.09 10.76 10.76 0 0 0 4.43-1.74c-.23-1-.38-2-.5-2.9a17.42 17.42 0 0 0-.52-2.66 14.28 14.28 0 0 1-.21-3.13 20.55 20.55 0 0 0-.62-6 2.88 2.88 0 0 0-2.87-2.06z"/><path class="cls-2" d="M19.19 57.75c-.25 1.23-1 3.55-2.79 4.64a17.17 17.17 0 0 1-8.5 1.89c-1.67-.19-2.11.36-3.1.8a10.7 10.7 0 0 1-2.78.8c-.5 0-1 .58.44 1.57a9 9 0 0 0 4.79 1.23c1.2 0 3-.3 4.51-.35s4.4-.44 5.69-2.42A14.21 14.21 0 0 0 19 61.68a33.84 33.84 0 0 0 .19-3.93z"/><path class="cls-3" d="M7.08 68.75a9 9 0 0 1-4.65-1.25c-.93-.62-1.05-1-1-1.3a.6.6 0 0 1 .57-.38A10.68 10.68 0 0 0 4.77 65c.22-.1.41-.2.6-.3a3.5 3.5 0 0 1 1.89-.55h.65a5.25 5.25 0 0 0 .73 0 17.53 17.53 0 0 0 7.73-1.93c1.81-1.06 2.51-3.33 2.76-4.59a.08.08 0 0 1 .07-.05.06.06 0 0 1 .05.06 33.91 33.91 0 0 1-.18 3.94 14.13 14.13 0 0 1-1.57 4.25c-.56.86-2.05 2.31-5.74 2.45-.76 0-1.59.11-2.38.19s-1.53.15-2.13.16zm.18-4.45a3.42 3.42 0 0 0-1.83.53c-.19.1-.39.21-.61.31a10.93 10.93 0 0 1-2.8.8.48.48 0 0 0-.45.29c-.05.18 0 .56.92 1.17a8.88 8.88 0 0 0 4.59 1.23h.16c.6 0 1.34-.08 2.12-.16s1.63-.17 2.39-.19c3.64-.14 5.1-1.56 5.65-2.4a13.8 13.8 0 0 0 1.6-4.21 31.52 31.52 0 0 0 .18-3.38 6.64 6.64 0 0 1-2.7 4.15 17.82 17.82 0 0 1-7.79 1.94 5.31 5.31 0 0 1-.74 0c-.28-.06-.49-.08-.69-.08z"/><path class="cls-4" d="M16.4 62.39a17.17 17.17 0 0 1-8.5 1.89c-1.67-.19-2.11.36-3.1.8a10.7 10.7 0 0 1-2.78.8c-.5 0-1 .58.44 1.57a7 7 0 0 0 1.19.61.66.66 0 0 1 0-.46 1.18 1.18 0 0 1 .93-.6 10.18 10.18 0 0 1 2.06-.25 21.24 21.24 0 0 0 5-.54 17.33 17.33 0 0 0 2.26-.68c.45-.19.88-.42 1.33-.59.6-.22 1.56-.49 1.89.26.22.5-.21 1.1-.53 1.44a6.31 6.31 0 0 1-.71.66 4.41 4.41 0 0 0 1.61-1.43A14.21 14.21 0 0 0 19 61.68a33.84 33.84 0 0 0 .18-3.93c-.24 1.25-.94 3.55-2.78 4.64z"/><path class="cls-5" d="M6.69 64.29a4.79 4.79 0 0 1 1.21 0 17.17 17.17 0 0 0 8.5-1.89c1.84-1.09 2.54-3.41 2.79-4.64a35.06 35.06 0 0 0-.55-6.33 10.66 10.66 0 0 1-4.49 1.78 17.87 17.87 0 0 1-6.72.08 14 14 0 0 1-3.93-1.1c-1.62-.82-1.75-1.19-1.76-1.27 0 .54-.45-.24-.77 2.84a26.8 26.8 0 0 1 3.25 5.92c1.1 2.64 1.78 3.92 2.47 4.61z"/><path class="cls-6" d="M8.64 64.38a5.31 5.31 0 0 1-.74 0 4.33 4.33 0 0 0-1.2 0c-.7-.71-1.39-1.92-2.54-4.68a26.3 26.3 0 0 0-3.24-5.9c.22-2.16.51-2.44.67-2.61a.23.23 0 0 0 .1-.23.05.05 0 0 1 .06-.06h.06s.08.4 1.72 1.22a14.1 14.1 0 0 0 3.92 1.1 17.9 17.9 0 0 0 6.7-.09 10.42 10.42 0 0 0 4.46-1.77h.06a35.58 35.58 0 0 1 .55 6.34c-.26 1.27-1 3.58-2.82 4.67a17.82 17.82 0 0 1-7.76 2.01zm-1.37-.2h.64a5.25 5.25 0 0 0 .73 0 17.53 17.53 0 0 0 7.73-1.93c1.8-1.06 2.5-3.32 2.76-4.58a36.48 36.48 0 0 0-.53-6.22 11 11 0 0 1-4.44 1.73 17.91 17.91 0 0 1-6.74.08 14 14 0 0 1-3.95-1.1 5 5 0 0 1-1.7-1.13 1.13 1.13 0 0 1-.1.13c-.15.14-.42.41-.64 2.5a27 27 0 0 1 3.24 5.91c1.14 2.72 1.78 3.92 2.44 4.57a4.92 4.92 0 0 1 .56.04z"/><path class="cls-5" d="M11.76 68.33c-1.52 0-3.31.33-4.51.35a9 9 0 0 1-4.79-1.23c-1.49-1-.94-1.54-.44-1.57a10.7 10.7 0 0 0 2.78-.8 6.82 6.82 0 0 1 1.89-.79c-.71-.69-1.37-2-2.47-4.61A26.8 26.8 0 0 0 1 53.76s-.58 1-.84 5 .2 6.82.9 7.78 3.34 3 7.78 2.44 8-.26 9.44-4a13.66 13.66 0 0 0 .72-3.3 14.21 14.21 0 0 1-1.56 4.23c-1.28 1.98-4.17 2.36-5.68 2.42z"/><path class="cls-6" d="M7.4 69.17c-3.6 0-5.77-1.67-6.42-2.56-.8-1.09-1.14-4.08-.91-7.81s.77-4.9.84-5a.06.06 0 0 1 0-.06h.06a27.16 27.16 0 0 1 3.25 5.92c1.15 2.75 1.79 4 2.46 4.59a.06.06 0 0 1 0 .07 3.91 3.91 0 0 0-1.28.48c-.18.1-.38.21-.6.31a10.93 10.93 0 0 1-2.8.8.48.48 0 0 0-.45.29c-.05.18 0 .56.92 1.17a8.88 8.88 0 0 0 4.59 1.23h.16c.6 0 1.34-.08 2.12-.16s1.63-.17 2.39-.19c3.64-.14 5.1-1.56 5.65-2.4A13.8 13.8 0 0 0 19 61.67a.05.05 0 0 1 .07-.05.07.07 0 0 1 .05.07 13.85 13.85 0 0 1-.76 3.37c-1.28 3.23-4.1 3.5-7.67 3.84l-1.82.18a11.52 11.52 0 0 1-1.47.09zM1 53.89a15.71 15.71 0 0 0-.8 4.92c-.23 3.65.12 6.68.89 7.73.64.87 2.77 2.5 6.32 2.5A11.16 11.16 0 0 0 8.8 69l1.82-.18c3.53-.34 6.32-.6 7.58-3.76a11.11 11.11 0 0 0 .57-2.17 11.48 11.48 0 0 1-1.27 3.09c-.56.86-2.05 2.31-5.74 2.45-.76 0-1.59.11-2.38.19s-1.53.15-2.13.16h-.17a9 9 0 0 1-4.65-1.28c-.93-.62-1.05-1-1-1.3a.6.6 0 0 1 .57-.38A10.68 10.68 0 0 0 4.77 65c.22-.1.41-.2.6-.3a3.92 3.92 0 0 1 1.2-.48c-.66-.68-1.3-1.9-2.41-4.55A27.43 27.43 0 0 0 1 53.89z"/><path class="cls-7" d="M11.76 68.33c-1.52 0-3.31.33-4.51.35a9 9 0 0 1-4.79-1.23c-1.49-1-.94-1.54-.44-1.57a10.7 10.7 0 0 0 2.78-.8 6.82 6.82 0 0 1 1.89-.79 4.79 4.79 0 0 1 1.21 0 17.17 17.17 0 0 0 8.5-1.89c1.84-1.09 2.54-3.41 2.79-4.64a35.06 35.06 0 0 0-.55-6.33c-.52-2.25-.58-4.18-1-5.6s.13-6.49-.83-9.12-3.47-2.38-5.14-1.61A16.61 16.61 0 0 0 5 42.16c-2.82 5.27-3.21 8.16-3.21 8.74 0 .54-.45-.24-.77 2.84s-.58 1-.84 5 .2 6.82.9 7.78 3.34 3 7.78 2.44 8-.26 9.44-4a13.66 13.66 0 0 0 .7-3.28 14.21 14.21 0 0 1-1.56 4.23c-1.28 1.98-4.17 2.36-5.68 2.42zm1.26-10a3.19 3.19 0 0 1-2.31 2.87c-3.58.9-5 .77-5.94-1.82-.25-.65-.55-1.28-.86-1.9-.49-1-1.05-1.9-1.61-2.83-.29-.48-1-1.94-.18-2.27a1.09 1.09 0 0 1 .34-.06c.75 0 1.45.56 2.11.85a17.12 17.12 0 0 0 2.75 1 11.42 11.42 0 0 0 3.5.23 1.71 1.71 0 0 1 1.95 1.53 6.46 6.46 0 0 1 .23 2.38zM3.61 45.77C7.08 38.39 9 37.31 11.25 36c1.87-1.14 2.8 1 2.16 3.88s-.41 5.52-.31 9.28S4.73 52 3.41 50.89s.2-5.12.2-5.12zM.81 64.34C.07 62.48.44 57.2.64 56.17s.58-.66.58-.66c.63.69 1 2.31 1.36 4.87s.17 4.25-.7 4.54a.8.8 0 0 1-1.07-.58z"/><path d="M13.82 34.67A3.24 3.24 0 0 1 16 36.83c.84 2.5-.13 5.27-.4 7.8a10.28 10.28 0 0 0 0 3.18 4.11 4.11 0 0 0 .57 1.49c.19.28.56.79 1 .78.6 0 .82-1 .92-1.55a18.42 18.42 0 0 0-.52-2.71c-.45-1.41.13-6.49-.83-9.12a3 3 0 0 0-3.41-2.11 3.54 3.54 0 0 1 .49.08z" style="mix-blend-mode:multiply" opacity=".6" fill="#da3f48"/><path class="cls-9" d="M4.91 67.89s1.15.77 6.87 0c1.15-.16 3.69-.63 4.65-1.49a24.59 24.59 0 0 1-3.35 1c-2.34.46-6.99.79-8.17.49zm6.56-31.66S8.21 37.47 5 43.82c0 0-2.35 4.33-1.61 6.52a17.08 17.08 0 0 1 2-6.6 22.78 22.78 0 0 1 6.08-7.51zM1.07 56A23.14 23.14 0 0 0 1 64s.12.58.49.62c-.01-.05-.63-1.94-.42-8.62zm1.57-3.35s-.71.08-.29 1S4 56.49 4.82 58.47s1.45 2.88 2.89 3a5 5 0 0 1-2.14-2.31c-1-1.82-2-4.09-2.52-5s-.74-1.1-.41-1.51z"/><path class="cls-10" d="M7.39 44.2a.88.88 0 0 0 .23.07 2.22 2.22 0 0 0 .51 0 1.47 1.47 0 0 0 .69-.09 3.73 3.73 0 0 1 .46 0 2 2 0 0 0 1.5-.05.94.94 0 0 0 .12.22.88.88 0 0 0 .54.38 2.53 2.53 0 0 0 .94.12l.23-.2.15-.12h-.61a1.37 1.37 0 0 1-.8-.41c-.5-1.13.46-1.72 1.25-2.37a3.23 3.23 0 0 0 .39-.3 1.77 1.77 0 0 0 .5-.78 1.52 1.52 0 0 0 .49-.21 1.42 1.42 0 0 0 .25-.37 3.5 3.5 0 0 1-.3.23 1.28 1.28 0 0 1-.3.17.34.34 0 0 1-.14 0 1.08 1.08 0 0 0 0-.43 1.4 1.4 0 0 0-.06-.28 1.89 1.89 0 0 1-.23.93 2 2 0 0 1-.42.68 2.11 2.11 0 0 1 .13-2.6 1.49 1.49 0 0 0-.2.15 2 2 0 0 0-.06 2.59l-.28.23-.32.25-.53.32a3.07 3.07 0 0 0-.42.34 3.78 3.78 0 0 0-.1-1.33 2.68 2.68 0 0 0-.34-.87l.06-.16a1.64 1.64 0 0 0-.1-.93 2.36 2.36 0 0 1-.07 1 1.88 1.88 0 0 0-1-.74h-.14l.06.05a2.33 2.33 0 0 1 1.38 2.18 5.59 5.59 0 0 1-1 0 1.59 1.59 0 0 1-.32-.16 1 1 0 0 1-.53-.46.78.78 0 0 0 0 .14 2 2 0 0 0 .61.56 2.27 2.27 0 0 0 1.24.08 4.5 4.5 0 0 1-.07.83 3.26 3.26 0 0 0-.09 1 2.41 2.41 0 0 1-1 .15 1.08 1.08 0 0 1-.8-.18 3.08 3.08 0 0 1-.7-.9 2.33 2.33 0 0 0 .26.66 1.54 1.54 0 0 0 .36.36c-.56.05-1.31.25-1.75-.23a1.26 1.26 0 0 0 .33.48zm7.69 10.09a3.83 3.83 0 0 0-.36-.44 5.53 5.53 0 0 0 .77.36 5.36 5.36 0 0 1 1.88 1.22l-.07-.19c-.09-.15-.18-.29-.28-.43a4.08 4.08 0 0 0-1-.64 9 9 0 0 0-1-.38 4.42 4.42 0 0 1-2.47-2.92 2.42 2.42 0 0 1-.11-1.25c.06-.25.08-.48-.15-.64a10.78 10.78 0 0 1 1.27-1.52c.35-.42.86-1 .84-1.55s-.36-.72-.81-.85a2 2 0 0 0-.54-.08c-.14.1-.27.21-.4.32a5.85 5.85 0 0 1 .59 0c1.48.22.29 1.76-.24 2.39-.36.43-.73.85-1.11 1.27a.59.59 0 0 0-.3.34 1.92 1.92 0 0 1-1.41-.47 6.13 6.13 0 0 1-.93-1.37c-.07-.13-.14-.26-.22-.39a2.53 2.53 0 0 0-.85-.75 1.39 1.39 0 0 0-.08-.46l-.35-.31a1.91 1.91 0 0 1 .15.28 2.6 2.6 0 0 1 .1.4 2.87 2.87 0 0 0-1.16-.24H6.7l-.17.08a2.75 2.75 0 0 1 2.56 1.56 2.48 2.48 0 0 1-1.22-.1 1.38 1.38 0 0 0 .27.27 1.46 1.46 0 0 0 1 0 3.3 3.3 0 0 0 1 1.53 10 10 0 0 0-1.11.32 4.28 4.28 0 0 1-1.37.35H7.5a1.07 1.07 0 0 1-.6-.32 1.66 1.66 0 0 1-.18-.19c-.26-.33-.49-1-.91-1.16h-.1c.43.33.6 1.14.83 1.51a.88.88 0 0 0 .21.22h-.11l-.28.09c-.15.06-.35.18-.55.26a1.33 1.33 0 0 1-1.32-.37 1.09 1.09 0 0 0 0 .26 1.1 1.1 0 0 0 .76.38 1.88 1.88 0 0 0 1.15-.37 5.45 5.45 0 0 1 .6-.09 1.79 1.79 0 0 0 .52.12c1.3.15 2.72-1.15 4-.53.14.95-1.15 1.64-1.87 1.9a10.78 10.78 0 0 1-2.93.45c-.53 0-1.06.08-1.59.17a2.11 2.11 0 0 0-1.48 1.12 3.4 3.4 0 0 1 .74-.57A2.7 2.7 0 0 1 4 54.33a1.6 1.6 0 0 0 .55-1c0-.49.17-.69.7-.75 1-.09 1.89 0 2.84-.22a3.69 3.69 0 0 0-2 1.55A6.33 6.33 0 0 1 5.54 55c-.27.34-.78.41-1.17.56a1.78 1.78 0 0 0-1.09.86 4.2 4.2 0 0 1 1.84-.91c-.62.7-1.49 1.81-.68 2.74a2.23 2.23 0 0 1 .23-1.82A17.23 17.23 0 0 1 5.9 55a2.09 2.09 0 0 0 .81 1.61 3 3 0 0 1-.5-2.08 2.67 2.67 0 0 1 1.36-1.63 6.82 6.82 0 0 1 1.12-.47c0 .58.19 1.14.17 1.73a1.8 1.8 0 0 1-.4 1.14c.56-.09.59-1.25.63-1.65a8.32 8.32 0 0 1 .78.79 1.51 1.51 0 0 1 .3 1c.52-1.09-.77-1.47-1.1-2.32s.22-1 .81-1.2a3 3 0 0 0 1.59-1.29c.12-.22.38-.67.68-.43s.23.55.3.77a13.36 13.36 0 0 1 .55 1.75 5.6 5.6 0 0 1-1.12 3.83 1 1 0 0 1-.7.22H11c-1.56-.22-3.16 1.37-4.17 2.41a.75.75 0 0 0-.05.16c.37-.33.75-.68 1.16-1a4.32 4.32 0 0 0-.1.88c.06-.1.12-.2.19-.3a.5.5 0 0 1 0-.12c0-.12 0-.25.06-.37s.09-.2.11-.3a4.56 4.56 0 0 1 3.27-1.08 4.78 4.78 0 0 0-.66 1.95c-.54.66-1.4 1-1.93 1.63a3.9 3.9 0 0 0-.51.86 1.5 1.5 0 0 0 0 .2v.19a4.19 4.19 0 0 1 1.39-1.72 4.07 4.07 0 0 0 1-.9 2.88 2.88 0 0 0 .84 2.18 4.66 4.66 0 0 1-.25-.5 3.37 3.37 0 0 1-.31-2.46 11.67 11.67 0 0 1 1.55-2.74 9.72 9.72 0 0 0 1 1.29 3.92 3.92 0 0 1 .59 2.13c.06-.2.1-.39.14-.59a4 4 0 0 0-.32-1.28 3.85 3.85 0 0 0-.77-1.12 2.77 2.77 0 0 1-.26-.48 2 2 0 0 1-.1-.59 5.46 5.46 0 0 0 .37-2 .19.19 0 0 1 .16 0c.13.07.25.17.37.25s.48.42.74.61a4.16 4.16 0 0 1 1.07 2.38 3 3 0 0 0-.09-1.22 4.19 4.19 0 0 0-.41-.83z"/><path class="cls-11" d="M7.25 44.09a.88.88 0 0 0 .23.07 2.22 2.22 0 0 0 .51 0 1.45 1.45 0 0 0 .69-.09 3.42 3.42 0 0 1 .46 0 2 2 0 0 0 1.5 0 2.25 2.25 0 0 0 .12.21.88.88 0 0 0 .54.38 2.53 2.53 0 0 0 .94.12l.23-.2.15-.12H12a1.37 1.37 0 0 1-.8-.41c-.5-1.13.46-1.72 1.26-2.37a2.9 2.9 0 0 0 .38-.3 1.77 1.77 0 0 0 .5-.78 1.59 1.59 0 0 0 .5-.21 1.67 1.67 0 0 0 .24-.37 2.42 2.42 0 0 1-.3.23 1.11 1.11 0 0 1-.3.17.33.33 0 0 1-.14 0 1.08 1.08 0 0 0-.05-.43 2.74 2.74 0 0 0-.05-.28 1.9 1.9 0 0 1-.24.93 2 2 0 0 1-.41.68 2.12 2.12 0 0 1 .12-2.6 1.49 1.49 0 0 0-.2.15 2 2 0 0 0-.06 2.59l-.27.23-.33.25-.52.32a3 3 0 0 0-.43.34 3.78 3.78 0 0 0-.06-1.38 2.84 2.84 0 0 0-.35-.88.44.44 0 0 0 .06-.16 1.64 1.64 0 0 0-.1-.93 2.36 2.36 0 0 1-.07 1 1.89 1.89 0 0 0-.95-.74h-.15l.06.05a2.31 2.31 0 0 1 1.37 2.18 5.59 5.59 0 0 1-1 0 1.91 1.91 0 0 1-.32-.16 1 1 0 0 1-.54-.42v.14a2 2 0 0 0 .61.56 2.27 2.27 0 0 0 1.24.08 3.77 3.77 0 0 1-.07.83 3.59 3.59 0 0 0-.09 1 2.39 2.39 0 0 1-1 .15 1.09 1.09 0 0 1-.81-.18 3.08 3.08 0 0 1-.7-.9 2.33 2.33 0 0 0 .26.66 1.75 1.75 0 0 0 .36.36c-.56 0-1.3.25-1.74-.22a1.3 1.3 0 0 0 .34.45zM15 54.21a3.13 3.13 0 0 0-.36-.44 5.18 5.18 0 0 0 .78.36 5.27 5.27 0 0 1 1.87 1.22 1.67 1.67 0 0 0-.07-.19 4.55 4.55 0 0 0-.28-.43 3.74 3.74 0 0 0-1-.64 10 10 0 0 0-1-.38 4.42 4.42 0 0 1-2.47-2.92 2.43 2.43 0 0 1-.11-1.25c.06-.25.09-.48-.15-.65a11.41 11.41 0 0 1 1.27-1.51 2.65 2.65 0 0 0 .84-1.56c0-.49-.35-.71-.81-.85a2.34 2.34 0 0 0-.54-.08l-.39.33a3.86 3.86 0 0 1 .58 0c1.48.21.29 1.76-.24 2.39-.36.43-.73.85-1.1 1.27a.58.58 0 0 0-.31.34 1.92 1.92 0 0 1-1.41-.47 6.13 6.13 0 0 1-.93-1.37 3.84 3.84 0 0 0-.22-.39 2.68 2.68 0 0 0-.85-.76 1.33 1.33 0 0 0-.1-.37l-.35-.31a1.51 1.51 0 0 1 .15.28c.06.12.06.27.11.4A3.15 3.15 0 0 0 6.73 46h-.14l-.17.09A2.73 2.73 0 0 1 9 47.67a2.49 2.49 0 0 1-1.22-.1 1.33 1.33 0 0 0 .27.26 1.41 1.41 0 0 0 1 0 3.37 3.37 0 0 0 1 1.53 9 9 0 0 0-1.05.35 4 4 0 0 1-1.41.29h-.16a1.07 1.07 0 0 1-.6-.32 1.54 1.54 0 0 1-.17-.19c-.26-.34-.5-1-.92-1.16h-.1c.43.32.6 1.14.83 1.5a.93.93 0 0 0 .21.23L6.57 50c-.09 0-.18.06-.27.09s-.36.18-.56.26A1.33 1.33 0 0 1 4.42 50a2.06 2.06 0 0 0 0 .26 1.1 1.1 0 0 0 .76.38 1.83 1.83 0 0 0 1.15-.38l.58-.13H7a2.19 2.19 0 0 0 .52.12c1.3.15 2.73-1.15 4-.53.14.94-1.15 1.64-1.87 1.9a11.18 11.18 0 0 1-2.93.45 14.3 14.3 0 0 0-1.59.17 2.11 2.11 0 0 0-1.48 1.12 3.4 3.4 0 0 1 .74-.57A2.77 2.77 0 0 1 4 54.24a1.6 1.6 0 0 0 .54-1c0-.5.17-.7.7-.75 1-.1 1.89 0 2.84-.22a3.68 3.68 0 0 0-2 1.55A5.94 5.94 0 0 1 5.47 55c-.27.34-.78.42-1.17.57a1.73 1.73 0 0 0-1.08.86 4 4 0 0 1 1.84-.91c-.63.7-1.5 1.81-.69 2.73a2.25 2.25 0 0 1 .23-1.81 15.82 15.82 0 0 1 1.23-1.48 2.1 2.1 0 0 0 .81 1.61 3 3 0 0 1-.5-2.08 2.65 2.65 0 0 1 1.37-1.62 6.37 6.37 0 0 1 1.11-.47c0 .58.19 1.14.17 1.73a1.75 1.75 0 0 1-.4 1.13C9 55.13 9 54 9 53.57a7.18 7.18 0 0 1 .78.78 1.54 1.54 0 0 1 .3 1c.52-1.09-.77-1.46-1.1-2.31s.22-1 .81-1.2a3 3 0 0 0 1.59-1.3c.12-.21.39-.67.68-.42s.23.55.3.77a13.36 13.36 0 0 1 .52 1.74 5.6 5.6 0 0 1-1.12 3.83 1 1 0 0 1-.7.22H11c-1.55-.21-3.16 1.38-4.17 2.41a1.09 1.09 0 0 0 0 .17c.37-.34.75-.68 1.16-1a5 5 0 0 0-.1.87 2.9 2.9 0 0 1 .11-.28.5.5 0 0 1 0-.12c0-.13 0-.25.07-.37s.08-.2.1-.31A4.61 4.61 0 0 1 11.45 57a4.73 4.73 0 0 0-.71 1.91c-.54.66-1.4 1-1.93 1.63a3.69 3.69 0 0 0-.51.86 1.36 1.36 0 0 0 0 .2v.19a4.19 4.19 0 0 1 1.39-1.72 4.07 4.07 0 0 0 1-.9 2.88 2.88 0 0 0 .84 2.18c-.09-.16-.17-.33-.25-.5a3.37 3.37 0 0 1-.28-2.48 12.32 12.32 0 0 1 1.55-2.75 9.2 9.2 0 0 0 .95 1.3 3.82 3.82 0 0 1 .59 2.08c.06-.19.1-.39.14-.58A3.75 3.75 0 0 0 14 57.2a3.8 3.8 0 0 0-.77-1.11c-.09-.16-.18-.32-.26-.48a2 2 0 0 1-.1-.59A5.51 5.51 0 0 0 13.2 53a.23.23 0 0 1 .17 0 2.9 2.9 0 0 1 .36.25c.26.18.48.42.74.61a4.16 4.16 0 0 1 1.07 2.38 2.67 2.67 0 0 0-.09-1.24 4.19 4.19 0 0 0-.45-.79z"/><path class="cls-6" d="M7.25 44.09a.88.88 0 0 0 .23.07 2.22 2.22 0 0 0 .51 0 1.45 1.45 0 0 0 .69-.09 3.42 3.42 0 0 1 .46 0 2 2 0 0 0 1.5 0 2.25 2.25 0 0 0 .12.21.88.88 0 0 0 .54.38 2.53 2.53 0 0 0 .94.12l.23-.2.15-.12H12a1.37 1.37 0 0 1-.8-.41c-.5-1.13.46-1.72 1.26-2.37a2.9 2.9 0 0 0 .38-.3 1.77 1.77 0 0 0 .5-.78 1.59 1.59 0 0 0 .5-.21 1.67 1.67 0 0 0 .24-.37 2.42 2.42 0 0 1-.3.23 1.11 1.11 0 0 1-.3.17.33.33 0 0 1-.14 0 1.08 1.08 0 0 0-.05-.43 2.74 2.74 0 0 0-.05-.28 1.9 1.9 0 0 1-.24.93 2 2 0 0 1-.41.68 2.12 2.12 0 0 1 .12-2.6 1.49 1.49 0 0 0-.2.15 2 2 0 0 0-.06 2.59l-.27.23-.33.25-.52.32a3 3 0 0 0-.43.34 3.78 3.78 0 0 0-.06-1.38 2.84 2.84 0 0 0-.35-.88.44.44 0 0 0 .06-.16 1.64 1.64 0 0 0-.1-.93 2.36 2.36 0 0 1-.07 1 1.89 1.89 0 0 0-.95-.74h-.15l.06.05a2.31 2.31 0 0 1 1.37 2.18 5.59 5.59 0 0 1-1 0 1.91 1.91 0 0 1-.32-.16 1 1 0 0 1-.54-.42v.14a2 2 0 0 0 .61.56 2.27 2.27 0 0 0 1.24.08 3.77 3.77 0 0 1-.07.83 3.59 3.59 0 0 0-.09 1 2.39 2.39 0 0 1-1 .15 1.09 1.09 0 0 1-.81-.18 3.08 3.08 0 0 1-.7-.9 2.33 2.33 0 0 0 .26.66 1.75 1.75 0 0 0 .36.36c-.56 0-1.3.25-1.74-.22a1.3 1.3 0 0 0 .34.45zM15 54.21a3.13 3.13 0 0 0-.36-.44 5.18 5.18 0 0 0 .78.36 5.27 5.27 0 0 1 1.87 1.22 1.67 1.67 0 0 0-.07-.19 4.55 4.55 0 0 0-.28-.43 3.74 3.74 0 0 0-1-.64 10 10 0 0 0-1-.38 4.42 4.42 0 0 1-2.47-2.92 2.43 2.43 0 0 1-.11-1.25c.06-.25.09-.48-.15-.65a11.41 11.41 0 0 1 1.27-1.51 2.65 2.65 0 0 0 .84-1.56c0-.49-.35-.71-.81-.85a2.34 2.34 0 0 0-.54-.08l-.39.33a3.86 3.86 0 0 1 .58 0c1.48.21.29 1.76-.24 2.39-.36.43-.73.85-1.1 1.27a.58.58 0 0 0-.31.34 1.92 1.92 0 0 1-1.41-.47 6.13 6.13 0 0 1-.93-1.37 3.84 3.84 0 0 0-.22-.39 2.68 2.68 0 0 0-.85-.76 1.33 1.33 0 0 0-.1-.37l-.35-.31a1.51 1.51 0 0 1 .15.28c.06.12.06.27.11.4A3.15 3.15 0 0 0 6.73 46h-.14l-.17.09A2.73 2.73 0 0 1 9 47.67a2.49 2.49 0 0 1-1.22-.1 1.33 1.33 0 0 0 .27.26 1.41 1.41 0 0 0 1 0 3.37 3.37 0 0 0 1 1.53 9 9 0 0 0-1.05.35 4 4 0 0 1-1.41.29h-.16a1.07 1.07 0 0 1-.6-.32 1.54 1.54 0 0 1-.17-.19c-.26-.34-.5-1-.92-1.16h-.1c.43.32.6 1.14.83 1.5a.93.93 0 0 0 .21.23L6.57 50c-.09 0-.18.06-.27.09s-.36.18-.56.26A1.33 1.33 0 0 1 4.42 50a2.06 2.06 0 0 0 0 .26 1.1 1.1 0 0 0 .76.38 1.83 1.83 0 0 0 1.15-.38l.58-.13H7a2.19 2.19 0 0 0 .52.12c1.3.15 2.73-1.15 4-.53.14.94-1.15 1.64-1.87 1.9a11.18 11.18 0 0 1-2.93.45 14.3 14.3 0 0 0-1.59.17 2.11 2.11 0 0 0-1.48 1.12 3.4 3.4 0 0 1 .74-.57A2.77 2.77 0 0 1 4 54.24a1.6 1.6 0 0 0 .54-1c0-.5.17-.7.7-.75 1-.1 1.89 0 2.84-.22a3.68 3.68 0 0 0-2 1.55A5.94 5.94 0 0 1 5.47 55c-.27.34-.78.42-1.17.57a1.73 1.73 0 0 0-1.08.86 4 4 0 0 1 1.84-.91c-.63.7-1.5 1.81-.69 2.73a2.25 2.25 0 0 1 .23-1.81 15.82 15.82 0 0 1 1.23-1.48 2.1 2.1 0 0 0 .81 1.61 3 3 0 0 1-.5-2.08 2.65 2.65 0 0 1 1.37-1.62 6.37 6.37 0 0 1 1.11-.47c0 .58.19 1.14.17 1.73a1.75 1.75 0 0 1-.4 1.13C9 55.13 9 54 9 53.57a7.18 7.18 0 0 1 .78.78 1.54 1.54 0 0 1 .3 1c.52-1.09-.77-1.46-1.1-2.31s.22-1 .81-1.2a3 3 0 0 0 1.59-1.3c.12-.21.39-.67.68-.42s.23.55.3.77a13.36 13.36 0 0 1 .52 1.74 5.6 5.6 0 0 1-1.12 3.83 1 1 0 0 1-.7.22H11c-1.55-.21-3.16 1.38-4.17 2.41a1.09 1.09 0 0 0 0 .17c.37-.34.75-.68 1.16-1a5 5 0 0 0-.1.87 2.9 2.9 0 0 1 .11-.28.5.5 0 0 1 0-.12c0-.13 0-.25.07-.37s.08-.2.1-.31A4.61 4.61 0 0 1 11.45 57a4.73 4.73 0 0 0-.71 1.91c-.54.66-1.4 1-1.93 1.63a3.69 3.69 0 0 0-.51.86 1.36 1.36 0 0 0 0 .2v.19a4.19 4.19 0 0 1 1.39-1.72 4.07 4.07 0 0 0 1-.9 2.88 2.88 0 0 0 .84 2.18c-.09-.16-.17-.33-.25-.5a3.37 3.37 0 0 1-.28-2.48 12.32 12.32 0 0 1 1.55-2.75 9.2 9.2 0 0 0 .95 1.3 3.82 3.82 0 0 1 .59 2.08c.06-.19.1-.39.14-.58A3.75 3.75 0 0 0 14 57.2a3.8 3.8 0 0 0-.77-1.11c-.09-.16-.18-.32-.26-.48a2 2 0 0 1-.1-.59A5.51 5.51 0 0 0 13.2 53a.23.23 0 0 1 .17 0 2.9 2.9 0 0 1 .36.25c.26.18.48.42.74.61a4.16 4.16 0 0 1 1.07 2.38 2.67 2.67 0 0 0-.09-1.24 4.19 4.19 0 0 0-.45-.79z"/><path class="cls-10" d="M38.05 55.83A1.79 1.79 0 0 0 37 55c-.39-.15-.91-.23-1.17-.57a5.47 5.47 0 0 1-.62-1.14 3.61 3.61 0 0 0-2-1.55c1 .17 1.89.12 2.84.22.53 0 .65.25.71.75a1.6 1.6 0 0 0 .54 1 2.59 2.59 0 0 1-.3-1.46 4 4 0 0 1 .74.57 2.13 2.13 0 0 0-1.49-1.12 14.12 14.12 0 0 0-1.58-.17 11.19 11.19 0 0 1-2.94-.45c-.72-.26-2-1-1.87-1.9 1.24-.62 2.67.68 4 .53a2.44 2.44 0 0 0 .52-.12 3.39 3.39 0 0 1 .57.14 1.91 1.91 0 0 0 1.16.37 1.07 1.07 0 0 0 .75-.38 1.09 1.09 0 0 0 0-.26 1.33 1.33 0 0 1-1.32.37c-.19-.08-.39-.2-.55-.26l-.27-.09h-.11a1.14 1.14 0 0 0 .2-.23c.24-.36.41-1.18.84-1.5h-.1c-.43.13-.66.82-.92 1.16l-.18.19a1 1 0 0 1-.59.32h-.16a4.09 4.09 0 0 1-1.43-.24 8.26 8.26 0 0 0-1.1-.31 3.26 3.26 0 0 0 1-1.54 1.41 1.41 0 0 0 1 0 1.16 1.16 0 0 0 .28-.26 2.49 2.49 0 0 1-1.22.1 2.75 2.75 0 0 1 2.55-1.56l-.16-.09h-.14a2.92 2.92 0 0 0-1.17.24c0-.13.05-.28.1-.4a2.49 2.49 0 0 1 .15-.28l-.35.31a1.33 1.33 0 0 0-.07.45 2.58 2.58 0 0 0-.85.76 4 4 0 0 0-.23.39 6.09 6.09 0 0 1-.92 1.37 2 2 0 0 1-1.42.47.56.56 0 0 0-.3-.34c-.37-.42-.74-.84-1.1-1.27-.53-.63-1.72-2.18-.24-2.39.42-.06.85 0 1.22-.06 0-.1-.09-.21-.14-.31a5.47 5.47 0 0 0-1.41.08c-.45.14-.78.36-.8.85s.48 1.14.84 1.56A11.34 11.34 0 0 1 29 48.34c-.23.17-.21.4-.14.65a2.54 2.54 0 0 1-.12 1.25 4.41 4.41 0 0 1-2.46 2.92 9.21 9.21 0 0 0-1 .38 3.74 3.74 0 0 0-1 .64 2.44 2.44 0 0 0-.28.43 1.35 1.35 0 0 0-.08.19 5.4 5.4 0 0 1 1.88-1.22 6.39 6.39 0 0 0 .78-.36 3.19 3.19 0 0 0-.37.44 3.68 3.68 0 0 0-.43.81 2.82 2.82 0 0 0-.1 1.22 4.17 4.17 0 0 1 1.08-2.38c.26-.19.47-.43.73-.61a3 3 0 0 1 .37-.25.18.18 0 0 1 .17 0 5.12 5.12 0 0 0 .37 2 2.36 2.36 0 0 1-.11.59 4.37 4.37 0 0 1-.25.48 3.36 3.36 0 0 0-1 2.37 4.07 4.07 0 0 0 .14.58 3.82 3.82 0 0 1 .59-2.12 10 10 0 0 0 .94-1.3c.23.41.52.81.79 1.21a2.11 2.11 0 0 1 .26.4 5 5 0 0 1 .39.76 3.6 3.6 0 0 0 .28.4 5.17 5.17 0 0 0-.62-1.43 4.57 4.57 0 0 1 3.26 1.07c0 .11.08.2.11.31s.05.24.07.37 0 .08 0 .11.12.2.19.3a5 5 0 0 0-.1-.87c.4.32.79.66 1.16 1l-.06-.16c-1-1-2.61-2.63-4.17-2.41h-.12a1 1 0 0 1-.69-.22 5.55 5.55 0 0 1-1.12-3.83 13.36 13.36 0 0 1 .52-1.74c.07-.22.1-.61.3-.77s.55.21.68.42a3 3 0 0 0 1.58 1.3c.59.21 1.1.46.81 1.2s-1.62 1.22-1.1 2.31a1.6 1.6 0 0 1 .3-1 9.57 9.57 0 0 1 .78-.78c0 .39.08 1.56.63 1.64a1.8 1.8 0 0 1-.39-1.13c0-.59.15-1.15.16-1.73a6.47 6.47 0 0 1 1.12.47 2.64 2.64 0 0 1 1.36 1.62 3 3 0 0 1-.46 2.13 2.1 2.1 0 0 0 .81-1.61 15.72 15.72 0 0 1 1.22 1.48 2.21 2.21 0 0 1 .24 1.81c.8-.92-.07-2-.69-2.73a4.09 4.09 0 0 1 1.84.88zM27.17 39.64a1.59 1.59 0 0 0 .5.21 1.94 1.94 0 0 0 .49.79l.39.29c.8.65 1.75 1.24 1.26 2.37a1.06 1.06 0 0 1-.59.35l.18.34a1 1 0 0 0 .31-.08.87.87 0 0 0 .55-.38.91.91 0 0 0 .11-.22 2 2 0 0 0 1.51 0 3.42 3.42 0 0 1 .46 0 1.43 1.43 0 0 0 .68.09 2.31 2.31 0 0 0 .52 0 1.19 1.19 0 0 0 .23-.07 1.34 1.34 0 0 0 .36-.46c-.44.48-1.18.28-1.74.23a1.75 1.75 0 0 0 .36-.36 2.3 2.3 0 0 0 .25-.66 2.77 2.77 0 0 1-.7.9 1.07 1.07 0 0 1-.8.18 2.44 2.44 0 0 1-1-.15 3.25 3.25 0 0 0-.08-1 3.25 3.25 0 0 1-.07-.83 2.27 2.27 0 0 0 1.24-.08 2 2 0 0 0 .61-.56v-.14a1 1 0 0 1-.54.42 1.91 1.91 0 0 1-.32.16 5.59 5.59 0 0 1-1 0 2.31 2.31 0 0 1 1.37-2.18h.06-.22a2 2 0 0 0-1 .74 2.52 2.52 0 0 1-.06-1 1.49 1.49 0 0 0-.1.93 1 1 0 0 0 .05.16 2.73 2.73 0 0 0-.35.86 3.84 3.84 0 0 0-.06 1.39 3 3 0 0 0-.43-.34l-.52-.32-.33-.25-.27-.23a2 2 0 0 0-.06-2.59l-.2-.15a2.12 2.12 0 0 1 .12 2.6 1.85 1.85 0 0 1-.41-.68 1.9 1.9 0 0 1-.24-.93 2.74 2.74 0 0 0 0 .28.93.93 0 0 0-.05.43.33.33 0 0 1-.14 0 1.11 1.11 0 0 1-.3-.17l-.31-.23a1.72 1.72 0 0 0 .25.37z"/><path class="cls-6" d="M37.94 55.83a1.79 1.79 0 0 0-1.08-.83c-.39-.15-.91-.23-1.17-.57a5.47 5.47 0 0 1-.62-1.14 3.61 3.61 0 0 0-2-1.55c1 .17 1.89.12 2.84.22.53 0 .65.25.71.75a1.6 1.6 0 0 0 .54 1 2.59 2.59 0 0 1-.35-1.44 3.66 3.66 0 0 1 .74.57 2.13 2.13 0 0 0-1.45-1.14 13.87 13.87 0 0 0-1.58-.17 11.19 11.19 0 0 1-2.94-.45c-.72-.26-2-1-1.87-1.9 1.24-.62 2.67.68 4 .53a2.23 2.23 0 0 0 .51-.12 3.39 3.39 0 0 1 .57.14 1.91 1.91 0 0 0 1.21.37 1.07 1.07 0 0 0 .75-.38 1.09 1.09 0 0 0 0-.26 1.33 1.33 0 0 1-1.32.37c-.19-.08-.39-.2-.55-.26l-.27-.09h-.11a1.14 1.14 0 0 0 .2-.23c.24-.36.41-1.18.84-1.5h-.1c-.43.13-.66.82-.92 1.16a1.62 1.62 0 0 1-.18.19 1 1 0 0 1-.59.32h-.17a4.08 4.08 0 0 1-1.42-.24 8.26 8.26 0 0 0-1.1-.31 3.35 3.35 0 0 0 1-1.54 1.41 1.41 0 0 0 1 0 1.16 1.16 0 0 0 .34-.33 2.5 2.5 0 0 1-1.22.1 2.75 2.75 0 0 1 2.55-1.56l-.17-.09a.31.31 0 0 0-.13 0 2.88 2.88 0 0 0-1.17.24c0-.13.05-.28.1-.4l.15-.28-.35.31a1.33 1.33 0 0 0-.07.45 2.58 2.58 0 0 0-.85.76 4 4 0 0 0-.23.39 6.09 6.09 0 0 1-.92 1.37 2 2 0 0 1-1.42.47.61.61 0 0 0-.31-.34c-.37-.42-.74-.84-1.1-1.27-.53-.63-1.72-2.18-.25-2.39.43-.06.86 0 1.23-.06 0-.1-.09-.21-.14-.31a5.47 5.47 0 0 0-1.41.08c-.45.14-.78.36-.8.85s.48 1.14.84 1.56a11.34 11.34 0 0 1 1.26 1.51c-.23.17-.21.4-.14.65a2.54 2.54 0 0 1-.12 1.25 4.41 4.41 0 0 1-2.46 2.92 9.21 9.21 0 0 0-1 .38 3.74 3.74 0 0 0-1 .64 2.44 2.44 0 0 0-.28.43 1.35 1.35 0 0 0-.08.19 5.31 5.31 0 0 1 1.88-1.22 6.39 6.39 0 0 0 .78-.36 3.19 3.19 0 0 0-.37.44 3.68 3.68 0 0 0-.43.81 2.82 2.82 0 0 0-.1 1.22 4.17 4.17 0 0 1 1.08-2.38c.25-.19.47-.43.73-.61a3 3 0 0 1 .37-.25.18.18 0 0 1 .17 0 5.3 5.3 0 0 0 .37 2 2.36 2.36 0 0 1-.11.59 4.37 4.37 0 0 1-.25.48 3.36 3.36 0 0 0-1 2.37 4.07 4.07 0 0 0 .14.58 3.82 3.82 0 0 1 .59-2.12 10 10 0 0 0 .94-1.3c.23.41.52.81.79 1.21a2.11 2.11 0 0 1 .26.4 5 5 0 0 1 .39.76 3.6 3.6 0 0 0 .28.4 4.89 4.89 0 0 0-.62-1.43A4.57 4.57 0 0 1 33 57.5c0 .11.08.2.11.31s.05.24.07.37a.36.36 0 0 0 0 .11l.19.3a5 5 0 0 0-.1-.87c.4.32.79.66 1.16 1a.76.76 0 0 0-.06-.16c-1-1-2.61-2.63-4.17-2.41h-.12a1 1 0 0 1-.69-.22 5.55 5.55 0 0 1-1.12-3.83 13.36 13.36 0 0 1 .52-1.74c.07-.22.11-.61.3-.77s.55.21.68.42a3 3 0 0 0 1.58 1.3c.59.21 1.1.46.81 1.2s-1.62 1.22-1.1 2.31a1.6 1.6 0 0 1 .3-1 9.57 9.57 0 0 1 .78-.78c0 .39.08 1.56.63 1.64a1.8 1.8 0 0 1-.39-1.13c0-.59.15-1.15.16-1.73a6.47 6.47 0 0 1 1.12.47 2.64 2.64 0 0 1 1.34 1.6 3 3 0 0 1-.48 2.11 2.1 2.1 0 0 0 .81-1.61 15.72 15.72 0 0 1 1.22 1.48 2.21 2.21 0 0 1 .24 1.81c.8-.92-.07-2-.69-2.73a4 4 0 0 1 1.84.88zM27.06 39.64a1.59 1.59 0 0 0 .5.21 1.94 1.94 0 0 0 .49.79l.39.29c.8.65 1.75 1.24 1.26 2.37a1.09 1.09 0 0 1-.59.35l.18.34a1 1 0 0 0 .31-.08.87.87 0 0 0 .55-.38.91.91 0 0 0 .11-.22 2 2 0 0 0 1.51 0 3.42 3.42 0 0 1 .46 0 1.43 1.43 0 0 0 .68.09 2.29 2.29 0 0 0 .52 0 1 1 0 0 0 .23-.07 1.34 1.34 0 0 0 .36-.46c-.44.48-1.18.28-1.74.23a1.5 1.5 0 0 0 .35-.36 1.86 1.86 0 0 0 .26-.66 2.89 2.89 0 0 1-.69.9 1.1 1.1 0 0 1-.81.18 2.39 2.39 0 0 1-1-.15 3.59 3.59 0 0 0-.09-1 3.77 3.77 0 0 1-.07-.83 2.27 2.27 0 0 0 1.24-.08 2 2 0 0 0 .61-.56v-.14a1 1 0 0 1-.54.42 1.91 1.91 0 0 1-.32.16 5.59 5.59 0 0 1-1 0 2.31 2.31 0 0 1 1.37-2.18h.06-.22a2 2 0 0 0-1 .74 2.52 2.52 0 0 1-.06-1 1.49 1.49 0 0 0-.1.93 1 1 0 0 0 .05.16 2.73 2.73 0 0 0-.35.86 3.84 3.84 0 0 0 .03 1.35 3 3 0 0 0-.43-.34l-.57-.32-.33-.25-.27-.23a2 2 0 0 0-.06-2.59l-.2-.15a2.12 2.12 0 0 1 .12 2.6 2 2 0 0 1-.41-.68 1.9 1.9 0 0 1-.24-.93 2.74 2.74 0 0 0-.05.28.93.93 0 0 0 0 .43.33.33 0 0 1-.14 0 1.11 1.11 0 0 1-.3-.17l-.31-.23a1.72 1.72 0 0 0 .25.37z"/><path class="cls-7" d="M40.68 58.8c-.25-4-.83-5-.83-5-.25-2.42-.58-2.46-.71-2.63a.28.28 0 0 1-.06-.21c0-.58-.39-3.47-3.21-8.74a16.61 16.61 0 0 0-6.69-7.07c-1.67-.77-4.17-1-5.14 1.61s-.38 7.71-.83 9.12a27.39 27.39 0 0 0-.66 3.62 31 31 0 0 1-.37 2 34.19 34.19 0 0 0-.55 6.34 33.77 33.77 0 0 0 .18 3.92 14.16 14.16 0 0 0 .75 3.24c1.48 3.72 5 3.47 9.45 4a10.94 10.94 0 0 0 3.78-.18 29.89 29.89 0 0 1-8.85-.93c-2.56-.71-3.6-1.43-4.25-3.48a14.69 14.69 0 0 1-.63-4c0-1.07 1.48-2.56 7.75-.64.83.26 1.58.52 2.27.79l.55.22c4.08 1.69 5.56 3.52 6.18 4.83a1.87 1.87 0 0 1-.08 1.9 4.72 4.72 0 0 0 1.06-1c.7-.89 1.15-3.66.89-7.71zM29 59a20 20 0 0 0-5.31-.64c-.9.06-1.59.17-1.48-2a15.71 15.71 0 0 1 .44-3.25c.22-1.15.69 2.42 4.26 3.52C30 57.6 30.07 59.42 29 59zm-2.5-11c.55-3.14-.17-7.93-.11-9.85S28 36.5 28 36.5c3.46.94 7.31 6.33 8.58 10s-.22 8-3.25 8S26 51.08 26.5 48zm12.82 13.86c-.45 1.93-2 .94-3.43.09-2.34-1.43.39-2.35 2-4.43 1-1.19 1.38.11 1.38.11a8.86 8.86 0 0 1 .05 4.23z"/><path class="cls-7" d="M23 49.4c.3.39.64 1.09 1.17.8a3.36 3.36 0 0 0 1-1.21 6.87 6.87 0 0 0 .9-3.08 17 17 0 0 0-.6-3.95c-.5-2.26-1-5.93 1.09-7.37A2.93 2.93 0 0 0 24 36.7c-1 2.64-.38 7.71-.83 9.12a19.58 19.58 0 0 0-.56 3 3.5 3.5 0 0 0 .39.58z"/><path class="cls-9" d="M23.53 65.62A5.35 5.35 0 0 0 27 67.69c2.64.64 6.54 1.17 8.17.88a36 36 0 0 1-6.54-.8c-3.2-.77-4.41-1.4-5.1-2.15z"/><path class="cls-12" d="M27.2 45c1.91.12 2.75-.76 2.58-1.25s-.77 0-2.13-.1A6.41 6.41 0 0 1 26 43.4a20.14 20.14 0 0 0-1.45-1.65c-2.53-2.53-3-2.78-3.15-3.38V16.28h-1.93v22.11c-.12.6-.62.85-3.14 3.38a20.29 20.29 0 0 0-1.46 1.65 5.87 5.87 0 0 1-1.65.3c-1.36.06-2-.44-2.13.09s.67 1.37 2.59 1.25c-1 1.54-1.75 2.9-2.15 3.48-.68 1-.12 1.37.3 1.24s1.53-1.57 2.67-3.09a19.53 19.53 0 0 1 4.06-4.25 3.35 3.35 0 0 1 3.75 0 19.3 19.3 0 0 1 4.06 4.25c1.14 1.52 2.26 3 2.68 3.09s1-.25.29-1.24c-.4-.6-1.11-1.96-2.14-3.54z"/><path class="cls-6" d="M11.67 49.87a.52.52 0 0 1-.46-.26c-.1-.18-.13-.52.27-1.1.16-.23.37-.58.63-1 .39-.66.86-1.47 1.45-2.35h-.22a2.5 2.5 0 0 1-2.18-.8.62.62 0 0 1-.13-.55.39.39 0 0 1 .42-.29 3.12 3.12 0 0 1 .45.06 6.61 6.61 0 0 0 1.32.1 6.88 6.88 0 0 0 1.62-.29 19.83 19.83 0 0 1 1.44-1.64c.81-.81 1.42-1.39 1.86-1.82.94-.9 1.19-1.14 1.27-1.52V16.28a.06.06 0 0 1 .06-.06h1.93a.06.06 0 0 1 .06.06v22.08c.08.39.34.63 1.27 1.53.44.42 1.05 1 1.86 1.82.48.49 1 1 1.45 1.64a6.3 6.3 0 0 0 1.62.28 5.93 5.93 0 0 0 1.34-.09 2.23 2.23 0 0 1 .45-.06.39.39 0 0 1 .42.29.62.62 0 0 1-.12.55 2.55 2.55 0 0 1-2.19.79h-.22c.59.88 1.07 1.69 1.45 2.35.27.44.47.8.63 1 .4.57.37.91.27 1.1a.5.5 0 0 1-.46.26.51.51 0 0 1-.17 0c-.41-.12-1.38-1.33-2.71-3.12a19.11 19.11 0 0 0-4-4.23 3.3 3.3 0 0 0-3.68 0 19.59 19.59 0 0 0-4.05 4.23c-1.33 1.79-2.3 3-2.71 3.12a.47.47 0 0 1-.24.05zm2-4.87a.07.07 0 0 1 .05.1c-.62.92-1.12 1.76-1.52 2.44-.26.45-.47.8-.63 1-.38.55-.33.85-.26 1a.38.38 0 0 0 .35.2h.14a14.23 14.23 0 0 0 2.64-3.08 19.64 19.64 0 0 1 4.08-4.26 3.44 3.44 0 0 1 3.81 0 19.47 19.47 0 0 1 4.08 4.27 14.09 14.09 0 0 0 2.64 3.07h.14a.41.41 0 0 0 .36-.2c.06-.13.12-.42-.27-1-.16-.24-.37-.59-.63-1-.4-.68-.9-1.52-1.51-2.44a.06.06 0 0 1 0-.07h.39a2.56 2.56 0 0 0 2.09-.74.52.52 0 0 0 .11-.44.27.27 0 0 0-.31-.21 2.83 2.83 0 0 0-.43 0 5.92 5.92 0 0 1-1.34.11 6.45 6.45 0 0 1-1.65-.3 15.81 15.81 0 0 0-1.5-1.65c-.8-.82-1.41-1.4-1.85-1.82-1-.93-1.22-1.17-1.31-1.6V16.34h-1.81v22.05c-.08.43-.34.67-1.3 1.6-.45.42-1.05 1-1.86 1.82a18.37 18.37 0 0 0-1.45 1.64 6.53 6.53 0 0 1-1.67.3 6.83 6.83 0 0 1-1.34-.1 3.09 3.09 0 0 0-.43-.06.27.27 0 0 0-.3.21.48.48 0 0 0 .1.44 2.56 2.56 0 0 0 2.09.74h.34z"/><g style="mix-blend-mode:multiply" opacity=".4"><path class="cls-12" d="M17.56 42c-2.34 1.43-6.22 7.73-6.22 7.73a.51.51 0 0 0 .49.1c.42-.12 1.53-1.57 2.67-3.09a19.53 19.53 0 0 1 4.06-4.25 3.39 3.39 0 0 1 2.67-.49 3.93 3.93 0 0 0-3.67 0zm9.67 2.25s-.37-.16-.26.06a5.48 5.48 0 0 0 .32.74c1.85.08 2.66-.78 2.49-1.26a5 5 0 0 1-2.55.46zM14 44.11a3.92 3.92 0 0 1-2.88-.35v.05c-.17.49.67 1.37 2.59 1.25a.36.36 0 0 1-.07.1c.58-.67.36-1.05.36-1.05z"/><path class="cls-12" d="M27.2 45l-.53-.73a9.32 9.32 0 0 1-.65-.9 20.14 20.14 0 0 0-1.45-1.65c-2.53-2.53-3-2.78-3.15-3.38V16.28h-.91v22a1.7 1.7 0 0 0 .49 1.46 28.34 28.34 0 0 1 5.7 5.73c1.51 2.14 2.42 3.6 2.8 4.23.23-.16.3-.54-.14-1.18S28.23 46.58 27.2 45z"/></g><path d="M22.67 14.59a2 2 0 0 0-.91.09 5.94 5.94 0 0 1-1.15.12h-.35a6 6 0 0 1-1.15-.12 2 2 0 0 0-.91-.09c-.52.13-.17 1.18-.17 1.18.07.22.29.36.8.51s-.09.77.27 1.27c.18.25.47.11.78 0a1.66 1.66 0 0 1 .55-.17 1.66 1.66 0 0 1 .55.17c.32.15.6.29.79 0 .35-.5-.25-1.12.26-1.27s.73-.29.8-.51c.01 0 .36-1.05-.16-1.18z" fill="#e20039"/><path class="cls-11" d="M21.51 17.75a1.5 1.5 0 0 1-.52-.17 1.49 1.49 0 0 0-.52-.16 1.55 1.55 0 0 0-.52.16 1.5 1.5 0 0 1-.52.17.37.37 0 0 1-.31-.17.89.89 0 0 1-.09-.77c.05-.28.06-.41-.15-.47-.52-.16-.76-.31-.84-.55a1.7 1.7 0 0 1 0-1.07.37.37 0 0 1 .25-.19.78.78 0 0 1 .22 0 2.05 2.05 0 0 1 .51.08h.2a5.23 5.23 0 0 0 1.12.11h.4a5.12 5.12 0 0 0 1.11-.11h.2a2.13 2.13 0 0 1 .51-.08.78.78 0 0 1 .22 0 .39.39 0 0 1 .26.19 1.75 1.75 0 0 1 0 1.07c-.08.24-.31.39-.84.55-.21.06-.19.19-.14.47a.94.94 0 0 1-.1.77.36.36 0 0 1-.45.17zm-1.07-.47a1.75 1.75 0 0 1 .58.17 1.27 1.27 0 0 0 .46.16.26.26 0 0 0 .22-.12.86.86 0 0 0 .07-.68c-.05-.25-.09-.51.23-.61.48-.14.69-.27.76-.46 0 0 .21-.67 0-1a.24.24 0 0 0-.17-.13 1.5 1.5 0 0 0-.68 0h-.21a5.41 5.41 0 0 1-1.15.11h-.36a5.52 5.52 0 0 1-1.16-.11h-.2a1.51 1.51 0 0 0-.68 0 .24.24 0 0 0-.18.13c-.17.31.05 1 .05 1 .06.19.27.32.76.46.32.1.27.36.23.61a.82.82 0 0 0 .07.68.24.24 0 0 0 .21.12 1.37 1.37 0 0 0 .47-.16 1.7 1.7 0 0 1 .57-.17z"/><path d="M25.29 5.53a16.57 16.57 0 0 1-1.84-.91 4.06 4.06 0 0 1-1.22-2.72A1.87 1.87 0 0 0 20.44.06a1.87 1.87 0 0 0-1.8 1.84 4.05 4.05 0 0 1-1.21 2.72 17.49 17.49 0 0 1-1.84.91 3.7 3.7 0 0 0-1.5 3.65 4.77 4.77 0 0 0 2.31 3.33 7.88 7.88 0 0 0 3.6.89h.83a7.84 7.84 0 0 0 3.62-.89 4.79 4.79 0 0 0 2.32-3.33 3.72 3.72 0 0 0-1.48-3.65z" fill="#fc8053"/><path d="M20.51 13.46H20a7.78 7.78 0 0 1-3.65-.9A4.82 4.82 0 0 1 14 9.19a3.74 3.74 0 0 1 1.53-3.71 5.66 5.66 0 0 1 .82-.39 4.17 4.17 0 0 0 1-.52 3.87 3.87 0 0 0 1.23-2.67A1.94 1.94 0 0 1 20.42 0a1.93 1.93 0 0 1 1.85 1.9 4 4 0 0 0 1.19 2.67 4.07 4.07 0 0 0 1 .52 6.88 6.88 0 0 1 .82.39 3.78 3.78 0 0 1 1.53 3.71 4.83 4.83 0 0 1-2.35 3.37 7.75 7.75 0 0 1-3.65.9zm-.08-.12h.42a7.65 7.65 0 0 0 3.59-.88 4.73 4.73 0 0 0 2.29-3.29 3.65 3.65 0 0 0-1.48-3.59 5.39 5.39 0 0 0-.8-.38 3.79 3.79 0 0 1-1-.54 4 4 0 0 1-1.24-2.75A1.81 1.81 0 0 0 20.44.12a1.82 1.82 0 0 0-1.74 1.79 4 4 0 0 1-1.23 2.75 3.85 3.85 0 0 1-1 .54 5.39 5.39 0 0 0-.8.38 3.62 3.62 0 0 0-1.47 3.59 4.71 4.71 0 0 0 2.28 3.29 7.65 7.65 0 0 0 3.59.88h.41z" fill="#cf4946"/><path d="M24.39 6.66c-.39-.25-2.22-.37-2.61-.66-.65-.48.21-1.27.12-2a1.47 1.47 0 0 0-1.46-1.36A1.47 1.47 0 0 0 19 4c-.09.73.67 1.58 0 2.06-.39.3-2.06.36-2.51.61a2.62 2.62 0 0 0-1.23 2.69 3.6 3.6 0 0 0 1.89 2.46 6.81 6.81 0 0 0 3 .65h.67a6.77 6.77 0 0 0 3-.65 3.54 3.54 0 0 0 1.89-2.46 2.62 2.62 0 0 0-1.32-2.7z" style="mix-blend-mode:screen" fill="#fc8053" opacity=".6"/><path class="cls-12" d="M22.81 12.37c-1-.81-1.4-.42-1.85.34a.81.81 0 0 1-.45.43h-.14c-.15 0-.3-.17-.46-.43-.44-.76-.86-1.15-1.84-.34s-1.18.75-.73 1.43a3.6 3.6 0 0 1 .41 1.8c.05.36.69.86 1.12 1.12a.67.67 0 0 0 .21.1 5 5 0 0 0 1.36.17 4.88 4.88 0 0 0 1.35-.17.67.67 0 0 0 .21-.1c.43-.26 1.07-.76 1.12-1.12a3.51 3.51 0 0 1 .42-1.8c.46-.68.25-.63-.73-1.43z"/><path class="cls-6" d="M20.51 17.05h-.14a5.26 5.26 0 0 1-1.31-.17.9.9 0 0 1-.22-.11c-.4-.24-1.09-.75-1.15-1.16a4.7 4.7 0 0 1-.05-.5 2.28 2.28 0 0 0-.35-1.28c-.41-.61-.3-.7.32-1.18l.42-.33a1.63 1.63 0 0 1 1-.46c.41 0 .68.33 1 .82a.81.81 0 0 0 .41.4h.14a.83.83 0 0 0 .4-.4c.29-.49.56-.82 1-.82a1.65 1.65 0 0 1 1 .46l.41.33c.62.48.73.57.33 1.18a2.22 2.22 0 0 0-.36 1.28 4.7 4.7 0 0 1-.05.5c-.06.41-.75.92-1.15 1.16a.9.9 0 0 1-.22.11 5.24 5.24 0 0 1-1.43.17zm-.07-.12h.07a5.46 5.46 0 0 0 1.26-.16l.2-.1c.41-.25 1-.74 1.09-1.08a4.28 4.28 0 0 0 .05-.49 2.32 2.32 0 0 1 .38-1.33c.34-.52.32-.54-.3-1-.12-.1-.26-.2-.42-.34a1.55 1.55 0 0 0-.89-.43c-.35 0-.59.29-.87.76a.87.87 0 0 1-.49.46h-.17a.87.87 0 0 1-.49-.46c-.28-.47-.52-.76-.87-.76a1.55 1.55 0 0 0-.89.43c-.16.14-.3.24-.42.34-.61.48-.64.5-.29 1a2.31 2.31 0 0 1 .37 1.33 4.28 4.28 0 0 0 0 .49c.05.34.68.83 1.09 1.08a1.24 1.24 0 0 0 .2.1 5.17 5.17 0 0 0 1.39.16z"/><path class="cls-18" d="M20.13 15.79a7.42 7.42 0 0 0 0-2c-.19-.64-.71-1.53-1.24-1.36s-1.47.72-1.1 1.07a1.68 1.68 0 0 1 .5 1.38c-.08 1.05 1.71 2.04 1.84.91z"/><path class="cls-18" d="M20 15.77a4.84 4.84 0 0 0 0-1.32c-.12-.42-.46-1-.81-.89s-1 .47-.71.7a1.12 1.12 0 0 1 .32.9c-.05.71 1.12 1.35 1.2.61zm.85.02a7 7 0 0 1 0-2c.19-.64.7-1.53 1.24-1.36s1.46.72 1.09 1.07a1.7 1.7 0 0 0-.49 1.38c.08 1.05-1.69 2.04-1.84.91z"/><path class="cls-18" d="M20.94 15.74a4.86 4.86 0 0 1 0-1.34c.12-.42.47-1 .82-.9s1 .48.72.71a1.14 1.14 0 0 0-.32.91c.05.72-1.16 1.37-1.22.62z"/><path class="cls-10" d="M22.14 18.62a.59.59 0 0 1-.59.59h-2.23a.59.59 0 0 1-.59-.59.6.6 0 0 1 .59-.59h2.23a.6.6 0 0 1 .59.59z"/><path class="cls-19" d="M21.55 19.27h-2.23a.65.65 0 1 1 0-1.3h2.23a.65.65 0 1 1 0 1.3zm-2.23-1.18a.53.53 0 0 0 0 1.06h2.23a.53.53 0 1 0 0-1.06z"/><path class="cls-20" d="M18.74 18.64a.58.58 0 0 0 .58.57h2.23a.59.59 0 0 0 .59-.57z"/><path class="cls-21" d="M18.92 18.47a.47.47 0 0 1 .39-.29h2.23l-2.22.08a.65.65 0 0 0-.4.21z"/><path class="cls-10" d="M22.14 20.15a.59.59 0 0 1-.59.59h-2.23a.59.59 0 0 1-.59-.59.59.59 0 0 1 .59-.58h2.23a.59.59 0 0 1 .59.58z"/><path class="cls-19" d="M21.55 20.8h-2.23a.65.65 0 1 1 0-1.29h2.23a.65.65 0 1 1 0 1.29zm-2.23-1.17a.52.52 0 0 0-.52.52.52.52 0 0 0 .52.53h2.23a.53.53 0 0 0 .53-.53.52.52 0 0 0-.53-.52z"/><path class="cls-20" d="M18.74 20.17a.57.57 0 0 0 .58.57h2.23a.59.59 0 0 0 .59-.57z"/><path class="cls-21" d="M18.92 20a.47.47 0 0 1 .39-.29h2.23l-2.22.08a.65.65 0 0 0-.4.21z"/><path class="cls-10" d="M22.14 21.69a.59.59 0 0 1-.59.58h-2.23a.59.59 0 0 1-.59-.58.59.59 0 0 1 .59-.59h2.23a.59.59 0 0 1 .59.59z"/><path class="cls-19" d="M21.55 22.33h-2.23a.65.65 0 1 1 0-1.29h2.23a.65.65 0 1 1 0 1.29zm-2.23-1.17a.52.52 0 0 0-.52.53.52.52 0 0 0 .52.52h2.23a.52.52 0 0 0 .53-.52.53.53 0 0 0-.53-.53z"/><path class="cls-20" d="M18.74 21.7a.57.57 0 0 0 .58.57h2.23a.59.59 0 0 0 .59-.57z"/><path class="cls-21" d="M18.92 21.53a.49.49 0 0 1 .39-.29h2.23l-2.22.08a.65.65 0 0 0-.4.21z"/><path class="cls-10" d="M22.14 23.22a.6.6 0 0 1-.59.59h-2.23a.6.6 0 0 1-.59-.59.59.59 0 0 1 .59-.59h2.23a.59.59 0 0 1 .59.59z"/><path class="cls-19" d="M21.55 23.87h-2.23a.66.66 0 0 1-.65-.65.66.66 0 0 1 .65-.65h2.23a.65.65 0 0 1 0 1.3zm-2.23-1.18a.52.52 0 0 0-.52.53.52.52 0 0 0 .52.52h2.23a.52.52 0 0 0 .53-.52.53.53 0 0 0-.53-.53z"/><path class="cls-20" d="M18.74 23.23a.58.58 0 0 0 .58.58h2.23a.6.6 0 0 0 .59-.58z"/><path class="cls-21" d="M18.92 23.06a.47.47 0 0 1 .39-.28h2.23l-2.22.08a.66.66 0 0 0-.4.2z"/><path class="cls-10" d="M22.14 24.75a.6.6 0 0 1-.59.59h-2.23a.6.6 0 0 1-.59-.59.59.59 0 0 1 .59-.59h2.23a.59.59 0 0 1 .59.59z"/><path class="cls-19" d="M21.55 25.4h-2.23a.65.65 0 0 1 0-1.3h2.23a.65.65 0 0 1 0 1.3zm-2.23-1.18a.53.53 0 0 0 0 1.06h2.23a.53.53 0 1 0 0-1.06z"/><path class="cls-20" d="M18.74 24.77a.58.58 0 0 0 .58.57h2.23a.59.59 0 0 0 .59-.57z"/><path class="cls-21" d="M18.92 24.59a.47.47 0 0 1 .39-.28h2.23l-2.22.08a.66.66 0 0 0-.4.2z"/><path class="cls-10" d="M22.14 26.28a.6.6 0 0 1-.59.59h-2.23a.6.6 0 0 1-.59-.59.6.6 0 0 1 .59-.59h2.23a.6.6 0 0 1 .59.59z"/><path class="cls-19" d="M21.55 26.93h-2.23a.65.65 0 0 1 0-1.3h2.23a.65.65 0 1 1 0 1.3zm-2.23-1.18a.53.53 0 0 0 0 1.06h2.23a.53.53 0 1 0 0-1.06z"/><path class="cls-20" d="M18.74 26.3a.58.58 0 0 0 .58.57h2.23a.59.59 0 0 0 .59-.57z"/><path class="cls-21" d="M18.92 26.13a.47.47 0 0 1 .39-.29h2.23l-2.22.08a.65.65 0 0 0-.4.21z"/><path class="cls-10" d="M22.14 27.81a.59.59 0 0 1-.59.59h-2.23a.59.59 0 0 1-.59-.59.59.59 0 0 1 .59-.58h2.23a.59.59 0 0 1 .59.58z"/><path class="cls-19" d="M21.55 28.46h-2.23a.66.66 0 0 1-.65-.65.66.66 0 0 1 .65-.65h2.23a.65.65 0 0 1 0 1.3zm-2.23-1.17a.52.52 0 0 0-.52.52.52.52 0 0 0 .52.53h2.23a.53.53 0 0 0 .53-.53.52.52 0 0 0-.53-.52z"/><path class="cls-20" d="M18.74 27.83a.57.57 0 0 0 .58.57h2.23a.59.59 0 0 0 .59-.57z"/><path class="cls-21" d="M18.92 27.66a.47.47 0 0 1 .39-.29h2.23l-2.22.08a.65.65 0 0 0-.4.21z"/><path class="cls-10" d="M22.14 29.34a.59.59 0 0 1-.59.59h-2.23a.59.59 0 0 1-.59-.59.59.59 0 0 1 .59-.58h2.23a.59.59 0 0 1 .59.58z"/><path class="cls-19" d="M21.55 30h-2.23a.65.65 0 1 1 0-1.29h2.23a.65.65 0 1 1 0 1.29zm-2.23-1.17a.53.53 0 0 0 0 1.05h2.23a.53.53 0 1 0 0-1.05z"/><path class="cls-20" d="M18.74 29.36a.57.57 0 0 0 .58.57h2.23a.59.59 0 0 0 .59-.57z"/><path class="cls-21" d="M18.92 29.19a.49.49 0 0 1 .39-.29h2.23l-2.22.1a.65.65 0 0 0-.4.19z"/><path class="cls-10" d="M22.14 30.88a.59.59 0 0 1-.59.58h-2.23a.59.59 0 0 1-.59-.58.59.59 0 0 1 .59-.59h2.23a.59.59 0 0 1 .59.59z"/><path class="cls-19" d="M21.55 31.52h-2.23a.65.65 0 1 1 0-1.29h2.23a.65.65 0 1 1 0 1.29zm-2.23-1.17a.52.52 0 0 0-.52.53.52.52 0 0 0 .52.52h2.23a.52.52 0 0 0 .53-.52.53.53 0 0 0-.53-.53z"/><path class="cls-20" d="M18.74 30.89a.57.57 0 0 0 .58.57h2.23a.59.59 0 0 0 .59-.57z"/><path class="cls-21" d="M18.92 30.72a.47.47 0 0 1 .39-.28h2.23l-2.22.08a.66.66 0 0 0-.4.2z"/><path class="cls-10" d="M22.14 32.41a.6.6 0 0 1-.59.59h-2.23a.6.6 0 0 1-.59-.59.59.59 0 0 1 .59-.59h2.23a.59.59 0 0 1 .59.59z"/><path class="cls-19" d="M21.55 33.06h-2.23a.65.65 0 0 1 0-1.3h2.23a.65.65 0 0 1 0 1.3zm-2.23-1.18a.53.53 0 0 0 0 1.06h2.23a.53.53 0 1 0 0-1.06z"/><path class="cls-20" d="M18.74 32.42a.58.58 0 0 0 .58.58h2.23a.6.6 0 0 0 .59-.58z"/><path class="cls-21" d="M18.92 32.25a.47.47 0 0 1 .39-.28h2.23l-2.22.08a.66.66 0 0 0-.4.2z"/><path class="cls-10" d="M22.14 33.94a.59.59 0 0 1-.59.59h-2.23a.59.59 0 0 1-.59-.59.6.6 0 0 1 .59-.59h2.23a.6.6 0 0 1 .59.59z"/><path class="cls-19" d="M21.55 34.59h-2.23a.65.65 0 0 1 0-1.3h2.23a.65.65 0 0 1 0 1.3zm-2.23-1.18a.53.53 0 0 0 0 1.06h2.23a.53.53 0 1 0 0-1.06z"/><path class="cls-20" d="M18.74 34a.58.58 0 0 0 .58.57h2.23a.59.59 0 0 0 .59-.57z"/><path class="cls-21" d="M18.92 33.79a.47.47 0 0 1 .39-.29h2.23l-2.22.08a.65.65 0 0 0-.4.21z"/><path class="cls-10" d="M22.14 35.47a.59.59 0 0 1-.59.59h-2.23a.59.59 0 0 1-.59-.59.6.6 0 0 1 .59-.59h2.23a.6.6 0 0 1 .59.59z"/><path class="cls-19" d="M21.55 36.12h-2.23a.65.65 0 0 1 0-1.3h2.23a.65.65 0 0 1 0 1.3zm-2.23-1.18a.53.53 0 0 0 0 1.06h2.23a.53.53 0 1 0 0-1.06z"/><path class="cls-20" d="M18.74 35.49a.57.57 0 0 0 .58.57h2.23a.59.59 0 0 0 .59-.57z"/><path class="cls-21" d="M18.92 35.32a.47.47 0 0 1 .39-.29h2.23l-2.22.08a.65.65 0 0 0-.4.21z"/><path class="cls-10" d="M22.14 37a.59.59 0 0 1-.59.59h-2.23a.59.59 0 0 1-.59-.59.59.59 0 0 1 .59-.58h2.23a.59.59 0 0 1 .59.58z"/><path class="cls-19" d="M21.55 37.65h-2.23a.66.66 0 0 1-.65-.65.66.66 0 0 1 .65-.65h2.23a.65.65 0 0 1 0 1.3zm-2.23-1.17a.52.52 0 0 0-.52.52.52.52 0 0 0 .52.53h2.23a.53.53 0 0 0 .53-.53.52.52 0 0 0-.53-.52z"/><path class="cls-20" d="M18.74 37a.57.57 0 0 0 .58.57h2.23a.59.59 0 0 0 .59-.57z"/><path class="cls-21" d="M18.92 36.85a.47.47 0 0 1 .39-.29h2.23l-2.22.08a.65.65 0 0 0-.4.21z"/><path class="cls-10" d="M22.14 38.54a.59.59 0 0 1-.59.58h-2.23a.59.59 0 0 1-.59-.58.59.59 0 0 1 .59-.59h2.23a.59.59 0 0 1 .59.59z"/><path class="cls-19" d="M21.55 39.18h-2.23a.65.65 0 1 1 0-1.29h2.23a.65.65 0 1 1 0 1.29zM19.32 38a.53.53 0 0 0 0 1.05h2.23a.53.53 0 1 0 0-1.05z"/><path class="cls-20" d="M18.74 38.55a.57.57 0 0 0 .58.57h2.23a.59.59 0 0 0 .59-.57z"/><path class="cls-21" d="M18.92 38.38a.49.49 0 0 1 .39-.29h2.23l-2.22.08a.65.65 0 0 0-.4.21z"/><path d="M21.55 18h-1v1.18h1.22l.08-.06a.58.58 0 0 0 .18-.4.6.6 0 0 0-.48-.72zm0 1.57h-1v1.17h1.22a.24.24 0 0 0 .08-.06.58.58 0 0 0 .18-.4.59.59 0 0 0-.48-.71zm0 1.53h-1v1.17h1.27a.27.27 0 0 0 .08-.07.62.62 0 0 0 .18-.41.59.59 0 0 0-.53-.69zm0 1.53h-1v1.18h1.25a.27.27 0 0 0 .08-.07.62.62 0 0 0 .18-.41.59.59 0 0 0-.51-.7zm0 1.53h-1v1.18h1.22l.08-.06a.6.6 0 0 0 .18-.4.59.59 0 0 0-.48-.72zm0 1.53h-1v1.18h1.22l.08-.06a.58.58 0 0 0 .18-.4.6.6 0 0 0-.48-.72zm0 1.54h-1v1.17h1.22l.08-.06a.58.58 0 0 0 .18-.4.59.59 0 0 0-.48-.71zm0 1.53h-1v1.17h1.22a.24.24 0 0 0 .08-.06.62.62 0 0 0 .18-.41.59.59 0 0 0-.48-.7zm0 1.53h-1v1.17h1.27a.27.27 0 0 0 .18-.16.62.62 0 0 0 .18-.41.59.59 0 0 0-.63-.6zm0 1.53h-1V33h1.25l.08-.06a.6.6 0 0 0 .18-.4.59.59 0 0 0-.51-.72zm0 1.53h-1v1.18h1.22l.08-.06a.6.6 0 0 0 .18-.4.6.6 0 0 0-.48-.72zm0 1.53h-1v1.18h1.22l.23-.16a.58.58 0 0 0 .18-.4.6.6 0 0 0-.63-.62zm0 1.54h-1v1.17h1.22a.24.24 0 0 0 .08-.06.58.58 0 0 0 .18-.4.59.59 0 0 0-.48-.71zm0 1.58h-1v1.17h1.27A.24.24 0 0 0 22 39a.62.62 0 0 0 .18-.41.59.59 0 0 0-.63-.59z" style="mix-blend-mode:multiply" fill="#f29f93" opacity=".5"/><path class="cls-10" d="M13.71 43.62c.07.17-.18.14-.44 1.55 0 .17-.66 0-.66-.21 0-.58.17-1.3.49-1.48.11-.07.52-.06.61.14z"/><path class="cls-19" d="M13.14 45.29c-.2 0-.59-.15-.59-.33 0-.62.18-1.34.52-1.54.14-.08.59-.07.7.18v.24a4.39 4.39 0 0 0-.41 1.34s-.08.11-.22.11zm.15-1.79a.4.4 0 0 0-.16 0c-.3.17-.46.86-.46 1.43 0 .06.27.21.47.21h.07a4.43 4.43 0 0 1 .41-1.37c.05-.09.05-.1 0-.13a.43.43 0 0 0-.33-.14z"/><path class="cls-10" d="M12.41 43.54c.06.14-.16.12-.38 1.33 0 .15-.57 0-.57-.18 0-.49.14-1.12.42-1.27.1-.06.46-.05.53.12z"/><path class="cls-19" d="M11.92 45c-.18 0-.52-.13-.52-.3 0-.53.16-1.16.45-1.33.13-.07.52-.06.62.16a.21.21 0 0 1 0 .21 4.14 4.14 0 0 0-.34 1.15.16.16 0 0 1-.21.11zm.13-1.54h-.14c-.24.14-.39.73-.39 1.22 0 .05.24.18.4.18H12a3.86 3.86 0 0 1 .36-1.19v-.1c0-.02-.18-.12-.31-.12z"/><path class="cls-10" d="M19.9 41.89c-.11-.2-.23-.4-.33-.61s-.28-.49-.37-.71c-.16-.42-.35-.85-.47-1.2a.32.32 0 0 0-.12-.14c-.32-.2-.78.19-.83.39a1.37 1.37 0 0 0 .09.6 7.54 7.54 0 0 0 .3.79 5.31 5.31 0 0 0 .83 1.22c.16.25 1.07-.06.9-.34z"/><path class="cls-19" d="M19.22 42.38a.4.4 0 0 1-.31-.11 5.59 5.59 0 0 1-.8-1.24c-.1-.25-.22-.52-.3-.79a1.22 1.22 0 0 1-.07-.6.8.8 0 0 1 .68-.49.48.48 0 0 1 .24.07.46.46 0 0 1 .14.17c.08.25.2.53.32.83l.15.37a4.1 4.1 0 0 0 .21.42c.05.1.11.19.15.28s.19.36.29.53l.05.08a.2.2 0 0 1 0 .2.93.93 0 0 1-.75.28zm-.81-3.15a.73.73 0 0 0-.57.4 1 1 0 0 0 .08.54 6.47 6.47 0 0 0 .3.77 5 5 0 0 0 .78 1.25c0 .05.11.07.21.07a.86.86 0 0 0 .63-.26.07.07 0 0 0 0-.08v-.08a4.68 4.68 0 0 1-.3-.54c0-.08-.09-.18-.15-.28a2.84 2.84 0 0 1-.21-.43l-.18-.36c-.12-.3-.24-.59-.33-.83a.19.19 0 0 0-.09-.12.34.34 0 0 0-.17-.05z"/><path class="cls-20" d="M19.57 41.28c-.1-.2-.24-.44-.34-.65a6.23 6.23 0 0 0-1 .52 6 6 0 0 0 .77 1.08c.2.25 1.11-.06.94-.34s-.27-.4-.37-.61z"/><path class="cls-10" d="M17.25 40.42c.26.11 0 .34 1.42 2.2.18.23-.65.62-.85.43-.69-.65-1.4-1.64-1.32-2.17 0-.19.43-.6.75-.46z"/><path class="cls-19" d="M18 43.16a.31.31 0 0 1-.22-.07c-.72-.69-1.41-1.67-1.33-2.22a.82.82 0 0 1 .67-.54.29.29 0 0 1 .16 0c.12.05.15.12.22.28a8.4 8.4 0 0 0 1.23 1.93.18.18 0 0 1 0 .2 1 1 0 0 1-.73.42zm-.88-2.71a.7.7 0 0 0-.55.44c-.07.5.61 1.46 1.3 2.11H18a.91.91 0 0 0 .64-.31v-.07a8.65 8.65 0 0 1-1.24-2c-.07-.15-.08-.18-.16-.21a.2.2 0 0 0-.13.04z"/><path class="cls-10" d="M16 41.64c.27.07 0 .33 1.6 2 .19.2-.61.7-.83.53-.74-.54-1.53-1.41-1.48-1.94 0-.18.38-.64.71-.54z"/><path class="cls-19" d="M16.87 44.22a.25.25 0 0 1-.16 0c-.78-.58-1.55-1.45-1.5-2a.82.82 0 0 1 .68-.61H16c.12 0 .16.1.24.24a7.5 7.5 0 0 0 1.38 1.73.18.18 0 0 1 0 .2 1.08 1.08 0 0 1-.75.44zm-1-2.53a.71.71 0 0 0-.56.49c0 .5.72 1.35 1.45 1.89a.12.12 0 0 0 .09 0 1 1 0 0 0 .67-.4v-.06a7.87 7.87 0 0 1-1.4-1.76c-.07-.13-.09-.16-.17-.18z"/><path class="cls-10" d="M15 43.05c.25 0 0 .3 1.59 1.6.19.16-.51.69-.72.57-.71-.42-1.49-1.13-1.49-1.61 0-.17.3-.61.62-.56z"/><path class="cls-19" d="M15.93 45.3a.24.24 0 0 1-.12 0c-.75-.45-1.51-1.16-1.51-1.66 0-.21.34-.68.69-.62.11 0 .16.08.24.2a6.6 6.6 0 0 0 1.37 1.42s.08.08 0 .19a1 1 0 0 1-.67.47zm-1-2.2c-.25 0-.51.38-.51.51 0 .45.75 1.14 1.46 1.55a.91.91 0 0 0 .6-.43 6.7 6.7 0 0 1-1.4-1.44c-.08-.12-.1-.14-.16-.15z"/><path class="cls-10" d="M13.88 44.37c.25 0 .07.28 1.65 1.39.2.14-.41.7-.63.6-.71-.34-1.51-1-1.55-1.41 0-.15.23-.6.53-.58z"/><path class="cls-19" d="M15 46.43h-.08c-.76-.36-1.55-1-1.59-1.45a.77.77 0 0 1 .21-.47.48.48 0 0 1 .39-.18c.11 0 .16.07.25.17a6.32 6.32 0 0 0 1.43 1.23.16.16 0 0 1 0 .2 1 1 0 0 1-.61.5zm-1.1-2a.39.39 0 0 0-.27.15.62.62 0 0 0-.18.37c0 .43.81 1 1.52 1.35a.88.88 0 0 0 .55-.44v-.06A6.41 6.41 0 0 1 14 44.56c-.08-.11-.1-.13-.16-.13z"/><path class="cls-10" d="M13.08 45.81c.21 0 .08.23 1.52 1.1.18.1-.31.62-.5.55-.64-.25-1.37-.72-1.44-1.12 0-.13.16-.53.42-.53z"/><path class="cls-19" d="M14.14 47.53h-.06c-.68-.27-1.41-.75-1.48-1.17a.66.66 0 0 1 .17-.43.41.41 0 0 1 .31-.17c.11 0 .15 0 .24.13a5.22 5.22 0 0 0 1.31 1 .15.15 0 0 1 .06.19.81.81 0 0 1-.55.45zm-1.06-1.66a.34.34 0 0 0-.22.12.59.59 0 0 0-.14.34c.06.37.77.83 1.4 1.07.13 0 .39-.25.44-.4a5.89 5.89 0 0 1-1.34-1c-.07-.12-.09-.13-.14-.13z"/><path class="cls-10" d="M12.36 47c.2 0 .07.23 1.45 1.05.17.1-.29.6-.48.53-.61-.24-1.31-.69-1.37-1.06 0-.13.15-.52.4-.52z"/><path class="cls-19" d="M13.37 48.69h-.06c-.53-.2-1.33-.66-1.41-1.11a.67.67 0 0 1 .16-.42.43.43 0 0 1 .3-.16c.1 0 .15.05.23.13a5 5 0 0 0 1.25.93.15.15 0 0 1 .06.18.78.78 0 0 1-.53.45zm-1-1.59a.28.28 0 0 0-.2.12.54.54 0 0 0-.14.33c.06.33.72.77 1.33 1a.67.67 0 0 0 .41-.37 5.1 5.1 0 0 1-1.28-1c-.07-.07-.08-.08-.13-.08z"/><path class="cls-10" d="M11.75 48.3c.15 0 .05.17 1.11.8.13.08-.23.46-.37.41-.47-.18-1-.53-1.05-.82 0-.1.11-.39.31-.39z"/><path class="cls-19" d="M12.52 49.57c-.41-.15-1-.51-1.09-.86a.46.46 0 0 1 .13-.34.36.36 0 0 1 .23-.13c.09 0 .13 0 .19.11a4.06 4.06 0 0 0 1 .71.11.11 0 0 1 0 .15.6.6 0 0 1-.46.36zm-.77-1.21a.19.19 0 0 0-.15.08.36.36 0 0 0-.1.24c0 .25.55.59 1 .77a.45.45 0 0 0 .26-.19c.05-.07.05-.1.05-.11a3.89 3.89 0 0 1-1-.73c-.03-.06-.04-.06-.06-.06z"/><path class="cls-10" d="M27.23 43.62c-.07.17.18.14.45 1.55 0 .17.65 0 .65-.21 0-.58-.16-1.3-.49-1.48-.11-.07-.52-.06-.61.14z"/><path class="cls-19" d="M27.81 45.29c-.15 0-.18-.07-.19-.11a4.92 4.92 0 0 0-.4-1.34c0-.1-.08-.15 0-.24.1-.25.55-.25.69-.18.34.2.52.92.52 1.54 0 .11-.12.19-.22.24a.87.87 0 0 1-.4.09zm-.16-1.79c-.15 0-.32 0-.36.15s0 0 0 .13a4.61 4.61 0 0 1 .42 1.37h.07a.83.83 0 0 0 .31-.08c.11-.06.15-.11.15-.13 0-.57-.16-1.26-.46-1.43a.4.4 0 0 0-.13-.01z"/><path class="cls-10" d="M28.53 43.54c-.06.14.16.12.39 1.33 0 .15.56 0 .56-.18 0-.49-.14-1.12-.42-1.27-.09-.06-.45-.05-.53.12z"/><path class="cls-19" d="M29 45c-.14 0-.17-.08-.17-.11a3.65 3.65 0 0 0-.35-1.15c0-.08-.07-.13 0-.21s.49-.23.61-.16c.3.17.45.8.45 1.33 0 .1-.11.17-.2.22A.75.75 0 0 1 29 45zm0-.14a.72.72 0 0 0 .26-.07c.1 0 .13-.09.13-.11 0-.49-.15-1.08-.39-1.22h-.14c-.12 0-.27 0-.3.12s0 0 0 .1a4.2 4.2 0 0 1 .44 1.18z"/><path class="cls-10" d="M22.33 39.23c-.27.17 0 .38-1.29 2.66-.16.28.75.59.95.34.65-.83 1.31-2 1.17-2.61-.05-.2-.5-.59-.83-.39z"/><path class="cls-19" d="M21.72 42.38a1 1 0 0 1-.73-.32.18.18 0 0 1 0-.2 10.58 10.58 0 0 0 1.11-2.34c0-.18.08-.27.2-.34a.48.48 0 0 1 .23-.07.83.83 0 0 1 .69.49c.14.59-.49 1.79-1.19 2.67a.39.39 0 0 1-.31.11zm.81-3.15a.34.34 0 0 0-.17.05c-.08 0-.09.09-.15.27a10.46 10.46 0 0 1-1.12 2.37.06.06 0 0 0 0 .08.84.84 0 0 0 .62.26.26.26 0 0 0 .22-.07 4.37 4.37 0 0 0 1.16-2.56.71.71 0 0 0-.56-.4z"/><path class="cls-10" d="M23.7 40.42c-.27.11 0 .34-1.43 2.2-.17.23.65.62.86.43.68-.65 1.39-1.64 1.31-2.17 0-.19-.42-.6-.74-.46z"/><path class="cls-19" d="M23 43.16a1 1 0 0 1-.74-.38.2.2 0 0 1 0-.2 8 8 0 0 0 1.23-1.93c.07-.16.1-.23.22-.28a.32.32 0 0 1 .16 0 .82.82 0 0 1 .67.54c.08.55-.61 1.53-1.33 2.22a.29.29 0 0 1-.21.03zm.88-2.71a.23.23 0 0 0-.11 0c-.07 0-.09.06-.16.21a7.89 7.89 0 0 1-1.24 2v.07A.89.89 0 0 0 23 43a.18.18 0 0 0 .14 0c.68-.65 1.37-1.61 1.29-2.12a.7.7 0 0 0-.6-.43z"/><path class="cls-10" d="M25 41.64c-.27.07 0 .33-1.59 2-.19.2.6.7.83.53.73-.54 1.52-1.41 1.48-1.94 0-.18-.38-.64-.72-.54z"/><path class="cls-19" d="M24.08 44.22a1.06 1.06 0 0 1-.78-.47.18.18 0 0 1 0-.2 7.19 7.19 0 0 0 1.38-1.73c.08-.14.12-.21.25-.24h.11a.86.86 0 0 1 .68.61c0 .55-.73 1.42-1.51 2a.25.25 0 0 1-.13.03zm1-2.53H25c-.08 0-.09 0-.17.18a7.87 7.87 0 0 1-1.4 1.76v.06a1 1 0 0 0 .67.4.11.11 0 0 0 .08 0c.74-.54 1.5-1.39 1.46-1.89a.75.75 0 0 0-.58-.51z"/><path class="cls-10" d="M26 43.05c-.26 0 0 .3-1.59 1.6-.19.16.5.69.72.57.71-.42 1.49-1.13 1.48-1.61 0-.17-.3-.61-.61-.56z"/><path class="cls-19" d="M25 45.3a1 1 0 0 1-.72-.5.15.15 0 0 1 0-.19 7.13 7.13 0 0 0 1.38-1.42c.08-.12.12-.18.24-.2.34-.06.68.41.68.62 0 .5-.76 1.21-1.51 1.66a.2.2 0 0 1-.07.03zm1-2.2c-.07 0-.09 0-.17.15a6.8 6.8 0 0 1-1.39 1.44.93.93 0 0 0 .61.43h.05c.71-.41 1.46-1.1 1.45-1.55-.03-.09-.28-.47-.55-.47z"/><path class="cls-10" d="M27.06 44.37c-.24 0-.06.28-1.65 1.39-.2.14.42.7.63.6.71-.34 1.51-1 1.55-1.41 0-.15-.23-.6-.53-.58z"/><path class="cls-19" d="M26 46.43a1 1 0 0 1-.66-.52c0-.09 0-.16.05-.2a6.51 6.51 0 0 0 1.44-1.23c.08-.1.13-.16.25-.17a.47.47 0 0 1 .38.18.77.77 0 0 1 .21.47c0 .48-.83 1.09-1.58 1.45zm1.1-2c-.07 0-.08 0-.17.13a6.41 6.41 0 0 1-1.46 1.25v.06a.84.84 0 0 0 .54.44c.7-.33 1.48-.92 1.51-1.35a.66.66 0 0 0-.18-.38.42.42 0 0 0-.26-.15z"/><path class="cls-10" d="M27.86 45.81c-.21 0-.07.23-1.52 1.1-.18.1.31.62.51.55.63-.25 1.37-.72 1.43-1.12 0-.13-.16-.53-.42-.53z"/><path class="cls-19" d="M26.8 47.53a.81.81 0 0 1-.55-.49.16.16 0 0 1 .06-.19 5.64 5.64 0 0 0 1.32-1c.08-.09.13-.13.23-.13a.41.41 0 0 1 .31.17.66.66 0 0 1 .17.43c-.07.42-.79.9-1.47 1.17zm1.06-1.66c-.05 0-.06 0-.14.1a6.09 6.09 0 0 1-1.35 1 .73.73 0 0 0 .43.4c.64-.24 1.34-.7 1.4-1.07a.59.59 0 0 0-.14-.34.32.32 0 0 0-.2-.09z"/><path class="cls-10" d="M28.58 47c-.2 0-.07.23-1.45 1.05-.17.1.3.6.48.53.61-.24 1.31-.69 1.37-1.06 0-.13-.15-.52-.4-.52z"/><path class="cls-19" d="M27.57 48.69a.8.8 0 0 1-.53-.47.15.15 0 0 1 .06-.22 5.46 5.46 0 0 0 1.26-.93c.08-.08.12-.13.22-.13a.41.41 0 0 1 .3.16.62.62 0 0 1 .16.42c-.07.45-.88.91-1.4 1.11zm1-1.59s-.06 0-.13.09a5.52 5.52 0 0 1-1.29 1 .67.67 0 0 0 .41.37c.61-.24 1.28-.68 1.33-1a.58.58 0 0 0-.13-.33.32.32 0 0 0-.18-.13z"/><path class="cls-10" d="M29.2 48.3c-.16 0-.06.17-1.12.8-.13.08.23.46.37.41.47-.18 1-.53 1.06-.82 0-.1-.12-.39-.31-.39z"/><path class="cls-19" d="M28.42 49.57a.6.6 0 0 1-.42-.37.12.12 0 0 1 .05-.15 4.25 4.25 0 0 0 1-.71c.06-.07.09-.11.18-.11a.39.39 0 0 1 .24.13.56.56 0 0 1 .13.34c-.06.35-.69.71-1.1.86zm.78-1.21l-.1.06a3.89 3.89 0 0 1-1 .73.28.28 0 0 0 .06.11.47.47 0 0 0 .25.19c.47-.18 1-.52 1-.77a.47.47 0 0 0-.11-.24.18.18 0 0 0-.1-.08z"/><g class="cls-23"><path class="cls-10" d="M27.42 44.15a5.73 5.73 0 0 1 .26 1c0 .17.65 0 .65-.21a3.46 3.46 0 0 0-.09-.78c-.24.02-.55 0-.82-.01zm1.33 0c.05.18.11.41.17.72 0 .15.56 0 .56-.18a3 3 0 0 0-.08-.69 3.55 3.55 0 0 1-.65.15zm-6.49-3.24c.14.1.27.21.4.32a2.73 2.73 0 0 0 .5-1.61c-.05-.2-.5-.59-.83-.39s-.08.27-.55 1.28c.16.14.32.28.48.4zM23.6 42l.24.23a2.29 2.29 0 0 0 .6-1.37c0-.19-.42-.6-.74-.46s-.1.24-.66 1.12zm1.4 1.4a2 2 0 0 0 .67-1.22c0-.18-.38-.64-.72-.54s-.11.21-.72 1c.27.23.53.49.77.76zm.93 1.05l.07.09a1.54 1.54 0 0 0 .58-.93c0-.17-.3-.61-.61-.56s-.13.16-.63.71c.2.24.4.46.59.69zm1.01 1.36a1.48 1.48 0 0 0 .65-.86c0-.15-.23-.6-.53-.58s-.13.15-.69.65zm.79 1.19a1.23 1.23 0 0 0 .55-.65c0-.13-.16-.53-.42-.53s-.13.11-.59.48c.15.22.3.46.46.7zm.72 1.17a1.15 1.15 0 0 0 .53-.61c0-.13-.15-.52-.4-.52s-.12.11-.55.45c.15.22.29.45.42.68zm.6 1.03a1 1 0 0 0 .46-.51c0-.1-.12-.39-.31-.39s-.1.09-.46.36c.11.18.26.34.31.54z"/></g><g class="cls-23"><path class="cls-10" d="M12.83 44.18h-.12a3.06 3.06 0 0 0-.1.79c0 .17.62.38.66.21a6 6 0 0 1 .22-.92c-.22-.02-.43-.07-.66-.08zm-.7-.05a1.72 1.72 0 0 1-.57-.17 3.06 3.06 0 0 0-.1.73c0 .15.54.33.57.18.06-.32.12-.56.17-.73zm5.71-2.69a5.75 5.75 0 0 0-.87.62 6.72 6.72 0 0 0 .85 1c.2.19 1-.2.85-.43-.39-.52-.67-.9-.83-1.19zm-1.28.99c-.27.26-.53.53-.77.8a5.4 5.4 0 0 0 1 .89c.22.17 1-.33.83-.53a11.7 11.7 0 0 1-1.06-1.16zm-1.09 1.18l-.56.69-.09.12a4.81 4.81 0 0 0 1 .8c.21.12.91-.41.72-.57a11.08 11.08 0 0 1-1.07-1.04zm-1.02 1.3c-.19.27-.37.54-.55.82a5.44 5.44 0 0 0 1 .63c.22.1.83-.46.63-.6a10.45 10.45 0 0 1-1.08-.85zm.15 2a8.55 8.55 0 0 1-1-.69l-.43.73a4.48 4.48 0 0 0 .94.51c.18.07.67-.46.49-.55zm-.79 1.18a9.15 9.15 0 0 1-.94-.63l-.39.7a4.35 4.35 0 0 0 .85.46c.19.07.67-.43.48-.53zm-.95 1.01a5.66 5.66 0 0 1-.66-.44l-.31.54a3.41 3.41 0 0 0 .6.31c.14.05.51-.33.37-.41z"/></g><path class="cls-21" d="M18.06 39.52s-.2.09-.06.63A6.93 6.93 0 0 0 19 42s-1.13-1.89-.94-2.48zm-1.35 1.26s-.17.12.06.61A6.75 6.75 0 0 0 18 43s-1.36-1.63-1.29-2.22zm-1.25 1.33s-.15.14.12.59A6.66 6.66 0 0 0 17 44.13s-1.55-1.43-1.54-2.02zm-.9 1.35s-.17.2.1.57A5.8 5.8 0 0 0 16 45.12s-1.37-1.12-1.44-1.66zm-1 1.27s-.15.25.16.59a4.56 4.56 0 0 0 1.23.91s-1.37-.96-1.39-1.5zm-.64 1.37a.4.4 0 0 0 .11.54 3.86 3.86 0 0 0 1.23.73s-1.38-.76-1.34-1.27zm-.75 1.21s-.15.22.12.5a3.73 3.73 0 0 0 1.07.7s-1.2-.74-1.19-1.2zm-.56 1.16a.32.32 0 0 0 .09.4 3.22 3.22 0 0 0 .87.58s-.97-.6-.96-.98zm1.53-4.88s-.33.27-.42 1.27c0 0 .36-1.08.68-1.25a.23.23 0 0 0-.26-.02zm-1.22-.05s-.28.25-.33 1.12c0 0 .28-.95.56-1.1 0 0-.15-.1-.23-.02z"/><path class="cls-20" d="M22.85 39.52s.2.09.06.63a7.22 7.22 0 0 1-1 1.84s1.09-1.88.94-2.47zm1.35 1.26s.17.12-.06.61A6.75 6.75 0 0 1 22.91 43s1.36-1.63 1.29-2.22zm1.25 1.33s.15.14-.12.59A6.66 6.66 0 0 1 24 44.13s1.46-1.43 1.45-2.02zm.9 1.35s.17.2-.11.57a5.54 5.54 0 0 1-1.3 1.09s1.34-1.12 1.41-1.66zm1 1.27s.15.25-.16.59a4.56 4.56 0 0 1-1.23.91s1.37-.96 1.39-1.5zM28 46.1a.4.4 0 0 1-.11.54 3.86 3.86 0 0 1-1.23.73S28 46.61 28 46.1zm.74 1.21s.14.22-.12.5a3.73 3.73 0 0 1-1.07.7s1.2-.74 1.19-1.2zm.56 1.16a.32.32 0 0 1-.09.4 3.22 3.22 0 0 1-.87.58s.97-.6.96-.98zm-1.53-4.88s.33.27.42 1.27c0 0-.36-1.08-.68-1.25a.23.23 0 0 1 .26-.02zm1.23-.05s.28.25.33 1.12c0 0-.28-.95-.56-1.1-.01 0 .12-.1.23-.02z"/><path class="cls-5" d="M15.92 36.1a5.17 5.17 0 0 1 .35 2 26.67 26.67 0 0 1-.67 4.9 9.17 9.17 0 0 0 0 4.93 8.72 8.72 0 0 0 1.25 2.33 9.31 9.31 0 0 1-.5-1.49 11.72 11.72 0 0 1-.22-2.44 26.72 26.72 0 0 1 .55-5.11c.33-1.85.6-5.18-1.51-6.16a4 4 0 0 1 .75 1.04zm9.14 0a5 5 0 0 0-.35 2 26.66 26.66 0 0 0 .66 4.9 9.27 9.27 0 0 1 0 4.93 8.75 8.75 0 0 1-1.26 2.33 9.34 9.34 0 0 0 .51-1.49 12.45 12.45 0 0 0 .22-2.44 27.55 27.55 0 0 0-.55-5.11C24 39.32 23.72 36 25.84 35a3.82 3.82 0 0 0-.78 1.1z"/><path class="cls-9" d="M22.79 53.39a10.13 10.13 0 0 0-.11 4.49 10.07 10.07 0 0 1 .38-3.77zm15.62 3.88a16.88 16.88 0 0 1-3.06 3 6.09 6.09 0 0 0 3.06-3zM27 42.66s0-1-.11-2.64-.58-3.32.82-3.35a.83.83 0 0 0-.74.91 45.06 45.06 0 0 1 .03 5.08z"/><path d="M20.23.36a1.56 1.56 0 0 0-1.32 1.29c-.3 1.43-.2 2.62-1.43 3.25s-2.89.83-3.17 3.1a3.05 3.05 0 0 1 1.9-2.17c1.62-.61 2.28-.72 2.61-2.53S19.13.58 20.23.36z" style="mix-blend-mode:screen" opacity=".8" fill="#fc8053"/><path d="M24.13 5.31A3.46 3.46 0 0 1 26.5 8a4.57 4.57 0 0 1-2.61 4.57S26 11.06 26.2 9.44a3.68 3.68 0 0 0-2.07-4.13z" style="mix-blend-mode:multiply" opacity=".7" fill="#fc8053"/><path d="M16.72 50.06l.1.15z" fill="none"/><path class="cls-9" d="M16.32 48.72a11.72 11.72 0 0 1-.22-2.44 26.72 26.72 0 0 1 .55-5.11c.33-1.85.6-5.18-1.51-6.16l.06.07c2 1.22 1.45 4.89 1.13 6.33a20 20 0 0 0-.61 5.24 6.46 6.46 0 0 0 1 3.39l.1.15a9.31 9.31 0 0 1-.5-1.47zM25.84 35a3.4 3.4 0 0 0-1.25 1.82 11.58 11.58 0 0 0 .15 4.11c.17 1.18.88 4 .73 5.39A11.53 11.53 0 0 1 24.3 50a8.81 8.81 0 0 0 1.11-2.13 9.27 9.27 0 0 0 0-4.93 26.66 26.66 0 0 1-.66-4.87 5 5 0 0 1 .35-2 3.82 3.82 0 0 1 .74-1.07z"/></svg>